<svg width="307" height="257" viewBox="0 0 307 257" fill="none" xmlns="http://www.w3.org/2000/svg">
<g clip-path="url(#clip0_15_2)">
<path opacity="0.1" d="M102.065 256.856C117.015 256.856 129.135 254.555 129.135 251.717C129.135 248.879 117.015 246.579 102.065 246.579C87.1141 246.579 74.9942 248.879 74.9942 251.717C74.9942 254.555 87.1141 256.856 102.065 256.856Z" fill="#04AD48"/>
<path opacity="0.1" d="M249.217 257C267.873 257 282.997 254.699 282.997 251.862C282.997 249.024 267.873 246.723 249.217 246.723C230.561 246.723 215.437 249.024 215.437 251.862C215.437 254.699 230.561 257 249.217 257Z" fill="#04AD48"/>
<path opacity="0.1" d="M3.84501 111.042H32.0408V156.461H5.9092C5.83975 156.927 5.77307 157.397 5.70084 157.866H32.0408V194.495C31.9935 194.479 31.9519 194.459 31.9074 194.439C31.1629 194.091 30.4239 193.724 29.6849 193.33L29.2126 193.077C28.4717 192.663 27.7309 192.225 26.99 191.763C26.7317 191.602 26.4733 191.435 26.2177 191.264C22.1048 188.541 18.3685 185.091 15.1383 181.033C15.0439 180.925 14.955 180.81 14.8605 180.705C14.4104 180.127 13.9687 179.543 13.5409 178.945L13.0686 178.289C12.5629 177.556 12.074 176.804 11.5989 176.043C11.5295 175.931 11.4628 175.819 11.3905 175.714C9.45846 172.548 7.85421 169.12 6.61208 165.503C6.57319 165.395 6.53985 165.277 6.50373 165.175C6.12219 164.015 5.78418 162.844 5.48969 161.662C5.3619 161.166 5.23966 160.677 5.13409 160.161C5.09519 160.01 5.06185 159.862 5.03129 159.715C3.45329 152.436 3.26715 144.874 3.26715 137.365C3.26715 136.488 3.26715 135.608 3.26715 134.738C3.26715 131.701 3.29771 128.644 3.34216 125.591C3.34216 124.8 3.36994 124.012 3.38383 123.217C3.42273 121.201 3.47829 119.185 3.55053 117.169C3.56719 116.608 3.58942 116.05 3.61442 115.491C3.61442 115.17 3.62831 114.848 3.6561 114.526C3.72277 113.357 3.77834 112.198 3.84501 111.042Z" fill="#04AD48"/>
<path opacity="0.1" d="M32.0408 60.4725H16.5746C19.0887 55.8219 21.8357 51.353 24.8008 47.0897C27.0984 43.7538 29.5237 40.5033 32.0408 37.371V60.4725Z" fill="#04AD48"/>
<path opacity="0.1" d="M32.0407 61.8778V109.637H3.9339C3.9339 109.499 3.95335 109.358 3.96168 109.22C3.98668 108.843 4.01169 108.465 4.03947 108.091C4.07003 107.651 4.10337 107.208 4.13948 106.777C4.1756 106.347 4.2145 105.822 4.25617 105.346C4.29784 104.87 4.33673 104.387 4.38396 103.911C4.43119 103.435 4.47287 102.959 4.52287 102.486C4.57288 102.013 4.61733 101.534 4.67012 101.061C4.71179 100.667 4.75624 100.276 4.80069 99.8824C4.86459 99.3275 4.93126 98.7694 5.0035 98.2178C5.0035 98.1357 5.02295 98.0503 5.03406 97.9715C5.54113 93.9335 6.23204 89.9308 7.1038 85.9808C8.01632 81.8371 9.18157 77.7771 10.5904 73.8324C12.0878 69.7058 13.8409 65.7156 15.8356 61.8942L32.0407 61.8778Z" fill="#04AD48"/>
<path opacity="0.1" d="M50 99.0413V144.463H110.223V99.0413H50ZM50 145.865V184.871C50.3445 184.956 50.6862 185.038 51.0251 185.107C51.4863 185.213 51.9447 185.308 52.4142 185.39C52.5031 185.406 52.5948 185.423 52.6921 185.432C52.8754 185.469 53.0643 185.498 53.2477 185.528C53.7116 185.603 54.1728 185.666 54.6368 185.715C54.8563 185.741 55.0785 185.764 55.3008 185.784L55.837 185.833C56.1287 185.859 56.4176 185.879 56.7037 185.889C56.8815 185.889 57.0594 185.909 57.2427 185.915C57.3816 185.915 57.5205 185.915 57.665 185.915C57.8095 185.915 58.015 185.915 58.1901 185.915C58.429 185.915 58.6679 185.915 58.9041 185.915H59.2236C59.4625 185.915 59.7014 185.915 59.9376 185.889H59.9542C60.1181 185.889 60.2848 185.889 60.4515 185.863C60.4978 185.866 60.5442 185.866 60.5904 185.863C60.7293 185.863 60.8682 185.863 61.0016 185.84H61.0988L62.0295 185.754C62.3351 185.721 62.6435 185.679 62.9547 185.639L63.5881 185.551C66.1651 185.124 68.7134 184.483 71.2142 183.633C76.8317 181.781 82.3269 179.191 87.9416 177.293C95.201 174.847 103.222 173.645 110.236 176.636V145.865H50ZM110.223 48.4746V-11.9946C103.629 -12.0791 97.0538 -11.1677 90.6559 -9.28259C75.4065 -4.75487 61.7239 5.0656 50 17.6079V48.4713H53.0227V49.8733H50V97.6393H110.223V49.8766H65.4328V48.4746H110.223ZM187.575 28.049C183.803 27.8914 180.052 26.4795 176.66 24.2994C170.173 20.1295 164.992 13.6909 159.202 8.257C147.172 -3.06067 132.254 -9.89001 116.949 -11.5842V48.4746H202.919L203.133 48.2087L187.575 28.049ZM195.407 26.4073L203.711 37.1766V23.5836C200.93 23.9908 198.494 24.9593 195.418 26.3942L195.407 26.4073ZM203.711 194.557V145.865H186.017C185.97 145.658 185.922 145.448 185.867 145.238C185.92 145.448 185.964 145.658 186.014 145.865H116.96V181.079C117.615 181.653 118.263 182.258 118.904 182.871C119.596 183.528 120.28 184.221 120.966 184.901L121.658 185.577C121.988 185.905 122.322 186.234 122.658 186.542C123.324 187.181 123.998 187.812 124.677 188.433C125.014 188.762 125.358 189.057 125.7 189.366C131.125 194.268 136.848 198.692 142.822 202.601C144.161 203.477 145.512 204.331 146.875 205.165C147.784 205.714 148.698 206.259 149.614 206.787C150.992 207.582 152.381 208.348 153.782 209.086C166.691 215.934 180.341 220.634 194.343 223.05C197.453 223.593 200.575 224.019 203.708 224.33V194.554H203.986L203.711 194.557ZM116.96 49.8766V97.6393H203.722V49.8766H116.96ZM116.96 99.0413V144.463H203.722V99.0413H116.96ZM210.457 23.5245V38.687L221.055 24.9429C217.544 24.2731 214.011 23.7949 210.457 23.5081V23.5245ZM210.457 99.0577V144.463H294.844V99.0413L210.457 99.0577ZM294.535 198.162L294.833 145.865H210.457V224.852C215.892 225.122 221.336 225.045 226.764 224.622H226.859C229.452 224.43 232.033 224.15 234.602 223.782H234.66C248.365 221.897 261.766 217.671 274.444 211.236M311.116 106.521C310.799 105.638 310.468 104.761 310.132 103.894C309.504 102.252 308.84 100.657 308.157 99.061H301.573V144.463H318.219C318.211 131.605 315.458 118.472 311.124 106.504L311.116 106.521ZM301.573 145.881V190.863C306.262 185.551 310.224 179.473 313.077 172.526C316.508 164.16 318.078 155.101 318.205 145.875L301.573 145.881ZM301.573 85.8226V97.6426H307.54C305.735 93.5736 303.745 89.6224 301.581 85.8062L301.573 85.8226ZM244.342 32.4355C243.903 32.2385 243.464 32.0382 243.022 31.8445C238.364 29.8112 233.603 28.1204 228.768 26.7816L212.549 47.8179L212.237 48.2087L212.446 48.4779H270.171C262.131 41.9376 253.464 36.5471 244.35 32.4191L244.342 32.4355ZM271.863 49.893H211.64L210.457 51.1735V97.6393H220.83H220.847H294.855V75.132C288.16 65.563 280.433 57.0722 271.871 49.8766L271.863 49.893Z" fill="#04AD48"/>
<path opacity="0.1" d="M32.0407 85.9676V109.637H3.9339C3.9339 109.499 3.95335 109.358 3.96168 109.22C3.98668 108.843 4.01169 108.465 4.03947 108.091C4.07003 107.651 4.10337 107.208 4.13948 106.777C4.1756 106.347 4.2145 105.822 4.25617 105.346C4.29784 104.87 4.33673 104.387 4.38396 103.911C4.43119 103.435 4.47287 102.959 4.52287 102.486C4.57288 102.013 4.61733 101.534 4.67012 101.061C4.71179 100.667 4.75624 100.276 4.80069 99.8824C4.86459 99.3275 4.93126 98.7694 5.0035 98.2178C5.0035 98.1357 5.02295 98.0503 5.03406 97.9715C5.54113 93.9335 6.23204 89.9308 7.1038 85.9808L32.0407 85.9676Z" fill="#04AD48"/>
<path opacity="0.1" d="M3.84501 111.042H32.0408V156.461H5.9092C5.83975 156.927 5.77307 157.397 5.70084 157.866H32.0408V194.495C31.9935 194.479 31.9519 194.459 31.9074 194.439C31.1629 194.091 30.4239 193.724 29.6849 193.33L29.2126 193.077C28.4717 192.663 27.7309 192.225 26.99 191.763C26.7317 191.602 26.4733 191.435 26.2177 191.264C22.1048 188.541 18.3685 185.091 15.1383 181.033C15.0439 180.925 14.955 180.81 14.8605 180.705C14.4104 180.127 13.9687 179.543 13.5409 178.945L13.0686 178.289C12.5629 177.556 12.074 176.804 11.5989 176.043C11.5295 175.931 11.4628 175.819 11.3905 175.714C9.45846 172.548 7.85421 169.12 6.61208 165.503C6.57319 165.395 6.53985 165.277 6.50373 165.175C6.12219 164.015 5.78418 162.844 5.48969 161.662C5.3619 161.166 5.23966 160.677 5.13409 160.161C5.09519 160.01 5.06185 159.862 5.03129 159.715C3.45329 152.436 3.26715 144.874 3.26715 137.365C3.26715 136.488 3.26715 135.608 3.26715 134.738C3.26715 131.701 3.29771 128.644 3.34216 125.591C3.34216 124.8 3.36994 124.012 3.38383 123.217C3.42273 121.201 3.47829 119.185 3.55053 117.169C3.56719 116.608 3.58942 116.05 3.61442 115.491C3.61442 115.17 3.62831 114.848 3.6561 114.526C3.72277 113.357 3.77834 112.198 3.84501 111.042Z" fill="#04AD48"/>
<path opacity="0.1" d="M59.9726 68.7137V109.637H38.7723V68.7137H41.7949V54.858H54.2023V68.7137H59.9726Z" fill="#04AD48"/>
<path opacity="0.1" d="M59.9726 111.039H38.7751V156.458H59.9726V111.039Z" fill="#04AD48"/>
<path opacity="0.1" d="M38.7723 157.866H59.9726V195.625C57.4718 196.474 54.9234 197.113 52.3465 197.539L51.713 197.631C51.4019 197.673 51.0935 197.709 50.7879 197.746C50.4823 197.782 50.1656 197.808 49.8572 197.831H49.76C49.6266 197.831 49.4822 197.851 49.3516 197.854H49.2099C49.0432 197.854 48.8765 197.874 48.7098 197.88C48.4737 197.897 48.2375 197.9 47.9958 197.903C47.893 197.903 47.7958 197.903 47.693 197.903C47.4541 197.903 47.2179 197.903 46.979 197.903H46.4539C46.3123 197.903 46.1761 197.903 46.0289 197.903L45.4927 197.88C45.2149 197.88 44.9148 197.844 44.6259 197.821L44.0925 197.775L43.4285 197.703C42.9618 197.654 42.4978 197.591 42.0394 197.516L41.4838 197.424L41.206 197.378C40.742 197.293 40.2836 197.201 39.8169 197.095C39.4752 197.027 39.1362 196.941 38.7917 196.859L38.7723 157.866Z" fill="#04AD48"/>
<path opacity="0.1" d="M192.495 63.8806H175.014V109.634H192.495V63.8806Z" fill="#04AD48"/>
<path opacity="0.1" d="M192.497 111.039V156.461H105.732V136.869H151.947V148.427H175.014V111.039H192.497Z" fill="#04AD48"/>
<path opacity="0.1" d="M192.772 206.565H192.495V236.361C189.364 236.048 186.244 235.622 183.132 235.084C169.123 232.66 155.467 227.95 142.554 221.09C138.826 219.107 135.173 216.942 131.597 214.596C125.623 210.684 119.899 206.261 114.472 201.361C113.109 200.126 111.763 198.863 110.435 197.572C109.516 196.675 108.602 195.756 107.677 194.863C107.035 194.249 106.388 193.645 105.732 193.067V157.866H174.784C174.736 157.656 174.689 157.446 174.639 157.239C174.692 157.446 174.742 157.656 174.789 157.866H192.495V206.545C192.589 206.548 192.681 206.558 192.772 206.565Z" fill="#04AD48"/>
<path opacity="0.1" d="M238.084 60.4725H226.694V56.2896H231.8V43.8293C232.243 44.0197 232.684 44.2156 233.123 44.417V56.2896H238.084V60.4725Z" fill="#04AD48"/>
<path opacity="0.1" d="M265.527 109.637H209.608C209.608 109.637 209.608 109.637 209.628 109.654L209.603 109.637H199.229V63.8839H202.168V97.7023H215.601V77.6739H226.697V61.8778H238.087V77.687H249.183V97.7154H265.527V109.637Z" fill="#04AD48"/>
<path opacity="0.1" d="M199.229 111.039V156.461H265.527V111.039H199.229ZM283.524 209.927L283.616 173.974H265.527V157.886H199.229V236.85C204.664 237.12 210.108 237.043 215.537 236.62V236.62H215.631C218.224 236.428 220.805 236.148 223.374 235.78H223.432C237.137 233.895 250.538 229.669 263.216 223.234" fill="#04AD48"/>
<path opacity="0.1" d="M291.523 157.866H306.989C306.853 167.089 305.286 176.148 301.858 184.514C299.004 191.465 295.04 197.542 290.356 202.851V173.958H291.523V157.866Z" fill="#04AD48"/>
<path opacity="0.1" d="M306.997 156.461H291.523V118.502H299.896C304.23 130.47 306.983 143.603 306.997 156.461Z" fill="#04AD48"/>
<path opacity="0.1" d="M192.497 76.6003H183.132V90.9452H192.497V76.6003Z" fill="#04AD48"/>
<path opacity="0.1" d="M192.497 106.334H183.132V109.637H192.497V106.334Z" fill="#04AD48"/>
<path opacity="0.1" d="M192.497 111.039H183.132V120.676H192.497V111.039Z" fill="#04AD48"/>
<path opacity="0.1" d="M192.497 136.068H183.132V150.413H192.497V136.068Z" fill="#04AD48"/>
<path opacity="0.1" d="M192.497 165.802H183.132V180.147H192.497V165.802Z" fill="#04AD48"/>
<path opacity="0.1" d="M192.495 206.545C192.589 206.545 192.681 206.545 192.772 206.565H192.495V209.897H183.132V195.536H192.495V206.545Z" fill="#04AD48"/>
<path opacity="0.1" d="M192.495 225.263V236.345C189.364 236.032 186.244 235.606 183.132 235.067V225.263H192.495Z" fill="#04AD48"/>
<path opacity="0.1" d="M145.868 155.407H105.732V156.461H145.868V155.407Z" fill="#04AD48"/>
<path opacity="0.1" d="M145.868 157.863H105.732V161.901H145.868V157.863Z" fill="#04AD48"/>
<path opacity="0.1" d="M145.868 175.14H105.732V181.634H145.868V175.14Z" fill="#04AD48"/>
<path opacity="0.1" d="M145.866 194.873V201.367H114.472C113.109 200.137 111.762 198.874 110.433 197.578C109.513 196.682 108.602 195.762 107.674 194.873H145.866Z" fill="#04AD48"/>
<path opacity="0.1" d="M145.866 214.602V221.09H142.551C138.827 219.105 135.175 216.939 131.597 214.592L145.866 214.602Z" fill="#04AD48"/>
<path opacity="0.1" d="M223.441 115.442H215.54V124.78H223.441V115.442Z" fill="#04AD48"/>
<path opacity="0.1" d="M52.3659 71.9347H44.4648V81.2725H52.3659V71.9347Z" fill="#04AD48"/>
<path opacity="0.1" d="M52.3659 93.6244H44.4648V102.962H52.3659V93.6244Z" fill="#04AD48"/>
<path opacity="0.1" d="M52.3659 115.314H44.4648V124.652H52.3659V115.314Z" fill="#04AD48"/>
<path opacity="0.1" d="M52.3659 137.001H44.4648V146.338H52.3659V137.001Z" fill="#04AD48"/>
<path opacity="0.1" d="M52.3659 158.69H44.4648V168.028H52.3659V158.69Z" fill="#04AD48"/>
<path opacity="0.1" d="M52.3659 180.38H44.4648V189.718H52.3659V180.38Z" fill="#04AD48"/>
<path opacity="0.1" d="M253.603 115.442H245.702V124.78H253.603V115.442Z" fill="#04AD48"/>
<path opacity="0.1" d="M223.441 138.475H215.54V147.813H223.441V138.475Z" fill="#04AD48"/>
<path opacity="0.1" d="M253.603 138.475H245.702V147.813H253.603V138.475Z" fill="#04AD48"/>
<path opacity="0.1" d="M223.441 161.504H215.54V170.842H223.441V161.504Z" fill="#04AD48"/>
<path opacity="0.1" d="M253.603 161.504H245.702V170.842H253.603V161.504Z" fill="#04AD48"/>
<path opacity="0.1" d="M223.441 184.537H215.54V193.875H223.441V184.537Z" fill="#04AD48"/>
<path opacity="0.1" d="M253.603 184.537H245.702V193.875H253.603V184.537Z" fill="#04AD48"/>
<path opacity="0.1" d="M223.441 207.569H215.54V216.907H223.441V207.569Z" fill="#04AD48"/>
<path opacity="0.1" d="M253.603 207.569H245.702V216.907H253.603V207.569Z" fill="#04AD48"/>
<path opacity="0.1" d="M215.54 236.62V230.599H223.438V235.763L215.54 236.62Z" fill="#04AD48"/>
<path opacity="0.1" d="M5.00073 97.965V103.307H32.0408V97.965H5.00073ZM7.69557 102.972H5.48969V98.2933H7.71224L7.69557 102.972ZM10.3876 102.972H8.16508V98.2933H10.3876V102.972ZM13.0741 102.972H10.8516V98.2933H13.0741V102.972ZM15.7662 102.972H13.5464V98.2933H15.769L15.7662 102.972ZM18.4555 102.972H16.2329V98.2933H18.4555V102.972ZM21.1475 102.972H18.925V98.2933H21.1475V102.972ZM23.8396 102.972H21.617V98.2933H23.8396V102.972ZM26.5288 102.972H24.3063V98.2933H26.5288V102.972ZM29.2181 102.972H26.9956V98.2933H29.2181V102.972ZM31.9074 102.972H29.6849V98.2933H31.9074V102.972Z" fill="#04AD48"/>
<path opacity="0.1" d="M5.00073 113.508V118.85H32.0408V113.508H5.00073ZM7.69557 118.512H5.48969V113.846H7.71224L7.69557 118.512ZM10.3876 118.512H8.16508V113.846H10.3876V118.512ZM13.0741 118.512H10.8516V113.846H13.0741V118.512ZM15.7662 118.512H13.5464V113.846H15.769L15.7662 118.512ZM18.4555 118.512H16.2329V113.846H18.4555V118.512ZM21.1475 118.512H18.925V113.846H21.1475V118.512ZM23.8396 118.512H21.617V113.846H23.8396V118.512ZM26.5288 118.512H24.3063V113.846H26.5288V118.512ZM29.2181 118.512H26.9956V113.846H29.2181V118.512ZM31.9074 118.512H29.6849V113.846H31.9074V118.512Z" fill="#04AD48"/>
<path opacity="0.1" d="M5.00073 129.058V134.41H32.0408V129.058H5.00073ZM7.69557 134.062H5.48969V129.393H7.71224L7.69557 134.062ZM10.3876 134.062H8.16508V129.393H10.3876V134.062ZM13.0741 134.062H10.8516V129.393H13.0741V134.062ZM15.7662 134.062H13.5464V129.393H15.769L15.7662 134.062ZM18.4555 134.062H16.2329V129.393H18.4555V134.062ZM21.1475 134.062H18.925V129.393H21.1475V134.062ZM23.8396 134.062H21.617V129.393H23.8396V134.062ZM26.5288 134.062H24.3063V129.393H26.5288V134.062ZM29.2181 134.062H26.9956V129.393H29.2181V134.062ZM31.9074 134.062H29.6849V129.393H31.9074V134.062Z" fill="#04AD48"/>
<path opacity="0.1" d="M5.00073 144.608V149.943H32.0408V144.608H5.00073ZM7.69557 149.612H5.48969V144.94H7.71224L7.69557 149.612ZM10.3876 149.612H8.16508V144.94H10.3876V149.612ZM13.0741 149.612H10.8516V144.94H13.0741V149.612ZM15.7662 149.612H13.5464V144.94H15.769L15.7662 149.612ZM18.4555 149.612H16.2329V144.94H18.4555V149.612ZM21.1475 149.612H18.925V144.94H21.1475V149.612ZM23.8396 149.612H21.617V144.94H23.8396V149.612ZM26.5288 149.612H24.3063V144.94H26.5288V149.612ZM29.2181 149.612H26.9956V144.94H29.2181V149.612ZM31.9074 149.612H29.6849V144.94H31.9074V149.612Z" fill="#04AD48"/>
<path opacity="0.1" d="M5.11743 160.155C5.22578 160.657 5.34802 161.159 5.47581 161.655V160.49H7.69836V165.158H6.5093C6.54541 165.267 6.58153 165.385 6.61765 165.487H32.0408V160.155H5.11743ZM10.396 165.158H8.17343V160.49H10.396V165.158ZM13.0825 165.158H10.8599V160.49H13.0825V165.158ZM15.7745 165.158H13.5464V160.49H15.769L15.7745 165.158ZM18.4638 165.158H16.2413V160.49H18.4638V165.158ZM21.1559 165.158H18.9333V160.49H21.1559V165.158ZM23.8479 165.158H21.6254V160.49H23.8479V165.158ZM26.5372 165.158H24.3147V160.49H26.5372V165.158ZM29.2265 165.158H27.0039V160.49H29.2265V165.158ZM31.9158 165.158H29.6932V160.49H31.9158V165.158Z" fill="#04AD48"/>
<path opacity="0.1" d="M11.3961 175.705C11.4656 175.81 11.5322 175.928 11.6045 176.033H13.0741V178.275C13.2325 178.499 13.3881 178.722 13.5492 178.932V176.02H15.7718V180.705H14.8716C14.9605 180.813 15.0466 180.928 15.1494 181.033H32.0491V175.705H11.3961ZM18.4555 180.705H16.2329V176.039H18.4555V180.705ZM21.1475 180.705H18.925V176.039H21.1475V180.705ZM23.8396 180.705H21.617V176.039H23.8396V180.705ZM26.5289 180.705H24.3063V176.039H26.5289V180.705ZM29.2181 180.705H26.9956V176.039H29.2181V180.705ZM31.9074 180.705H29.6849V176.039H31.9074V180.705Z" fill="#04AD48"/>
<path opacity="0.1" d="M26.2288 191.251C26.4816 191.422 26.74 191.579 27.0011 191.75V191.586H29.2237V193.064L29.696 193.323V191.586H31.9185V194.426C31.9611 194.451 32.0058 194.471 32.0519 194.485V191.251H26.2288Z" fill="#04AD48"/>
<path opacity="0.1" d="M209.608 109.637H209.625H209.608ZM192.495 206.542H192.772H192.495ZM174.639 157.236C174.692 157.446 174.736 157.656 174.786 157.863C174.742 157.656 174.695 157.446 174.639 157.236ZM209.608 109.627H209.625H209.608ZM41.806 60.4627V61.8647H54.2162V60.4627H41.806ZM192.495 206.542H192.772H192.495ZM174.639 157.236C174.692 157.446 174.736 157.656 174.786 157.863C174.742 157.656 174.695 157.446 174.639 157.236ZM209.608 109.627H209.625H209.608ZM192.495 206.532H192.772H192.495ZM174.639 157.236C174.692 157.446 174.736 157.656 174.786 157.863C174.742 157.656 174.695 157.446 174.639 157.236Z" fill="#04AD48"/>
<path d="M128.241 124.658C128.241 124.658 127.146 124.478 127.146 122.593C127.146 120.709 126.363 117.189 126.363 117.189C126.363 117.172 125.685 111.059 124.749 110.087C123.812 109.115 122.609 103.409 122.609 103.409C122.609 103.409 122.404 100.313 121.984 99.646C121.565 98.9795 120.998 97.3477 120.162 95.0198C119.326 92.6919 115.839 91.0798 115.839 91.0798C115.839 91.0798 109.535 86.7589 107.749 85.3504C107.587 85.2346 107.435 85.0993 107.296 84.9465C106.985 84.4639 105.629 84.454 105.629 84.454C105.487 83.3968 105.351 82.1819 105.307 81.082C105.307 80.9638 105.307 80.8456 105.293 80.7274C107.285 79.3359 108.785 77.1419 109.519 74.5482C109.552 74.4234 109.58 74.2921 109.61 74.1673C109.73 74.1209 109.839 74.0455 109.933 73.946C110.026 73.8465 110.101 73.725 110.152 73.5895C110.313 73.1659 110.316 72.6701 110.516 72.2761C110.749 71.8099 111.194 71.5604 111.544 71.209C112.427 70.3225 112.655 68.8286 112.614 67.4693C112.586 66.3694 112.436 65.2596 112.494 64.1663L112.511 63.8905C112.527 63.7263 112.547 63.5621 112.572 63.4045C112.708 62.5903 113.005 61.822 113.172 61.0143C113.339 60.2066 113.355 59.2971 112.966 58.601C112.397 57.5799 111.211 57.3763 110.169 57.2713C108.988 57.1531 107.932 57.3074 107.177 56.1484C106.823 55.5426 106.425 54.9746 105.988 54.4509C105.832 54.2801 104.321 53.1901 104.321 53.1178C102.846 52.3104 101.174 52.1589 99.6116 52.691C98.8282 52.9602 98.0892 53.4002 97.2946 53.6202C95.5805 54.0996 93.608 53.5808 92.1522 54.7398C91.341 55.3965 90.8548 56.4406 90.3992 57.4584C90.0288 58.2968 89.6528 59.134 89.2713 59.9702C88.6573 61.3459 88.0322 62.7446 87.7738 64.2681C87.7195 64.5996 87.6861 64.9354 87.6738 65.2728V65.2892C87.6738 65.4107 87.6738 65.5321 87.6738 65.6536V65.8079C87.6738 65.9229 87.6738 66.0345 87.6905 66.1363C87.7071 66.2381 87.7044 66.2709 87.7127 66.3398C87.721 66.4088 87.7349 66.5631 87.7516 66.6682C87.7683 66.7732 87.8016 66.9571 87.8349 67.1016C87.8488 67.164 87.8683 67.2231 87.8849 67.2822C87.9127 67.3938 87.9461 67.5021 87.9822 67.6105C88.0016 67.6663 88.0211 67.7254 88.0433 67.7812C88.085 67.8961 88.135 68.0078 88.185 68.1096C88.2072 68.1555 88.2239 68.1982 88.2461 68.2409C88.3236 68.3936 88.409 68.5405 88.5017 68.6809C89.0962 69.5575 89.9714 70.1157 90.6187 70.9365C90.6187 70.9693 90.6187 71.0022 90.6187 71.0317C90.6187 71.1237 90.6187 71.2123 90.6187 71.3042C90.653 73.1349 91.0653 74.9279 91.8197 76.5273C92.574 78.1266 93.6476 79.484 94.9471 80.4812C94.9471 80.6059 94.961 80.734 94.9665 80.8588C95.0207 81.8334 95.0105 82.8115 94.936 83.7842C94.8228 83.6267 94.6812 83.5013 94.5216 83.4172C94.3619 83.3331 94.1883 83.2925 94.0136 83.2983C93.8942 83.2914 93.7746 83.3035 93.658 83.3344L93.633 83.3114V83.341C93.0218 83.5183 92.2689 84.2701 91.5494 86.4076C91.5494 86.4076 89.3602 89.3232 87.6932 89.2017C86.0263 89.0802 81.8063 92.2355 81.8063 92.2355C81.8063 92.2355 77.689 95.3941 76.8056 98.6118C76.3117 100.436 75.7197 102.222 75.0331 103.957L69.9435 116.352L69.0044 126.185C69.0044 126.185 69.5239 130.559 69.4212 131.225C69.3184 131.892 71.5576 137.903 71.5576 137.903C71.5576 137.903 78.9559 153.266 81.9785 154.054L82.1952 153.874C82.3245 153.953 82.4617 154.014 82.6036 154.054L83.2259 153.535C83.2633 154.114 83.2475 154.695 83.1787 155.269C82.762 156.786 83.3343 166.685 84.0622 168.626C84.79 170.566 84.5317 196.009 84.5317 196.009L84.4289 198.255C84.4289 198.255 84.4289 198.327 84.4539 198.452L84.4289 198.983L84.5039 199.029C84.5818 199.742 84.5564 200.465 84.4289 201.167C84.1677 202.152 84.0622 204.936 84.0622 204.936C84.0622 204.936 81.9813 220.657 82.9676 223.815C83.9538 226.974 84.7928 230.435 84.7928 230.435C84.7928 230.435 85.8346 234.375 84.8428 235.048C83.851 235.721 81.0312 236.85 81.6118 238.492C82.1397 240.009 84.1427 244.074 84.44 244.668L84.415 244.98L84.0066 250.21C84.0727 250.901 84.2312 251.574 84.4761 252.206C84.9234 253.346 85.793 254.528 87.446 254.4C87.7238 254.377 88.0461 254.337 88.3572 254.288C91.3827 253.809 95.1082 252.213 95.1082 252.213C94.9148 252.068 94.7375 251.895 94.5803 251.697V251.697C94.4316 251.527 94.3138 251.323 94.2341 251.097C94.1543 250.871 94.1143 250.629 94.1164 250.384C94.1608 249.432 92.6523 244.894 92.2772 243.778C92.2189 243.617 92.1883 243.525 92.1883 243.525C92.1883 243.525 95.6277 239.277 95.0554 235.511C95.0554 235.511 91.2493 232.884 92.5023 231.443C93.7552 230.001 95.9944 225.861 95.9944 225.861C95.9944 225.861 96.0972 210.38 95.9944 208.068C95.8872 206.464 95.9516 204.85 96.1861 203.265C96.2278 203.025 96.2778 202.792 96.3306 202.562C98.0634 202.868 99.8127 203.025 101.565 203.032C102.204 203.032 102.854 203.032 103.509 202.986C103.509 203.205 103.518 203.441 103.534 203.695C103.679 207.53 103.948 214.254 104.168 216.753C104.479 220.335 106.199 229.988 106.199 229.988C106.199 229.988 102.918 232.477 106.771 238.61C106.771 238.61 106.771 240.833 106.515 241.155C106.243 242.206 106.023 243.277 105.857 244.359C105.696 245.515 105.629 246.684 105.89 247.291C106.515 248.742 110.266 248.624 110.266 248.624L110.358 248.605C111.066 248.518 111.781 248.599 112.463 248.841C113.144 249.084 113.778 249.485 114.328 250.02C115.753 251.372 121.162 250.778 124.09 250.348C125.238 250.177 126.004 250.02 126.004 250.02C126.042 249.866 126.055 249.706 126.043 249.547C126.013 248.696 125.449 246.832 121.626 245.167C121.626 245.167 118.031 242.31 118.081 239.822H118.006H117.589C117.892 239.802 118.087 239.822 118.087 239.822C118.087 239.822 116.678 233.747 117.253 233.255C117.828 232.762 116.106 226.032 116.106 226.032C116.106 226.032 115.119 214.737 115.067 213.946C115.069 213.267 115.156 212.592 115.325 211.943L115.067 205.75C115.067 205.75 115.017 203.692 115.067 203.022C115.058 202.441 115.018 201.86 114.947 201.285C114.922 201.055 114.897 200.816 114.869 200.579C116.217 200.175 117.092 199.801 117.092 199.801L116.936 178.246C118.081 175.619 118.292 169.857 118.287 165.769C118.287 163.143 118.187 161.199 118.187 161.199L119.751 158.181C119.751 158.181 120.112 154.57 119.54 153.778C119.287 153.421 119.401 153.05 119.609 152.744C119.717 152.643 119.831 152.551 119.951 152.468C119.951 152.468 119.934 152.439 119.915 152.396C120.024 152.288 120.14 152.191 120.262 152.104C120.262 152.104 119.706 151.086 120.204 150.656C120.67 151.03 121.087 151.313 121.404 151.542C121.381 151.782 121.359 151.92 121.359 151.92L121.493 151.592C121.798 151.795 121.984 151.92 121.984 151.92C121.984 151.92 124.435 146.151 124.382 145.301C124.329 144.45 126.049 140.868 126.049 140.868C126.049 140.868 126.257 138.987 127.196 138.199C128.135 137.411 127.924 131.701 127.924 131.701C127.924 131.701 128.185 128.727 128.81 127.512C129.435 126.297 128.241 124.658 128.241 124.658ZM81.3562 122.127L81.4034 123.503C81.1256 122.974 80.9256 122.593 80.9256 122.593L81.3562 122.127Z" fill="url(#paint0_linear_15_2)"/>
<path d="M122.118 149.428L121.518 152.449C121.518 152.449 116.711 149.549 115.845 145.866C114.978 142.182 117.295 140.783 117.295 140.783L121.773 143.025L122.118 149.428Z" fill="white"/>
<path opacity="0.1" d="M122.118 149.428L121.518 152.449C121.518 152.449 116.711 149.549 115.845 145.866C114.978 142.182 117.295 140.783 117.295 140.783L121.773 143.025L122.118 149.428Z" fill="black"/>
<path d="M95.1443 252.233C95.1443 252.233 90.6992 254.163 87.6432 254.406C86.0208 254.534 85.1679 253.359 84.7289 252.226C84.4891 251.596 84.3345 250.926 84.2705 250.24L84.6678 245.036L84.879 242.264L91.3716 240.271L92.2911 243.594L92.3773 243.847C92.7468 244.957 94.2275 249.471 94.1831 250.414C94.1813 250.655 94.2207 250.894 94.299 251.117C94.3773 251.34 94.4928 251.542 94.6387 251.711C94.7878 251.909 94.9577 252.085 95.1443 252.233V252.233Z" fill="white"/>
<path d="M125.507 249.586C125.518 249.744 125.505 249.903 125.468 250.056C125.468 250.056 115.961 251.931 114.017 250.056C113.468 249.508 112.829 249.102 112.14 248.863C111.451 248.625 110.728 248.559 110.016 248.67C110.016 248.67 106.338 248.788 105.724 247.357C105.468 246.756 105.535 245.59 105.693 244.441C105.855 243.364 106.07 242.3 106.338 241.253L106.485 241.115L107.36 240.285L117.606 239.927H117.684C117.634 242.402 121.162 245.242 121.162 245.242C124.91 246.884 125.463 248.739 125.507 249.586Z" fill="white"/>
<path opacity="0.1" d="M125.507 249.586C125.517 249.744 125.503 249.903 125.465 250.056C125.465 250.056 115.961 251.931 114.016 250.056C113.469 249.508 112.83 249.103 112.141 248.864C111.453 248.625 110.73 248.559 110.019 248.67C110.019 248.67 106.338 248.788 105.726 247.357C105.471 246.753 105.535 245.59 105.693 244.441C107.11 244.609 109.346 245.026 110.224 246.021C111.552 247.534 113.803 249.044 115.183 249.163C116.264 249.245 122.729 249.488 125.507 249.586Z" fill="black"/>
<path opacity="0.1" d="M95.1443 252.233C95.1443 252.233 90.6992 254.163 87.6432 254.406C86.0208 254.534 85.1679 253.359 84.7317 252.223C85.8624 252.673 87.4321 253.145 88.2572 252.712C89.2352 252.2 92.7023 251.868 94.647 251.727C94.7951 251.918 94.962 252.088 95.1443 252.233V252.233Z" fill="black"/>
<path d="M101.74 96.6516C98.0725 94.9673 93.3552 89.402 94.5331 86.8016C94.7948 86.1454 94.9502 85.4372 94.9915 84.7134C95.0673 83.7309 95.0785 82.7429 95.0249 81.7584C94.9423 80.146 94.7781 78.5408 94.5331 76.9516C94.5331 76.9516 105.982 77.2569 105.315 79.2499C105.121 79.8344 105.09 80.8489 105.143 81.985C105.196 83.121 105.335 84.4048 105.479 85.4916C105.679 86.9822 105.879 88.1182 105.879 88.1182C105.879 88.1182 105.179 89.2773 104.768 89.3396C104.357 89.402 107.002 99.0517 101.74 96.6516Z" fill="#CF6F80"/>
<path opacity="0.1" d="M92.3689 243.847L92.2828 243.959C88.8601 239.066 84.7206 245.164 84.7206 245.164L84.6595 245.036L84.8706 242.264L91.3632 240.271L92.2828 243.594L92.3689 243.847Z" fill="black"/>
<path opacity="0.1" d="M117.686 240.271C117.686 240.271 115.186 240.209 113.853 241.601C112.519 242.993 106.074 241.903 106.351 241.601C106.434 241.451 106.483 241.28 106.496 241.102L107.371 240.271L117.617 239.914C117.656 240.133 117.686 240.271 117.686 240.271Z" fill="black"/>
<path d="M96.6279 201.853C96.4417 202.397 96.3002 202.961 96.2056 203.537C95.9739 205.115 95.9095 206.721 96.0139 208.318C96.1167 210.616 96.0139 226.018 96.0139 226.018C96.0139 226.018 93.8164 230.126 92.5912 231.574C91.366 233.022 95.0915 235.622 95.0915 235.622C95.6472 239.365 92.28 243.594 92.28 243.594C88.8573 238.702 84.7178 244.802 84.7178 244.802C84.7178 244.802 82.4675 240.206 81.9063 238.564C81.3451 236.922 84.1038 235.786 85.0734 235.12C86.043 234.453 85.0262 230.523 85.0262 230.523C85.0262 230.523 84.2066 227.079 83.2343 223.937C82.2619 220.795 84.3067 205.153 84.3067 205.153C84.3067 205.153 84.4122 202.375 84.665 201.407C84.7926 200.708 84.818 199.988 84.7401 199.279C84.7234 199.039 84.7039 198.839 84.69 198.704C84.6761 198.57 84.665 198.507 84.665 198.507L84.7039 198.429L86.093 195.368C86.093 195.368 97.2946 199.926 96.6279 201.853Z" fill="#04AD48"/>
<path d="M117.686 239.91C117.686 239.91 115.186 239.848 113.853 241.224C112.519 242.599 106.074 241.526 106.352 241.224C106.629 240.922 106.607 238.686 106.607 238.686C102.826 232.585 106.051 230.109 106.051 230.109C106.051 230.109 104.362 220.506 104.057 216.943C103.843 214.455 103.579 207.766 103.437 203.948C103.376 202.306 103.34 201.177 103.34 201.177L106.429 200.441L106.827 200.346L114.278 198.58C114.278 198.58 114.483 200.221 114.622 201.564C114.691 202.137 114.73 202.715 114.739 203.294C114.689 203.951 114.739 206.006 114.739 206.006L114.992 212.169C114.826 212.816 114.741 213.487 114.739 214.162C114.789 214.947 115.758 226.183 115.758 226.183C115.758 226.183 117.445 232.887 116.87 233.37C116.295 233.852 117.686 239.91 117.686 239.91Z" fill="#04AD48"/>
<path opacity="0.1" d="M105.315 79.2499C105.121 79.8344 105.09 80.8489 105.143 81.985C103.609 83.0763 101.847 83.6343 100.057 83.5948C98.2669 83.5553 96.5229 82.92 95.0249 81.7617C94.9424 80.1482 94.7782 78.5419 94.5331 76.9516C94.5331 76.9516 105.982 77.2504 105.315 79.2499Z" fill="black"/>
<path d="M109.741 71.9937C109.743 73.1769 109.586 74.3529 109.274 75.4774C108.578 77.9969 107.151 80.1445 105.245 81.5406C103.338 82.9367 101.076 83.4915 98.8569 83.1068C96.638 82.7221 94.6056 81.4228 93.119 79.4385C91.6323 77.4542 90.787 74.9126 90.7326 72.263C90.7326 72.171 90.7326 72.0857 90.7326 71.9937C90.711 70.5023 90.9409 69.0208 91.4089 67.6355C91.8769 66.2502 92.5737 64.9888 93.4585 63.9251C94.3433 62.8614 95.3985 62.0165 96.5625 61.4398C97.7265 60.8631 98.976 60.5661 100.238 60.5661C101.5 60.5661 102.75 60.8631 103.914 61.4398C105.078 62.0165 106.133 62.8614 107.018 63.9251C107.903 64.9888 108.599 66.2502 109.067 67.6355C109.535 69.0208 109.765 70.5023 109.744 71.9937H109.741Z" fill="#CF6F80"/>
<path opacity="0.1" d="M101.74 96.6516C98.0725 94.9673 93.3552 89.402 94.5331 86.8016C94.7948 86.1454 94.9502 85.4372 94.9915 84.7134L100.012 89.5892L103.118 92.6L105.479 85.4948C105.679 86.9855 105.879 88.1215 105.879 88.1215C105.879 88.1215 105.179 89.2805 104.768 89.3429C104.357 89.4053 107.002 99.0517 101.74 96.6516Z" fill="black"/>
<path d="M114.722 118.2L110.53 201.433L105.062 201.856L90.9048 153.595L93.2274 96.297L93.7163 84.1914L100.012 90.3016L103.12 93.3125L105.551 86.0005L110.071 90.6562L114.722 118.2Z" fill="#04AD48"/>
<path opacity="0.1" d="M96.6279 201.853C96.4417 202.397 96.3002 202.961 96.2056 203.537C92.2272 202.811 88.3634 201.385 84.7428 199.305L84.6678 199.259L84.6928 198.731L84.7067 198.455L86.0958 195.395C86.0958 195.395 97.2946 199.926 96.6279 201.853Z" fill="black"/>
<path opacity="0.1" d="M106.493 203.551C105.476 203.755 104.45 203.893 103.421 203.964C103.359 202.323 103.323 201.193 103.323 201.193L106.413 200.458L106.493 203.551Z" fill="black"/>
<path opacity="0.1" d="M114.605 201.581C112.63 202.188 109.58 202.871 106.849 202.444L106.81 200.362L114.261 198.596C114.261 198.596 114.467 200.221 114.605 201.581Z" fill="black"/>
<path opacity="0.1" d="M106.799 202.825C95.4083 205.123 84.9762 198.534 84.9762 198.534L85.0762 196.301C85.0762 196.301 85.3346 170.99 84.6178 169.049C83.901 167.109 83.3426 157.269 83.7482 155.758C84.1539 154.248 82.2675 131.599 82.2675 131.599L81.9619 122.406L70.7769 117.051L75.7776 104.732C76.4531 103.005 77.034 101.228 77.5168 99.4129C78.3864 96.2149 82.4231 93.0728 82.4231 93.0728C82.4231 93.0728 86.5625 89.9339 88.1989 90.0521C89.8352 90.1703 91.98 87.2744 91.98 87.2744C93.5636 82.5037 94.9971 84.6642 94.9971 84.6642C94.9971 84.8907 94.9971 84.6642 94.9193 85.3701C94.3637 90.607 103.904 107.155 104.04 107.447L104.949 133.602L105.868 166.702L106.799 202.825Z" fill="black"/>
<path d="M106.493 202.825C95.1027 205.123 84.6678 198.534 84.6678 198.534L84.7706 196.301C84.7706 196.301 85.029 170.99 84.3094 169.049C83.5899 167.109 83.0342 157.269 83.4426 155.758C83.851 154.248 81.9619 131.599 81.9619 131.599L81.6535 122.406L70.463 117.031L75.4637 104.712C76.1377 102.984 76.7185 101.208 77.2028 99.3932C78.0696 96.1952 82.1091 93.0531 82.1091 93.0531C82.1091 93.0531 86.2486 89.9142 87.8822 90.0324C89.5157 90.1506 91.6633 87.2547 91.6633 87.2547C93.2496 82.484 94.9971 84.6444 94.9971 84.6444C94.9971 84.871 94.8304 84.9728 94.9193 85.3504C96.1417 90.4297 103.598 107.135 103.734 107.428L104.654 133.583L105.574 166.682L106.493 202.825Z" fill="white"/>
<path opacity="0.1" d="M103.423 108.173C102.198 107.569 95.7083 98.812 95.7083 98.812V96.8191C95.4721 96.1624 94.0692 96.563 92.9301 97.0226L93.4191 84.917L93.9747 85.462C95.1916 90.538 103.282 107.881 103.423 108.173Z" fill="black"/>
<path d="M103.732 107.447C102.504 106.843 96.0139 98.0864 96.0139 98.0864V96.0934C95.7778 95.4368 94.3748 95.8374 93.2357 96.297L93.7275 84.1913L94.2831 84.7364C95.5027 89.8124 103.596 107.158 103.732 107.447Z" fill="white"/>
<path opacity="0.1" d="M84.9762 151.119C85.129 151.119 92.8968 150.154 92.8968 150.154C92.8968 150.154 97.6002 161.084 97.2918 163.743C96.9835 166.403 96.425 168.757 94.5331 168.34C92.6412 167.923 84.3511 168.668 84.3511 168.668L84.9762 151.119Z" fill="black"/>
<path d="M84.6678 150.393C84.8206 150.393 92.5884 149.428 92.5884 149.428C92.5884 149.428 97.2891 160.362 96.9835 163.018C96.6779 165.674 96.1139 168.031 94.2248 167.614C92.3356 167.197 84.0427 167.943 84.0427 167.943L84.6678 150.393Z" fill="white"/>
<path d="M90.5215 145.261C90.5215 145.261 97.6503 149.789 97.8031 151.171C97.9559 152.554 94.1748 150.567 93.358 150.328C92.8204 150.175 92.2731 150.074 91.7216 150.026L86.2736 150.2L90.5215 145.261Z" fill="#CF6F80"/>
<path opacity="0.1" d="M101.434 108.738C101.848 108.738 102.184 108.341 102.184 107.851C102.184 107.361 101.848 106.965 101.434 106.965C101.02 106.965 100.684 107.361 100.684 107.851C100.684 108.341 101.02 108.738 101.434 108.738Z" fill="black"/>
<path d="M101.434 108.376C101.848 108.376 102.184 107.98 102.184 107.49C102.184 107 101.848 106.603 101.434 106.603C101.02 106.603 100.684 107 100.684 107.49C100.684 107.98 101.02 108.376 101.434 108.376Z" fill="#3F3D56"/>
<path opacity="0.1" d="M102.815 147.113C103.229 147.113 103.565 146.716 103.565 146.227C103.565 145.737 103.229 145.34 102.815 145.34C102.401 145.34 102.065 145.737 102.065 146.227C102.065 146.716 102.401 147.113 102.815 147.113Z" fill="black"/>
<path d="M102.815 146.749C103.229 146.749 103.565 146.352 103.565 145.862C103.565 145.373 103.229 144.976 102.815 144.976C102.401 144.976 102.065 145.373 102.065 145.862C102.065 146.352 102.401 146.749 102.815 146.749Z" fill="#3F3D56"/>
<path opacity="0.1" d="M102.181 127.925C102.596 127.925 102.932 127.529 102.932 127.039C102.932 126.549 102.596 126.152 102.181 126.152C101.767 126.152 101.431 126.549 101.431 127.039C101.431 127.529 101.767 127.925 102.181 127.925Z" fill="black"/>
<path d="M102.181 127.564C102.596 127.564 102.932 127.167 102.932 126.678C102.932 126.188 102.596 125.791 102.181 125.791C101.767 125.791 101.431 126.188 101.431 126.678C101.431 127.167 101.767 127.564 102.181 127.564Z" fill="#3F3D56"/>
<path d="M119.473 149.842C119.473 149.842 119.984 150.748 119.473 151.171C118.962 151.595 119.523 152.619 119.523 152.619C119.523 152.619 118.248 153.503 118.809 154.297C119.37 155.092 119.014 158.68 119.014 158.68L117.481 161.681C117.481 161.681 117.573 163.615 117.578 166.229C117.578 170.307 117.375 176.039 116.253 178.653L116.409 200.096C116.409 200.096 111.038 202.415 106.543 201.709L105.876 167.299C105.876 167.299 106.849 147.786 107.207 144.043C107.417 142.1 107.502 140.141 107.463 138.183C107.463 138.183 107.31 132.325 106.796 129.607C106.796 129.607 106.24 117.829 106.185 114.569C106.16 113.009 106.229 108.459 106.307 104.131C106.393 99.3998 106.49 94.9377 106.49 94.9377L105.476 85.4555C105.476 85.4555 106.49 85.334 106.796 85.8166C106.933 85.9677 107.082 86.103 107.241 86.2205V86.2205C108.991 87.6192 115.175 91.9203 115.175 91.9203C115.175 91.9203 118.598 93.5292 119.417 95.8341C120.237 98.139 120.806 99.7741 121.204 100.431C121.601 101.087 121.818 104.174 121.818 104.174C121.818 104.174 122.996 109.854 123.915 110.816C124.835 111.778 125.507 117.898 125.507 117.898L117.381 125.45C117.381 125.45 116.667 138.012 116.514 138.498C116.361 138.984 119.473 149.842 119.473 149.842Z" fill="white"/>
<path d="M119.781 149.842C119.781 149.842 120.29 150.748 119.781 151.171C119.273 151.595 119.828 152.619 119.828 152.619C119.828 152.619 118.562 153.512 119.117 154.307C119.673 155.102 119.323 158.69 119.323 158.69L117.789 161.691C117.789 161.691 117.881 163.625 117.889 166.239C117.889 170.317 117.686 176.049 116.564 178.663L116.717 200.106C116.717 200.106 111.338 202.424 106.849 201.718L106.185 167.309C106.185 167.309 107.157 147.796 107.516 144.053C107.726 142.11 107.81 140.151 107.768 138.192C107.768 138.192 107.616 132.335 107.104 129.616C107.104 129.616 106.549 117.839 106.49 114.579C106.465 113.019 106.538 108.468 106.613 104.141C106.699 99.4096 106.796 94.9476 106.796 94.9476L105.457 85.3372C105.457 85.3372 106.796 85.3372 107.104 85.8265C107.24 85.9794 107.389 86.1148 107.549 86.2303C109.299 87.629 115.486 91.9302 115.486 91.9302C115.486 91.9302 118.906 93.539 119.726 95.8439C120.545 98.1488 121.115 99.7839 121.515 100.441C121.915 101.097 122.126 104.184 122.126 104.184C122.126 104.184 123.304 109.864 124.224 110.826C125.143 111.788 125.807 117.895 125.807 117.895L117.681 125.447C117.681 125.447 116.967 138.009 116.811 138.494C116.656 138.98 119.781 149.842 119.781 149.842Z" fill="white"/>
<path opacity="0.1" d="M110.049 97.7351L110.783 100.263L106.921 104.86C107.007 100.132 107.104 95.6666 107.104 95.6666L105.765 86.0563C105.765 86.0563 107.104 86.0563 107.413 86.5455C107.548 86.698 107.697 86.8323 107.857 86.9461L111.141 98.1423L110.049 97.7351Z" fill="black"/>
<path d="M109.741 97.0095L110.477 99.5377L106.615 104.134C106.702 99.4031 106.799 94.941 106.799 94.941L105.457 85.3307C105.457 85.3307 106.799 85.3307 107.104 85.8199C107.241 85.9719 107.39 86.1072 107.549 86.2237L110.835 97.4166L109.741 97.0095Z" fill="white"/>
<path opacity="0.1" d="M109.741 71.9937C109.743 73.1769 109.586 74.3529 109.274 75.4774C109.222 75.4871 109.168 75.4842 109.117 75.469C109.065 75.4537 109.017 75.4264 108.974 75.3887C108.902 72.4337 107.671 69.6593 106.157 67.2986C105.732 66.5858 105.217 65.9546 104.629 65.4271C104.035 64.8998 103.296 64.6528 102.557 64.7343C101.723 64.8689 100.987 65.5387 100.145 65.6241C99.0338 65.7324 98.0392 64.8229 96.9362 64.777C96.4879 64.782 96.0456 64.9 95.6388 65.1231C95.2321 65.3461 94.8703 65.6692 94.5776 66.0706C93.9981 66.8807 93.5677 67.8244 93.3135 68.8417C92.8767 70.3844 92.6388 71.9959 92.6078 73.6223C92.5939 74.5416 92.5189 75.6941 91.7966 76.029C91.851 75.3529 91.786 74.6708 91.6057 74.0259C91.4254 73.381 91.1337 72.7874 90.7492 72.2827L90.7326 72.263C90.7326 72.171 90.7326 72.0857 90.7326 71.9937C90.711 70.5023 90.9409 69.0208 91.4089 67.6355C91.8769 66.2502 92.5737 64.9888 93.4585 63.9251C94.3433 62.8614 95.3985 62.0165 96.5625 61.4398C97.7265 60.8631 98.976 60.5661 100.238 60.5661C101.5 60.5661 102.75 60.8631 103.914 61.4398C105.078 62.0165 106.133 62.8614 107.018 63.9251C107.903 64.9888 108.599 66.2502 109.067 67.6355C109.535 69.0208 109.765 70.5023 109.744 71.9937H109.741Z" fill="black"/>
<path d="M104.173 54.1554C102.73 53.3528 101.088 53.201 99.5561 53.7285C98.7865 53.9978 98.0614 54.4345 97.2808 54.6544C95.6138 55.1305 93.6691 54.615 92.2384 55.7675C91.4438 56.4242 90.966 57.4617 90.5214 58.4697L89.4102 60.9716C88.8045 62.3407 88.1933 63.7329 87.9405 65.2399C87.6877 66.747 87.8405 68.4346 88.6489 69.6462C89.2379 70.5294 90.1075 71.0843 90.7465 71.915C91.1293 72.4202 91.4197 73.0135 91.5994 73.6576C91.7792 74.3017 91.8444 74.9827 91.7911 75.658C92.5162 75.3296 92.5856 74.1739 92.6023 73.2546C92.6333 71.6282 92.8711 70.0167 93.308 68.474C93.5615 67.4564 93.9921 66.5125 94.572 65.7029C94.865 65.3018 95.2268 64.979 95.6335 64.7559C96.0402 64.5329 96.4824 64.4147 96.9307 64.4092C98.042 64.4552 99.0393 65.3614 100.14 65.2531C100.973 65.171 101.712 64.4979 102.551 64.3666C103.291 64.2838 104.03 64.5309 104.623 65.0593C105.211 65.5861 105.725 66.2174 106.149 66.9308C107.666 69.2916 108.896 72.0594 108.969 75.021C109.282 75.2935 109.735 74.9389 109.891 74.5186C110.046 74.0984 110.052 73.6059 110.249 73.2053C110.477 72.7424 110.913 72.4961 111.255 72.1481C112.122 71.2649 112.338 69.7775 112.305 68.4281C112.272 67.0786 112.05 65.7094 112.266 64.383C112.397 63.5687 112.691 62.807 112.852 62.0026C113.014 61.1981 113.033 60.2952 112.652 59.6024C112.097 58.5846 110.927 58.3843 109.908 58.2891C108.749 58.1709 107.713 58.3219 106.974 57.1695C106.627 56.5681 106.237 56.0034 105.807 55.4818C105.66 55.3111 104.173 54.2276 104.173 54.1554Z" fill="#512E4E"/>
<path opacity="0.1" d="M73.9774 123.394L71.0742 117.051L70.1546 126.839C70.1546 126.839 70.6658 131.186 70.563 131.852C70.4602 132.519 72.6577 138.494 72.6577 138.494C72.6577 138.494 79.9171 153.775 82.8814 154.563L92.8968 146.105L90.2408 142.119C90.2408 142.119 89.3213 141.696 89.0907 142.119C89.0907 142.119 84.1594 132.092 83.6482 131.366C83.137 130.641 83.237 129.193 83.237 129.193C83.237 129.193 82.4703 128.227 82.7259 127.321C82.9815 126.415 81.2451 123.273 81.2451 123.273L82.8287 121.523L73.9774 123.394Z" fill="black"/>
<path d="M71.227 116.329L70.4602 117.051L69.5406 126.839C69.5406 126.839 70.0518 131.186 69.949 131.852C69.8462 132.519 72.0465 138.494 72.0465 138.494C72.0465 138.494 79.3031 153.775 82.2675 154.563L92.2856 146.105L89.6269 142.119C89.6269 142.119 88.7073 141.696 88.4767 142.119C88.4767 142.119 83.5454 132.092 83.0342 131.366C82.5231 130.641 82.6258 129.193 82.6258 129.193C82.6258 129.193 81.8591 128.227 82.1147 127.321C82.3703 126.415 80.6311 123.273 80.6311 123.273L82.2147 121.523L71.227 116.329Z" fill="white"/>
<path opacity="0.1" d="M118.809 154.672C119.365 155.469 119.014 159.051 119.014 159.051L117.481 162.052C117.481 162.052 117.573 163.99 117.578 166.6L115 167.552C114.767 167.638 114.52 167.657 114.28 167.607C114.039 167.557 113.812 167.44 113.618 167.266C113.423 167.091 113.267 166.865 113.162 166.604C113.057 166.344 113.006 166.058 113.014 165.769L113.458 148.824L119.473 151.542C118.962 151.963 119.523 152.994 119.523 152.994C119.523 152.994 118.248 153.874 118.809 154.672Z" fill="black"/>
<path d="M119.117 154.307C119.673 155.105 119.323 158.69 119.323 158.69L117.789 161.691C117.789 161.691 117.881 163.625 117.889 166.239L115.264 167.207C115.036 167.291 114.794 167.309 114.559 167.26C114.323 167.211 114.101 167.097 113.911 166.926C113.721 166.755 113.568 166.533 113.465 166.278C113.362 166.023 113.312 165.743 113.319 165.461L113.766 148.463L119.784 151.181C119.27 151.602 119.831 152.629 119.831 152.629C119.831 152.629 118.562 153.512 119.117 154.307Z" fill="white"/>
<path d="M121.109 146.23C121.109 146.23 120.701 149.313 119.678 149.494C118.656 149.674 118.198 154.481 117.178 154.31C116.158 154.14 116.834 149.842 116.87 149.008C116.906 148.174 115.758 144.72 116.617 143.935C117.475 143.15 120.192 143.935 120.192 143.935L121.109 146.23Z" fill="#CF6F80"/>
<path opacity="0.1" d="M123.285 122.488L125.213 117.892C125.213 117.892 125.979 121.395 125.979 123.266C125.979 125.138 127.052 125.322 127.052 125.322C127.052 125.322 128.227 126.963 127.607 128.159C126.988 129.354 126.738 132.328 126.738 132.328C126.738 132.328 126.941 138.005 126.021 138.79C125.101 139.575 124.91 141.449 124.91 141.449C124.91 141.449 123.221 145.012 123.273 145.859C123.326 146.706 120.923 152.442 120.923 152.442C120.923 152.442 122.098 145.314 115.25 142.234C115.25 142.234 115.197 139.814 115.708 139.151C116.22 138.488 117.017 138.186 116.517 134.834C116.017 131.481 116.372 127.476 116.372 126.671C116.372 125.867 117.906 120.85 117.906 120.85L123.285 122.488Z" fill="black"/>
<path d="M124.118 117.235L125.802 117.892C125.802 117.892 126.571 121.395 126.571 123.266C126.571 125.138 127.643 125.322 127.643 125.322C127.643 125.322 128.819 126.963 128.199 128.159C127.58 129.354 127.332 132.328 127.332 132.328C127.332 132.328 127.535 138.005 126.616 138.79C125.696 139.575 125.49 141.449 125.49 141.449C125.49 141.449 123.804 145.012 123.857 145.859C123.91 146.706 121.504 152.442 121.504 152.442C121.504 152.442 122.682 145.314 115.831 142.234C115.831 142.234 115.781 139.814 116.292 139.151C116.803 138.488 117.6 138.186 117.1 134.834C116.6 131.481 116.956 127.476 116.956 126.671C116.956 125.867 118.489 120.85 118.489 120.85L124.118 117.235Z" fill="white"/>
<path opacity="0.1" d="M86.932 236.377C86.932 236.377 89.6158 234.384 91.3771 235.832C93.1385 237.28 86.932 236.377 86.932 236.377Z" fill="black"/>
<path opacity="0.1" d="M107.785 230.215C107.785 230.215 110.16 229.853 112.155 232.391C114.15 234.929 107.785 230.215 107.785 230.215Z" fill="black"/>
<g opacity="0.1">
<path d="M111.261 71.429C110.919 71.777 110.48 72.0266 110.252 72.4895C110.058 72.8868 110.052 73.376 109.896 73.8029C109.741 74.2297 109.288 74.5777 108.974 74.3085C108.902 71.3535 107.668 68.5791 106.154 66.2151C105.731 65.5016 105.216 64.8703 104.629 64.3436C104.034 63.8152 103.294 63.5682 102.554 63.6508C101.72 63.7854 100.987 64.4552 100.145 64.5373C99.0338 64.6489 98.0364 63.7394 96.9335 63.6935C96.4852 63.6987 96.0432 63.8172 95.6368 64.0409C95.2305 64.2645 94.8694 64.5883 94.5776 64.9904C93.9976 65.7988 93.567 66.7416 93.3135 67.7582C92.8769 69.301 92.639 70.9125 92.6078 72.5388C92.5912 73.4548 92.5189 74.5974 91.8022 74.9389C91.8188 75.1815 91.8188 75.4252 91.8022 75.6678C92.5245 75.3395 92.5967 74.1837 92.6134 73.2644C92.6443 71.6381 92.8822 70.0265 93.319 68.4839C93.5726 67.4662 94.0031 66.5224 94.5831 65.7127C94.8755 65.3117 95.2369 64.9889 95.6431 64.7659C96.0493 64.5428 96.4911 64.4246 96.939 64.4191C98.0503 64.465 99.0504 65.3712 100.151 65.2629C100.984 65.1808 101.723 64.5077 102.559 64.3764C103.3 64.2938 104.04 64.5408 104.635 65.0692C105.222 65.5959 105.736 66.2273 106.16 66.9407C107.674 69.3014 108.907 72.0693 108.98 75.0308C109.294 75.3033 109.746 74.9487 109.902 74.5285C110.058 74.1082 110.063 73.6157 110.258 73.2151C110.485 72.7522 110.924 72.5059 111.266 72.1579C112.133 71.2747 112.35 69.7873 112.316 68.4379C112.316 68.3952 112.316 68.3525 112.316 68.3131C112.263 69.482 112 70.6738 111.261 71.429Z" fill="black"/>
<path d="M90.752 71.1959C90.113 70.3652 89.2407 69.8103 88.6545 68.9304C88.1609 68.1514 87.879 67.2137 87.8461 66.2413C87.7586 67.4565 88.0457 68.668 88.6545 69.6527C89.2407 70.5359 90.113 71.0908 90.752 71.9215C91.3655 72.734 91.7339 73.764 91.7994 74.8502C91.8419 74.1892 91.7711 73.5247 91.5911 72.8968C91.4111 72.2689 91.1257 71.6903 90.752 71.1959V71.1959Z" fill="black"/>
<path d="M112.858 61.2835C112.694 62.0879 112.402 62.8529 112.269 63.6639C112.19 64.2058 112.161 64.7563 112.183 65.3056C112.192 64.9927 112.221 64.681 112.269 64.3731C112.402 63.5588 112.694 62.7971 112.858 61.9927C112.954 61.549 112.985 61.0894 112.95 60.6334C112.932 60.8524 112.902 61.0697 112.858 61.2835V61.2835Z" fill="black"/>
</g>
<path opacity="0.1" d="M36.8748 249.727C51.8255 249.727 63.9454 247.427 63.9454 244.589C63.9454 241.751 51.8255 239.451 36.8748 239.451C21.9241 239.451 9.8042 241.751 9.8042 244.589C9.8042 247.427 21.9241 249.727 36.8748 249.727Z" fill="#04AD48"/>
<path d="M37.7471 146.155H36.0052V192.505H37.7471V146.155Z" fill="#535461"/>
<path d="M48.6932 192.364L48.5848 194.452L48.4292 197.407L48.3653 198.635L48.2125 201.59L48.1459 202.818L47.9903 205.773L46.2345 239.286C46.1582 240.728 45.6198 242.082 44.729 243.071C43.8381 244.06 42.6618 244.611 41.4393 244.612H32.3102C31.0881 244.611 29.912 244.06 29.0217 243.071C28.1313 242.081 27.5935 240.728 27.5179 239.286L25.7704 205.75L25.6148 202.795L25.5509 201.567L25.3953 198.612L25.3315 197.384L25.1759 194.429L25.0647 192.341C25.0454 191.939 25.0958 191.537 25.2128 191.159C25.3298 190.781 25.5109 190.435 25.745 190.143C25.9792 189.85 26.2614 189.617 26.5744 189.459C26.8873 189.3 27.2245 189.218 27.5651 189.219H46.2373C46.5766 189.222 46.9117 189.308 47.222 189.47C47.5322 189.633 47.811 189.869 48.0412 190.163C48.2713 190.458 48.4479 190.805 48.56 191.184C48.6722 191.563 48.7175 191.964 48.6932 192.364V192.364Z" fill="#3F3D56"/>
<path d="M48.5848 194.452L48.4292 197.398H25.3203L25.1648 194.452H48.5848Z" fill="#9D9CB5"/>
<path d="M48.3653 198.626L48.2125 201.574H25.5398L25.3842 198.626H48.3653Z" fill="#9D9CB5"/>
<path d="M48.1459 202.805L47.993 205.75H25.7593L25.6037 202.805H48.1459Z" fill="#9D9CB5"/>
<path d="M22.506 163.527C32.6491 172.201 36.8831 185.768 36.8831 185.768C36.8831 185.768 24.6591 185.272 14.5132 176.598C4.36728 167.923 0.141663 154.36 0.141663 154.36C0.141663 154.36 12.3601 154.852 22.506 163.527Z" fill="#04AD48"/>
<path d="M0.133362 154.36C0.133362 154.36 12.8241 162.683 16.8941 169.575C20.9642 176.466 36.8831 185.768 36.8831 185.768" stroke="#535461" stroke-width="2" stroke-miterlimit="10"/>
<path d="M29.0542 146.053C34.5745 150.771 36.8831 158.155 36.8831 158.155C36.8831 158.155 30.2294 157.886 24.7064 153.168C19.1834 148.45 16.8802 141.062 16.8802 141.062C16.8802 141.062 23.5312 141.331 29.0542 146.053Z" fill="#04AD48"/>
<path d="M16.8802 141.062C16.8802 141.062 23.7868 145.593 26.001 149.343C28.2152 153.092 36.8831 158.155 36.8831 158.155" stroke="#535461" stroke-width="2" stroke-miterlimit="10"/>
<path d="M44.8982 157.781C38.5556 166.019 37.2137 176.785 37.2137 176.785C37.2137 176.785 46.1567 174.191 52.4937 165.95C58.8307 157.709 60.1782 146.946 60.1782 146.946C60.1782 146.946 51.2407 149.543 44.8982 157.781Z" fill="#04AD48"/>
<path d="M60.1837 146.949C60.1837 146.949 51.9214 155.394 49.8211 161.212C47.7208 167.03 37.2137 176.785 37.2137 176.785" stroke="#535461" stroke-width="2" stroke-miterlimit="10"/>
<path d="M277.726 154.882C277.726 154.882 273.139 127.912 274.895 124.557C274.895 124.557 274.959 121.438 274.854 117.461C274.854 117.31 274.854 117.159 274.854 117.005C275.163 117.248 275.485 117.468 275.818 117.662C277.435 118.644 279.293 118.927 281.068 118.463L279.679 116.634C279.346 116.197 278.999 115.725 278.926 115.147C278.854 114.569 279.054 114.053 279.227 113.538C280.546 109.598 280.616 104.643 278.074 101.636C275.926 99.1076 275.404 95.8439 273.073 93.5357C271.37 91.8448 270.434 89.3659 269.55 86.9691C268.803 84.9432 268.05 82.901 267.622 80.7537C267.289 79.0759 267.155 77.339 266.697 75.7006C266.239 74.0623 265.38 72.4698 264.038 71.7377C263.56 71.4783 263.03 71.3305 262.594 70.9858C262.021 70.5294 261.677 69.7874 261.263 69.1373C259.16 65.8539 252.117 67.7878 248.783 69.1208C247.877 69.4565 247.038 70.0061 246.316 70.7362L246.347 70.6771C246.372 70.6279 246.402 70.5786 246.43 70.5294C246.065 70.8781 245.75 71.2938 245.497 71.7606C245.01 72.6701 244.808 73.7306 244.402 74.7156C243.913 75.8812 241.193 79.135 242.363 80.4451C242.445 80.5331 242.539 80.6041 242.641 80.6552C243.08 80.8712 243.563 80.9283 244.03 80.8194L243.98 80.9606C243.58 82.1164 243.376 83.3532 243.377 84.6018C243.377 89.9963 247.141 94.3697 251.789 94.3697C252.663 94.3707 253.532 94.2123 254.365 93.9002C254.384 94.025 254.401 94.1497 254.42 94.2745C254.42 94.3237 254.434 94.373 254.44 94.4222L254.292 94.6652C254.285 94.6502 254.277 94.636 254.267 94.6225L249.906 101.826C249.239 102.381 245.399 105.664 245.183 108.127C244.955 110.823 244.727 113.978 244.727 113.978L244.697 114.654C244.506 114.842 244.283 114.98 244.043 115.056C243.803 115.133 243.552 115.147 243.307 115.097C241.946 114.835 241.946 121.007 241.946 121.007C241.946 121.007 241.04 121.992 240.418 121.139C239.796 120.285 238.151 123.178 238.151 123.178L227.844 123.703L227.608 123.719L227.052 121.687C226.992 121.473 226.864 121.295 226.693 121.192C226.523 121.09 226.326 121.07 226.144 121.139C226.101 121.156 226.059 121.176 226.019 121.201L225.98 121.227L225.908 121.287L225.872 121.326C225.852 121.347 225.833 121.37 225.816 121.395L225.783 121.441L225.766 121.461C225.702 121.565 225.659 121.686 225.642 121.814C225.625 121.942 225.633 122.073 225.666 122.196L226.144 123.939C224.155 124.412 222.121 125.745 223.78 129.416L215.373 127.581L218.093 130.28L232.134 133.704C231.947 134.098 232.07 134.669 232.65 135.474C235.151 138.944 239.707 139.887 241.54 140.13C242.025 141.41 242.63 142.621 243.344 143.741L243.185 147.199C243.185 147.199 238.543 173.551 237.693 174.887C238.122 174.312 238.515 173.701 238.868 173.058C237.52 178.472 235.637 185.883 235.142 186.993C234.348 188.766 233.612 195.94 234.517 196.399C234.795 196.541 235.59 196.472 236.723 196.37V196.964L236.673 219.485C236.673 219.485 236.901 233.298 236.276 234.614C235.651 235.931 235.484 238.692 235.484 238.692C235.484 238.692 232.984 244.139 231.003 246.329C230.989 246.346 230.974 246.362 230.958 246.375L230.897 245.863C230.897 245.863 228.516 249.415 223.249 249.215C223.249 249.215 220.079 251.651 224.78 251.783C229.48 251.914 235.484 251.586 235.484 251.586C235.484 251.586 239.676 244.034 243.188 245.019V250.742H244.263V244.927C244.762 244.539 245.188 244.036 245.517 243.447C245.847 242.858 246.071 242.197 246.177 241.503C246.269 240.787 246.202 240.056 245.982 239.38C245.761 238.705 245.396 238.109 244.922 237.651C244.708 237.424 244.537 237.146 244.419 236.836C244.301 236.527 244.239 236.192 244.235 235.852L244.196 235.891C244.196 235.777 244.171 235.658 244.16 235.537C243.852 232.582 243.466 226.485 244.83 221.973C246.7 215.788 247.266 207.172 245.905 202.043C245.466 200.404 245.105 198.737 244.824 197.05C244.791 196.836 244.76 196.633 244.733 196.442C245.663 196.591 246.585 196.81 247.491 197.099C250.645 198.126 257.543 198.317 263.433 198.261C263.446 198.452 263.463 198.652 263.483 198.852C263.588 200.244 263.807 201.621 264.138 202.963C264.877 205.589 265.216 217.17 265.216 217.17C265.216 217.17 266.169 226.692 265.65 230.566C265.372 232.72 265.094 234.883 264.936 237.057V237.1C264.936 237.1 263.374 242.353 262.232 245.206C262.205 245.279 262.174 245.351 262.146 245.42C261.842 245.452 261.542 245.531 261.254 245.653C261.254 245.653 259.724 249.264 258.198 249.862C256.673 250.46 257.179 252.426 260.632 251.704C264.085 250.982 269.3 250.391 269.3 250.391L269.525 246.707L270.586 245.137L270.309 248.811L271.439 248.549L271.289 244.08L273.026 241.513C273.026 241.513 275.123 239.306 272.006 234.966V235.061C271.973 234.998 271.942 234.933 271.906 234.87V234.851C271.389 233.905 270.978 232.142 271.731 229.013C273.092 223.359 273.884 218.227 273.884 218.227C273.884 218.227 276.923 204.48 273.27 197.975H273.431C273.057 197.06 272.792 196.088 272.645 195.086C272.626 194.968 272.61 194.846 272.595 194.722C275.298 194.538 277.951 193.96 280.116 192.712C280.107 192.699 278.804 160.076 277.726 154.882ZM243.407 132.128V132.194L242.852 132.227L243.407 132.128ZM241.502 132.44C241.41 132.464 241.325 132.512 241.252 132.581C241.013 132.981 240.863 133.445 240.815 133.931L239.949 133.701C239.949 133.701 239.34 133.546 238.465 133.372L238.051 132.88C239.19 132.768 240.374 132.604 241.502 132.44V132.44Z" fill="url(#paint1_linear_15_2)"/>
<path d="M270.181 244.126L269.85 248.779L270.959 248.516L270.792 243.469L270.181 244.126Z" fill="#1D2366"/>
<path d="M244.891 222.036C243.555 226.534 243.932 232.605 244.233 235.553C244.344 236.643 244.446 237.307 244.446 237.307C244.446 237.307 242.449 242.685 242.282 242.888C242.116 243.092 236.404 247.212 236.404 247.212L232.411 249.967C232.411 249.967 228.361 247.869 230.303 247.147C230.7 246.959 231.057 246.671 231.35 246.303C233.295 244.119 235.737 238.692 235.737 238.692C235.737 238.692 235.904 235.937 236.515 234.627C237.126 233.317 236.904 219.55 236.904 219.55L236.951 197.109V194.183L244.549 194.249C244.597 195.242 244.707 196.23 244.877 197.204C245.15 198.885 245.503 200.547 245.936 202.181C247.275 207.3 246.719 215.873 244.891 222.036Z" fill="#FFB0B1"/>
<path opacity="0.1" d="M244.446 237.307C244.446 237.307 242.449 242.685 242.282 242.888C242.116 243.092 236.404 247.212 236.404 247.212L232.411 249.967C232.411 249.967 228.361 247.869 230.303 247.147C230.7 246.959 231.057 246.671 231.35 246.303L231.522 247.738L232.853 247.672L244.244 235.56C244.344 236.643 244.446 237.307 244.446 237.307Z" fill="black"/>
<path d="M244.308 235.865L232.853 248.059L231.522 248.125L231.245 245.827C231.245 245.827 228.916 249.366 223.743 249.169C223.743 249.169 220.637 251.596 225.241 251.727C229.844 251.858 235.723 251.53 235.723 251.53C235.723 251.53 239.829 243.978 243.266 244.963V250.666H244.321V244.911C244.812 244.52 245.231 244.016 245.553 243.43C245.875 242.843 246.093 242.185 246.194 241.496C246.285 240.786 246.221 240.061 246.006 239.389C245.792 238.717 245.434 238.122 244.969 237.661C244.761 237.431 244.595 237.153 244.481 236.844C244.368 236.535 244.308 236.202 244.308 235.865V235.865Z" fill="#1D2366"/>
<path d="M271.236 229.049C270.497 232.168 270.9 233.925 271.406 234.867V234.887C272.054 236.05 272.505 237.352 272.734 238.718L272.778 239.014L267.567 247.994L264.738 249.307C264.738 249.307 260.19 247.472 261.021 246.946C261.229 246.818 261.555 246.135 261.927 245.193C263.038 242.353 264.572 237.113 264.572 237.113V237.07C264.733 234.906 264.988 232.749 265.272 230.602C265.78 226.737 264.847 217.252 264.847 217.252C264.847 217.252 264.513 205.718 263.791 203.094C263.465 201.76 263.248 200.393 263.144 199.01C262.994 197.368 262.96 196.015 262.96 196.015C262.96 196.015 265.955 191.09 271.445 196.409C271.884 196.834 272.27 197.329 272.592 197.88C276.384 204.256 273.331 218.303 273.331 218.303C273.331 218.303 272.567 223.411 271.236 229.049Z" fill="#FFB0B1"/>
<path opacity="0.1" d="M272.787 239.014L267.575 247.994L264.747 249.307C264.747 249.307 260.199 247.472 261.029 246.946C261.238 246.818 261.563 246.135 261.935 245.193C263.86 245.173 264.858 247.34 264.858 247.34L267.297 246.881C267.297 246.881 270.514 239.408 271.236 238.951C271.959 238.495 271.348 235.54 271.348 235.54V234.788C271.367 234.814 271.384 234.844 271.406 234.87V234.89C272.054 236.053 272.505 237.355 272.734 238.722L272.787 239.014Z" fill="black"/>
<path d="M265.024 247.534C265.024 247.534 263.635 244.52 260.974 245.633C260.974 245.633 259.476 249.245 257.979 249.829C256.482 250.414 256.982 252.384 260.365 251.665C263.749 250.946 268.85 250.351 268.85 250.351L269.072 246.677L272.512 241.499C272.512 241.499 274.562 239.303 271.512 234.979V235.731C271.512 235.731 272.123 238.686 271.4 239.142C270.678 239.598 267.472 247.074 267.472 247.074L265.024 247.534Z" fill="#1D2366"/>
<path opacity="0.1" d="M244.558 194.242C244.606 195.235 244.715 196.223 244.885 197.197C241.757 196.656 238.854 196.925 236.951 197.102V194.177L244.558 194.242Z" fill="black"/>
<path opacity="0.1" d="M272.901 198.698C272.901 198.698 268.456 198.954 263.155 199.006C263.005 197.365 262.971 196.012 262.971 196.012C262.971 196.012 265.966 191.087 271.456 196.406C271.895 196.83 272.281 197.325 272.603 197.877C272.689 198.157 272.789 198.431 272.901 198.698V198.698Z" fill="black"/>
<path d="M272.901 198.107C272.901 198.107 253.431 199.22 247.497 197.253C241.563 195.286 235.681 196.99 234.795 196.534C233.909 196.078 234.628 188.93 235.406 187.16C236.184 185.39 240.451 167.493 240.451 167.493L244.558 142.192L248.883 140.783L249.189 140.681L256.726 138.225L262.249 136.423C262.249 136.423 273.231 187.094 272.289 190.831C271.947 192.262 271.892 193.767 272.128 195.227C272.272 196.225 272.532 197.194 272.901 198.107V198.107Z" fill="#1D2366"/>
<path d="M230.244 124.888C230.244 124.888 226.355 129.813 229.3 132.558C232.245 135.303 234.181 132.821 234.181 132.821L230.244 124.888Z" fill="#C7DAF5"/>
<path opacity="0.1" d="M230.244 124.888C230.244 124.888 226.355 129.813 229.3 132.558C232.245 135.303 234.181 132.821 234.181 132.821L230.244 124.888Z" fill="black"/>
<path d="M261.668 92.5081C261.668 92.5081 261.213 93.0202 260.527 93.7754C259.549 94.8556 258.101 96.4349 256.818 97.7581C255.04 99.5869 253.573 100.93 254.098 99.7839C254.623 98.638 254.523 96.6418 254.262 94.7736C254.242 94.6488 254.226 94.524 254.206 94.4025C253.99 93.0305 253.703 91.6752 253.348 90.3443C253.348 90.3443 256.22 85.9578 257.81 84.2275C258.401 83.5708 258.815 83.3016 258.84 83.758C258.868 84.3719 259.257 85.728 259.74 87.1661C259.754 87.212 259.768 87.2547 259.785 87.3007C260.107 88.2857 260.471 89.2969 260.791 90.1703C261.279 91.5099 261.668 92.5081 261.668 92.5081Z" fill="#FFB0B1"/>
<path opacity="0.1" d="M259.785 87.3007C259.515 89.0167 258.86 90.6155 257.888 91.9301C256.917 93.2446 255.664 94.2266 254.262 94.7736C254.041 93.2747 253.736 91.795 253.348 90.3443C253.348 90.3443 258.757 82.0867 258.84 83.758C258.86 84.3916 259.282 85.7969 259.785 87.3007Z" fill="black"/>
<path opacity="0.1" d="M253.723 96.9799L254.423 95.8144C254.423 95.8144 254.887 99.1568 256.593 97.6826C258.299 96.2084 258.382 108.777 258.382 108.777L256.551 141.128L243.321 140.192L243.696 124.56L245.194 116.68L248.897 105.224L251.1 101.439L253.723 96.9799Z" fill="black"/>
<path d="M258.382 108.977L256.715 138.229L256.54 141.328L249.164 140.806L248.886 140.786L243.33 140.392L243.705 124.757L245.202 116.877L248.905 105.421L251.109 101.636L253.731 97.1605L254.431 95.9982C254.431 95.9982 254.895 99.3407 256.601 97.8665L256.637 97.8369C258.304 96.5892 258.382 108.977 258.382 108.977Z" fill="#1D2366"/>
<path d="M245.388 114.139C245.388 114.139 244.724 115.78 243.391 115.514C242.057 115.248 242.06 121.424 242.06 121.424C242.06 121.424 241.174 122.409 240.563 121.556C239.951 120.702 238.34 123.588 238.34 123.588L228.244 124.113C228.244 124.113 232.736 126.54 231.856 133.881C231.856 133.881 247.108 132.765 247.608 131.061C248.108 129.357 245.388 114.139 245.388 114.139Z" fill="white"/>
<path opacity="0.03" d="M245.388 114.139C245.388 114.139 244.724 115.78 243.391 115.514C242.057 115.248 242.06 121.424 242.06 121.424C242.06 121.424 241.174 122.409 240.563 121.556C239.951 120.702 238.34 123.588 238.34 123.588L228.244 124.113C228.244 124.113 232.736 126.54 231.856 133.881C231.856 133.881 247.108 132.765 247.608 131.061C248.108 129.357 245.388 114.139 245.388 114.139Z" fill="black"/>
<path d="M216.048 127.971L218.709 130.657L240.618 136.098L237.901 132.821L216.048 127.971Z" fill="white"/>
<path d="M253.764 98.0142C253.401 98.6709 252.359 102.033 251.489 104.968C250.764 107.414 250.158 109.565 250.158 109.565C250.158 109.565 248.744 120.446 248.022 122.413C247.3 124.379 247.691 132.049 247.691 132.049L244.999 150.991C244.999 150.991 243.78 160.759 241.896 166.593C240.038 172.336 237.968 175.028 237.904 175.114C238.737 173.781 243.28 147.534 243.28 147.534L244.78 114.431C244.78 114.431 244.999 111.285 245.222 108.596C245.444 105.907 249.944 102.237 249.944 102.237L254.284 94.9443C254.72 95.6338 254.428 96.8355 253.764 98.0142Z" fill="white"/>
<path d="M242.449 140.556C242.449 140.556 236.059 140.228 232.964 135.835C229.869 131.442 240.118 134.082 240.118 134.082L242.782 134.804L242.449 140.556Z" fill="#FFB0B1"/>
<path opacity="0.1" d="M272.289 190.834C271.947 192.265 271.892 193.77 272.128 195.231C265.158 195.815 257.701 193.589 257.701 193.589C256.312 195.099 252.653 197.325 252.653 197.325L250.658 168.104C249.383 164.164 248.883 143.521 248.883 143.521C248.883 143.521 248.997 142.441 249.161 140.822C249.161 140.783 249.161 140.74 249.175 140.701C249.672 136.18 250.658 127.692 251.142 126.546C251.809 124.97 249.092 120.778 249.092 120.778L250.328 108.317L250.478 106.814C253.084 105.438 255.081 101.045 255.081 101.045L256.615 97.8697C258.282 96.6056 258.368 108.994 258.368 108.994L256.701 138.245L262.224 136.442C262.224 136.442 273.231 187.098 272.289 190.834Z" fill="black"/>
<path d="M279.443 192.853C271.845 197.312 258.035 193.182 258.035 193.182C256.645 194.692 252.987 196.918 252.987 196.918L250.989 167.696C249.717 163.756 249.217 143.114 249.217 143.114C249.217 143.114 250.822 127.712 251.489 126.139C251.684 125.68 251.589 124.997 251.359 124.261C250.225 120.761 249.808 116.993 250.142 113.265L250.675 107.91L250.822 106.41C253.431 105.031 255.429 100.638 255.429 100.638L256.818 97.7614L259.374 92.4621L260.585 89.9536L260.791 90.1736L262.36 91.8547C262.36 91.8547 263.027 92.5113 264.027 93.4963C266.202 95.6633 269.961 99.4786 271.9 101.813C273.606 103.868 274.145 111.863 274.301 117.882C274.404 121.845 274.342 124.951 274.342 124.951C272.623 128.296 277.121 155.157 277.121 155.157C278.168 160.348 279.443 192.853 279.443 192.853Z" fill="white"/>
<path opacity="0.03" d="M264.858 100.572C264.858 100.572 259.643 112.303 260.249 116.762C260.854 121.221 262.577 126.267 261.746 127.446C261.461 127.893 261.092 128.255 260.668 128.505C260.245 128.755 259.778 128.886 259.304 128.887C258.471 128.953 256.248 130.788 256.248 130.985C256.248 131.182 254.195 131.182 252.359 132.102C250.522 133.021 247.811 133.543 247.811 133.543C247.811 133.543 242.532 133.346 242.041 133.937C241.549 134.528 241.043 138.064 242.096 140.885C243.149 143.705 244.319 145.81 245.202 146.194C246.086 146.578 251.692 144.359 256.24 143.833C260.788 143.308 265.725 139.049 265.725 139.049C265.725 139.049 271.161 136.751 272.114 132.887C273.067 129.022 270.95 107.782 270.95 107.782C270.95 107.782 269.35 97.8829 264.858 100.572Z" fill="black"/>
<path opacity="0.03" d="M264.191 99.5869C264.191 99.5869 258.976 111.322 259.588 115.777C260.199 120.233 261.916 125.282 261.082 126.464C260.798 126.911 260.429 127.274 260.006 127.524C259.583 127.775 259.116 127.905 258.643 127.906C257.81 127.971 255.587 129.807 255.587 130.004C255.587 130.201 253.534 130.201 251.698 131.117C249.861 132.033 247.15 132.558 247.15 132.558C247.15 132.558 241.871 132.361 241.382 132.952C240.893 133.543 240.382 137.083 241.438 139.9C242.493 142.717 243.66 144.825 244.544 145.209C245.427 145.593 251.034 143.374 255.581 142.851C260.129 142.329 265.066 138.064 265.066 138.064C265.066 138.064 270.5 135.766 271.442 131.905C272.384 128.044 270.278 106.797 270.278 106.797C270.278 106.797 268.683 96.9012 264.191 99.5869Z" fill="black"/>
<path d="M264.694 99.9809C264.694 99.9809 259.479 111.716 260.09 116.171C260.702 120.627 262.419 125.676 261.588 126.855C261.303 127.303 260.935 127.667 260.511 127.918C260.087 128.168 259.62 128.299 259.146 128.3C258.312 128.365 256.09 130.201 256.09 130.394C256.09 130.588 254.04 130.591 252.2 131.511C250.361 132.43 247.652 132.952 247.652 132.952C247.652 132.952 242.374 132.755 241.882 133.346C241.39 133.937 240.885 137.477 241.938 140.294C242.991 143.111 244.16 145.219 245.044 145.603C245.927 145.987 251.534 143.768 256.081 143.242C260.629 142.717 265.566 138.458 265.566 138.458C265.566 138.458 271.003 136.16 271.956 132.296C272.909 128.431 270.806 107.191 270.806 107.191C270.806 107.191 269.183 97.3083 264.694 99.9809Z" fill="white"/>
<path opacity="0.1" d="M264.58 131.455C264.58 131.455 260.413 130.47 261.863 132.112C263.313 133.753 263.305 135.191 265.08 135.126C266.855 135.06 264.58 131.455 264.58 131.455Z" fill="black"/>
<path opacity="0.1" d="M271.623 166.777C271.623 166.777 269.739 168.284 273.342 171.758C276.946 175.232 271.623 166.777 271.623 166.777Z" fill="black"/>
<path opacity="0.1" d="M268.028 179.165C268.028 179.362 267.361 186.389 269.856 188.145C272.351 189.902 268.028 179.165 268.028 179.165Z" fill="black"/>
<path d="M228.416 124.097C226.405 124.179 222.06 124.905 224.313 129.872C226.305 134.269 229.653 131.33 231.536 129.101C231.077 127.022 229.96 125.231 228.416 124.097V124.097Z" fill="#FFB0B1"/>
<path d="M231.561 129.061L231.645 128.96L231.561 129.061Z" fill="#FFB0B1"/>
<path opacity="0.1" d="M264.027 93.6966C261.893 95.4204 260.104 96.8749 259.754 97.177C258.799 98.0142 256.976 102.929 255.801 105.438C254.865 107.457 251.823 107.976 250.675 108.104L250.822 106.603C253.431 105.224 255.429 100.831 255.429 100.831L260.585 90.1473L262.36 92.055C262.36 92.055 263.027 92.7116 264.027 93.6966Z" fill="black"/>
<path d="M264.027 93.4996C261.893 95.2234 260.104 96.6779 259.754 96.9832C258.799 97.8172 256.976 102.732 255.801 105.241C254.865 107.26 251.823 107.779 250.675 107.907L250.822 106.406C253.431 105.027 255.429 100.634 255.429 100.634L260.585 89.9503L262.36 91.8514C262.36 91.8514 263.027 92.5015 264.027 93.4996Z" fill="#DCE7FF"/>
<path d="M259.921 85.1337C259.922 87.1046 259.416 89.0295 258.471 90.653C257.354 92.5725 255.692 93.9554 253.786 94.5505C251.88 95.1457 249.857 94.9138 248.084 93.897C246.311 92.8801 244.904 91.1456 244.12 89.0082C243.337 86.8708 243.227 84.4721 243.811 82.2474C244.396 80.0226 245.636 78.1192 247.306 76.8826C248.977 75.6459 250.967 75.1578 252.916 75.507C254.865 75.8562 256.643 77.0194 257.928 78.7857C259.214 80.5519 259.921 82.8041 259.921 85.1337V85.1337Z" fill="#FFB0B1"/>
<path opacity="0.1" d="M274.301 117.885C273.173 117.065 272.254 115.898 271.642 114.51C271.178 113.426 270.87 112.175 270.078 111.407C269.364 110.717 268.411 110.55 267.522 110.241C264.599 109.22 262.149 106.068 262.057 102.47C262.013 100.775 262.46 99.0846 262.257 97.4068C262.142 96.4572 261.823 95.5585 261.329 94.7965C261.085 94.4321 260.816 94.0907 260.527 93.7754C260.138 93.342 259.729 92.9217 259.374 92.4621C259.15 92.1775 258.954 91.8635 258.79 91.5263C258.658 91.2504 258.551 90.9588 258.471 90.6562C257.915 88.6468 258.421 86.2631 257.81 84.2308L257.776 84.1191C257.546 83.3968 257.076 82.6745 256.423 82.6186C255.77 82.5628 255.212 83.2031 254.59 83.4887C253.287 84.0863 251.881 83.0684 250.795 82.0309C249.708 80.9934 248.483 79.8081 247.102 80.0379C246.188 80.1922 245.466 80.9277 244.624 81.3086C244.434 81.3955 244.238 81.4626 244.038 81.5089C244.75 79.4092 246.059 77.6683 247.74 76.5852C249.42 75.5022 251.367 75.1446 253.247 75.5738C255.126 76.0031 256.82 77.1925 258.038 78.9377C259.256 80.6828 259.922 82.8748 259.921 85.1369C259.922 85.8201 259.861 86.5014 259.74 87.1693C259.754 87.2153 259.768 87.258 259.785 87.304C260.107 88.289 260.471 89.3002 260.791 90.1736L262.36 91.8547C262.36 91.8547 263.027 92.5113 264.027 93.4963C266.202 95.6633 269.961 99.4786 271.9 101.813C273.606 103.875 274.14 111.867 274.301 117.885Z" fill="black"/>
<path d="M244.527 75.3099C244.924 74.3545 245.122 73.2841 245.597 72.3779C246.294 71.0646 247.511 70.224 248.761 69.7151C252.025 68.3854 258.924 66.4548 260.985 69.7151C261.391 70.3718 261.727 71.1007 262.288 71.5538C262.716 71.8985 263.233 72.0463 263.702 72.3057C265.016 73.0346 265.855 74.6237 266.302 76.2457C266.75 77.8677 266.883 79.6078 267.211 81.279C267.63 83.4231 268.367 85.4554 269.1 87.4747C269.964 89.8584 270.881 92.3308 272.548 94.0151C274.823 96.3134 275.326 99.5672 277.437 102.089C279.938 105.083 279.857 110.025 278.568 113.948C278.399 114.464 278.207 115.002 278.274 115.551C278.34 116.099 278.685 116.598 279.01 117.035L280.377 118.857C277.143 119.779 273.484 117.783 271.978 114.28C271.514 113.196 271.206 111.949 270.411 111.177C269.7 110.488 268.744 110.323 267.858 110.015C264.936 108.99 262.485 105.835 262.394 102.237C262.349 100.546 262.796 98.8547 262.594 97.1802C262.481 96.2243 262.16 95.3193 261.663 94.5536C260.899 93.3749 259.746 92.5836 259.124 91.2702C258.071 89.0737 258.871 86.2205 258.112 83.863C257.879 83.1407 257.412 82.4184 256.759 82.3625C256.107 82.3067 255.548 82.947 254.923 83.2326C253.623 83.8302 252.217 82.8156 251.131 81.7748C250.045 80.734 248.819 79.552 247.436 79.7851C246.522 79.9362 245.802 80.6716 244.96 81.0558C244.338 81.3381 243.077 81.591 242.532 80.9704C241.382 79.7194 244.046 76.4788 244.527 75.3099Z" fill="#591D4B"/>
<path opacity="0.1" d="M272.751 113.196C272.284 112.113 271.978 110.865 271.184 110.097C270.472 109.407 269.517 109.24 268.628 108.931C265.708 107.91 263.258 104.755 263.163 101.156C263.119 99.4654 263.566 97.7712 263.366 96.0967C263.25 95.1469 262.929 94.2482 262.435 93.4865C261.668 92.3078 260.515 91.5165 259.896 90.2031C258.843 88.0099 259.643 85.1566 258.882 82.7959C258.651 82.0769 258.182 81.3545 257.532 81.2954C256.882 81.2363 256.318 81.8832 255.695 82.1688C254.395 82.7664 252.987 81.7485 251.903 80.711C250.82 79.6735 249.589 78.4882 248.208 78.718C247.294 78.8723 246.572 79.6078 245.733 79.9887C245.11 80.271 243.846 80.5271 243.302 79.9066C242.157 78.5933 244.822 75.3592 245.299 74.1969C245.697 73.2381 245.894 72.171 246.372 71.2648C246.397 71.2156 246.425 71.1663 246.452 71.1171C246.095 71.467 245.786 71.8815 245.538 72.3451C245.063 73.2513 244.866 74.3151 244.469 75.2771C243.988 76.4394 241.324 79.6833 242.471 80.9868C243.027 81.6106 244.277 81.3545 244.899 81.0722C245.733 80.688 246.461 79.9526 247.375 79.8015C248.764 79.5684 249.986 80.7537 251.07 81.7912C252.153 82.8288 253.57 83.8466 254.865 83.249C255.487 82.9634 256.031 82.3198 256.698 82.3789C257.365 82.438 257.81 83.1571 258.051 83.8794C258.81 86.2369 258.01 89.0901 259.062 91.2866C259.685 92.577 260.838 93.3847 261.602 94.57C262.099 95.3357 262.42 96.2407 262.532 97.1966C262.735 98.8711 262.288 100.562 262.332 102.253C262.424 105.865 264.874 109.007 267.797 110.031C268.678 110.34 269.639 110.504 270.35 111.194C271.148 111.965 271.462 113.213 271.917 114.296C273.423 117.8 277.082 119.796 280.316 118.873L279.671 118.013C276.868 118.062 274.031 116.178 272.751 113.196Z" fill="black"/>
<path opacity="0.1" d="M253.598 98.2112C253.234 98.8679 252.192 102.23 251.322 105.165C250.508 104.791 249.769 102.404 249.769 102.404L254.109 95.1084C254.553 95.8308 254.262 97.0292 253.598 98.2112Z" fill="black"/>
<path d="M253.765 98.0142C253.401 98.6709 252.359 102.033 251.489 104.968C250.675 104.597 249.936 102.207 249.936 102.207L254.276 94.9147C254.72 95.6338 254.428 96.8355 253.765 98.0142Z" fill="#DCE7FF"/>
<path d="M228.533 131.557L226.127 122.59C226.099 122.485 226.088 122.374 226.096 122.265C226.104 122.155 226.13 122.048 226.173 121.95C226.215 121.852 226.274 121.765 226.346 121.694C226.417 121.623 226.499 121.569 226.588 121.536V121.536C226.767 121.47 226.961 121.49 227.128 121.592C227.294 121.694 227.42 121.87 227.477 122.081L229.883 131.038L229.644 132.913L228.533 131.557Z" fill="#BE8B87"/>
<path opacity="0.1" d="M226.355 121.802C226.534 121.735 226.729 121.755 226.896 121.857C227.063 121.959 227.189 122.135 227.247 122.347L229.653 131.304L229.472 132.709L229.647 132.926L229.886 131.051L227.466 122.094C227.409 121.883 227.283 121.707 227.117 121.605C226.95 121.503 226.756 121.483 226.577 121.549V121.549C226.427 121.607 226.297 121.722 226.208 121.878C226.255 121.848 226.304 121.822 226.355 121.802V121.802Z" fill="white"/>
<path d="M228.533 131.557L229.883 131.051L229.686 132.588L229.644 132.926L229.25 132.44L228.533 131.557Z" fill="#EFC8C4"/>
<path d="M229.25 132.44C229.273 132.405 229.303 132.376 229.336 132.355C229.355 132.34 229.378 132.332 229.401 132.332C229.424 132.332 229.447 132.34 229.467 132.355C229.485 132.382 229.501 132.411 229.514 132.443C229.532 132.48 229.557 132.51 229.587 132.534C229.617 132.557 229.651 132.572 229.686 132.578L229.644 132.906L229.25 132.44Z" fill="#727A9C"/>
<path d="M226.113 125.775C226.113 125.775 230.939 125.742 229.803 128.168C228.666 130.595 226.891 130.887 226.891 130.887L226.113 125.775Z" fill="#FFB0B1"/>
<path d="M196.101 16.8829H195.892C187.602 16.8829 180.271 22.0673 176.053 29.7175C171.836 22.0673 164.504 16.8829 156.214 16.8829H156.006C149.784 16.953 143.838 19.922 139.458 25.1447C135.078 30.3674 132.62 37.4218 132.616 44.7749C132.616 53.9059 136 66.8619 142.598 77.5229C155.17 97.8369 176.053 115.61 176.053 115.61C176.053 115.61 196.937 97.8402 209.505 77.5229C216.106 66.8619 219.487 53.9059 219.487 44.7749C219.484 37.4224 217.026 30.3685 212.647 25.1459C208.268 19.9232 202.322 16.9539 196.101 16.8829ZM193.12 79.0858C192.175 79.0815 191.254 78.74 190.478 78.106C189.701 77.472 189.104 76.5751 188.766 75.5332H183.81C183.484 75.5308 183.166 75.408 182.901 75.182C182.637 74.9559 182.439 74.638 182.335 74.2724L180.812 68.8516L175.995 88.7454C175.901 89.1283 175.705 89.465 175.435 89.7047C175.166 89.9445 174.838 90.0745 174.5 90.0751H174.403C174.051 90.055 173.716 89.8927 173.453 89.6155C173.19 89.3382 173.015 88.9627 172.958 88.5516L167.994 53.2623L164.365 74.1444C164.282 74.541 164.089 74.8934 163.817 75.1451C163.544 75.3968 163.208 75.5335 162.862 75.5332H155.881C155.672 75.5437 155.463 75.504 155.267 75.4166C155.071 75.3291 154.892 75.1957 154.741 75.0244C154.589 74.8531 154.469 74.6474 154.387 74.4197C154.305 74.192 154.262 73.947 154.262 73.6995C154.262 73.4519 154.305 73.2069 154.387 72.9792C154.469 72.7515 154.589 72.5458 154.741 72.3745C154.892 72.2032 155.071 72.0698 155.267 71.9824C155.463 71.8949 155.672 71.8552 155.881 71.8657H161.64L166.78 43.7899C166.864 43.3748 167.068 43.0072 167.356 42.75C167.644 42.4928 167.999 42.3619 168.36 42.3798C168.721 42.3976 169.066 42.5631 169.335 42.8478C169.604 43.1326 169.781 43.519 169.836 43.9409L174.906 79.9394L179.223 62.1405C179.313 61.7656 179.503 61.4351 179.765 61.1984C180.027 60.9617 180.346 60.8315 180.676 60.8271H180.707C181.033 60.8273 181.351 60.9492 181.616 61.1756C181.88 61.402 182.077 61.7213 182.179 62.0879L184.932 71.8756H188.705C188.973 70.9124 189.462 70.0556 190.116 69.3997C190.77 68.7438 191.565 68.3142 192.413 68.1585C193.26 68.0027 194.128 68.1268 194.92 68.5171C195.712 68.9073 196.397 69.5486 196.9 70.37C197.403 71.1914 197.704 72.1612 197.77 73.1721C197.836 74.183 197.665 75.1959 197.275 76.0989C196.884 77.0019 196.291 77.76 195.559 78.2893C194.827 78.8187 193.986 79.0989 193.128 79.0989L193.12 79.0858Z" fill="#04AD48"/>
</g>
<defs>
<linearGradient id="paint0_linear_15_2" x1="98.9949" y1="254.416" x2="98.9949" y2="52.3791" gradientUnits="userSpaceOnUse">
<stop stop-color="#808080" stop-opacity="0.25"/>
<stop offset="0.54" stop-color="#808080" stop-opacity="0.12"/>
<stop offset="1" stop-color="#808080" stop-opacity="0.1"/>
</linearGradient>
<linearGradient id="paint1_linear_15_2" x1="248.211" y1="251.862" x2="248.211" y2="67.338" gradientUnits="userSpaceOnUse">
<stop stop-color="#808080" stop-opacity="0.25"/>
<stop offset="0.54" stop-color="#808080" stop-opacity="0.12"/>
<stop offset="1" stop-color="#808080" stop-opacity="0.1"/>
</linearGradient>
<clipPath id="clip0_15_2">
<rect width="307" height="257" fill="white"/>
</clipPath>
</defs>
</svg>
