<svg width="275" height="239" viewBox="0 0 275 239" fill="none" xmlns="http://www.w3.org/2000/svg">
<g clip-path="url(#clip0_21_106)">
<path opacity="0.1" d="M159.781 24.8258C142.151 24.4392 125.346 20.8471 109.324 16.9179C93.3021 12.9888 77.4218 8.63455 60.2047 6.55251C49.135 5.21189 36.4754 5.02334 27.5579 8.76877C18.9746 12.372 16.2021 18.5925 14.7108 24.3641C13.5892 28.7071 12.9385 33.277 16.0046 37.3436C18.1391 40.1655 21.9268 42.5383 24.5474 45.2419C33.6624 54.6486 27.2186 66.2492 17.339 75.4418C12.7055 79.7561 7.33022 83.861 3.75513 88.4485C0.180035 93.0361 -1.47585 98.2915 1.65362 102.97C4.75525 107.604 12.1434 111.09 20.1494 113.54C36.4095 118.511 55.5687 119.933 74.2519 120.748C115.609 122.533 157.188 121.76 198.654 120.986C214 120.699 229.414 120.409 244.509 118.909C252.893 118.076 261.549 116.757 267.636 113.57C275.361 109.525 277.278 102.676 272.1 97.6028C263.415 89.0957 239.405 86.9817 233.333 77.8514C229.994 72.8261 233.425 67.2271 238.281 62.5661C248.695 52.5682 266.155 43.7959 267.074 32.3662C267.707 24.5159 259.314 16.6559 246.335 12.9408C232.733 9.0436 213.87 9.53575 203.836 15.9768C193.504 22.6128 175.344 25.1662 159.781 24.8258Z" fill="#04AD48"/>
<path d="M61.3359 221.402C61.3359 221.402 47.4103 208.705 44.7796 192.554C43.7128 185.771 40.8513 179.587 36.6243 174.931C34.6022 172.741 32.4181 170.779 30.0995 169.068" stroke="#535461" stroke-width="2" stroke-miterlimit="10"/>
<path d="M28.3955 158.894C29.6159 160.885 30.1679 169.322 30.1679 169.322C30.1679 169.322 23.6431 166.222 22.4202 164.234C21.833 163.279 21.5845 162.081 21.7296 160.904C21.8747 159.728 22.4013 158.669 23.1937 157.961C23.9861 157.252 24.9793 156.953 25.9548 157.128C26.9303 157.303 27.8083 157.938 28.3955 158.894V158.894Z" fill="#04AD48"/>
<path d="M40.0981 165.514C40.2247 167.984 36.8902 175.429 36.8902 175.429C36.8902 175.429 32.8062 168.546 32.677 166.076C32.6279 164.898 32.9656 163.744 33.6168 162.865C34.268 161.985 35.1804 161.451 36.1562 161.377C37.1321 161.303 38.0927 161.696 38.8301 162.47C39.5675 163.244 40.0221 164.338 40.0956 165.514H40.0981Z" fill="#04AD48"/>
<path d="M51.4411 184.544C50.5195 186.755 44.5214 191.152 44.5214 191.152C44.5214 191.152 43.8808 182.724 44.8024 180.513C45.2561 179.474 46.0301 178.69 46.9578 178.332C47.8855 177.974 48.8928 178.069 49.7629 178.597C50.633 179.126 51.2964 180.045 51.6103 181.157C51.9241 182.269 51.8634 183.486 51.4411 184.544V184.544Z" fill="#04AD48"/>
<path d="M57.338 201.266C56.7379 203.633 51.4437 209.187 51.4437 209.187C51.4437 209.187 49.6283 201.013 50.2283 198.643C50.5168 197.506 51.1679 196.554 52.0385 195.996C52.9091 195.437 53.9278 195.319 54.8706 195.667C55.8134 196.015 56.603 196.8 57.0658 197.85C57.5285 198.9 57.6264 200.129 57.338 201.266V201.266Z" fill="#04AD48"/>
<path d="M30.854 181.414C32.8796 181.744 39.2828 178.257 39.2828 178.257C39.2828 178.257 33.8797 172.858 31.844 172.528C30.867 172.37 29.8778 172.686 29.0941 173.407C28.3104 174.129 27.7964 175.196 27.6651 176.374C27.5338 177.553 27.796 178.746 28.3941 179.691C28.9921 180.636 29.877 181.256 30.854 181.414V181.414Z" fill="#04AD48"/>
<path d="M37.9561 200.869C39.9816 200.451 45.2151 194.817 45.2151 194.817C45.2151 194.817 38.7182 191.617 36.6952 192.035C36.2109 192.131 35.747 192.341 35.3305 192.654C34.9139 192.967 34.553 193.377 34.2683 193.859C33.9837 194.341 33.7811 194.887 33.6722 195.464C33.5633 196.041 33.5503 196.639 33.6339 197.222C33.7175 197.805 33.896 198.363 34.1592 198.863C34.4224 199.362 34.7651 199.794 35.1674 200.133C35.5697 200.472 36.0237 200.712 36.5033 200.838C36.9828 200.964 37.4783 200.975 37.9612 200.869H37.9561Z" fill="#04AD48"/>
<path d="M47.0077 218.638C49.0611 218.638 55.0111 214.152 55.0111 214.152C55.0111 214.152 49.0586 209.673 47.0052 209.673C46.0194 209.673 45.074 210.145 44.377 210.986C43.6799 211.826 43.2883 212.967 43.2883 214.156C43.2883 215.344 43.6799 216.485 44.377 217.325C45.074 218.166 46.0194 218.638 47.0052 218.638H47.0077Z" fill="#04AD48"/>
<path d="M196.617 111.583C196.617 111.583 205.2 93.2462 218.138 87.9634C223.571 85.7874 228.272 81.5455 231.537 75.874C233.068 73.1626 234.389 70.2872 235.484 67.2841" stroke="#535461" stroke-width="2" stroke-miterlimit="10"/>
<path d="M243.607 63.9251C242.133 65.6474 235.274 67.4307 235.274 67.4307C235.274 67.4307 236.958 59.2164 238.431 57.4911C239.143 56.6879 240.087 56.2537 241.061 56.282C242.035 56.3102 242.961 56.7987 243.64 57.6421C244.318 58.4856 244.695 59.6166 244.689 60.7917C244.682 61.9668 244.294 63.092 243.607 63.9251Z" fill="#04AD48"/>
<path d="M239.728 78.775C237.702 79.2575 231.152 76.2588 231.152 76.2588C231.152 76.2588 236.267 70.4569 238.279 69.9835C238.763 69.8542 239.263 69.8426 239.75 69.9494C240.237 70.0562 240.701 70.2793 241.116 70.6056C241.531 70.9319 241.887 71.3548 242.164 71.8495C242.441 72.3441 242.634 72.9006 242.73 73.4863C242.827 74.0719 242.825 74.6749 242.726 75.2598C242.627 75.8447 242.431 76.3998 242.152 76.8925C241.872 77.3851 241.513 77.8054 241.097 78.1287C240.681 78.452 240.215 78.6717 239.728 78.775V78.775Z" fill="#04AD48"/>
<path d="M225.61 94.8616C223.67 94.0524 219.262 87.4687 219.262 87.4687C219.262 87.4687 226.098 85.5816 228.043 86.3908C228.51 86.5777 228.942 86.8747 229.313 87.2645C229.684 87.6543 229.988 88.1291 230.206 88.6615C230.423 89.1938 230.552 89.7731 230.582 90.3656C230.613 90.9581 230.546 91.552 230.385 92.113C230.224 92.6739 229.972 93.1907 229.644 93.6333C229.316 94.0759 228.918 94.4354 228.474 94.6911C228.029 94.9469 227.548 95.0936 227.056 95.1229C226.564 95.1521 226.073 95.0633 225.61 94.8616V94.8616Z" fill="#04AD48"/>
<path d="M212.636 104.133C210.611 103.729 205.354 98.126 205.354 98.126C205.354 98.126 211.834 94.8708 213.857 95.2739C214.83 95.467 215.7 96.1188 216.276 97.0857C216.851 98.0527 217.084 99.2557 216.924 100.43C216.764 101.604 216.223 102.654 215.422 103.348C214.62 104.041 213.622 104.323 212.649 104.129L212.636 104.133Z" fill="#04AD48"/>
<path d="M225.432 69.837C225.43 72.3135 229.154 79.4987 229.154 79.4987C229.154 79.4987 232.874 72.3226 232.874 69.8492C232.887 69.2509 232.8 68.6555 232.619 68.0981C232.438 67.5408 232.167 67.0328 231.821 66.604C231.474 66.1753 231.06 65.8346 230.603 65.6019C230.146 65.3693 229.655 65.2494 229.158 65.2494C228.662 65.2494 228.171 65.3693 227.713 65.6019C227.256 65.8346 226.842 66.1753 226.496 66.604C226.15 67.0328 225.878 67.5408 225.697 68.0981C225.516 68.6555 225.43 69.2509 225.443 69.8492L225.432 69.837Z" fill="#04AD48"/>
<path d="M210.385 80.9095C210.998 83.273 216.325 88.7849 216.325 88.7849C216.325 88.7849 218.098 80.595 217.48 78.2314C217.159 77.1364 216.499 76.234 215.638 75.7143C214.777 75.1946 213.783 75.0981 212.864 75.4452C211.945 75.7923 211.174 76.5559 210.712 77.5751C210.251 78.5943 210.136 79.7897 210.39 80.9095H210.385Z" fill="#04AD48"/>
<path d="M196.999 94.0921C197.272 96.535 201.749 103.061 201.749 103.061C201.749 103.061 204.638 95.3502 204.364 92.8981C204.31 92.304 204.158 91.729 203.917 91.2069C203.675 90.6847 203.35 90.2261 202.96 89.8578C202.569 89.4896 202.122 89.2192 201.644 89.0626C201.165 88.906 200.666 88.8664 200.175 88.946C199.684 89.0256 199.211 89.2229 198.784 89.5263C198.357 89.8296 197.984 90.2329 197.688 90.7124C197.392 91.1919 197.179 91.7379 197.061 92.3183C196.942 92.8987 196.921 93.5018 196.999 94.0921V94.0921Z" fill="#04AD48"/>
<path opacity="0.25" d="M243.607 63.9251C242.133 65.6474 235.274 67.4307 235.274 67.4307C235.274 67.4307 236.958 59.2164 238.431 57.4911C239.143 56.6879 240.087 56.2537 241.061 56.282C242.035 56.3102 242.961 56.7987 243.64 57.6421C244.318 58.4856 244.695 59.6166 244.689 60.7917C244.682 61.9668 244.294 63.092 243.607 63.9251Z" fill="black"/>
<path opacity="0.25" d="M239.728 78.775C237.702 79.2575 231.152 76.2588 231.152 76.2588C231.152 76.2588 236.267 70.4569 238.279 69.9835C238.763 69.8542 239.263 69.8426 239.75 69.9494C240.237 70.0562 240.701 70.2793 241.116 70.6056C241.531 70.9319 241.887 71.3548 242.164 71.8495C242.441 72.3441 242.634 72.9006 242.73 73.4863C242.827 74.0719 242.825 74.6749 242.726 75.2598C242.627 75.8447 242.431 76.3998 242.152 76.8925C241.872 77.3851 241.513 77.8054 241.097 78.1287C240.681 78.452 240.215 78.6717 239.728 78.775V78.775Z" fill="black"/>
<path opacity="0.25" d="M225.61 94.8616C223.67 94.0524 219.262 87.4687 219.262 87.4687C219.262 87.4687 226.098 85.5816 228.043 86.3908C228.51 86.5777 228.942 86.8747 229.313 87.2645C229.684 87.6543 229.988 88.1291 230.206 88.6615C230.423 89.1938 230.552 89.7731 230.582 90.3656C230.613 90.9581 230.546 91.552 230.385 92.113C230.224 92.6739 229.972 93.1907 229.644 93.6333C229.316 94.0759 228.918 94.4354 228.474 94.6911C228.029 94.9469 227.548 95.0936 227.056 95.1229C226.564 95.1521 226.073 95.0633 225.61 94.8616V94.8616Z" fill="black"/>
<path opacity="0.25" d="M212.636 104.133C210.611 103.729 205.354 98.126 205.354 98.126C205.354 98.126 211.834 94.8708 213.857 95.2739C214.83 95.467 215.7 96.1188 216.276 97.0857C216.851 98.0527 217.084 99.2557 216.924 100.43C216.764 101.604 216.223 102.654 215.422 103.348C214.62 104.041 213.622 104.323 212.649 104.129L212.636 104.133Z" fill="black"/>
<path opacity="0.25" d="M225.432 69.837C225.43 72.3135 229.154 79.4987 229.154 79.4987C229.154 79.4987 232.874 72.3226 232.874 69.8492C232.887 69.2509 232.8 68.6555 232.619 68.0981C232.438 67.5408 232.167 67.0328 231.821 66.604C231.474 66.1753 231.06 65.8346 230.603 65.6019C230.146 65.3693 229.655 65.2494 229.158 65.2494C228.662 65.2494 228.171 65.3693 227.713 65.6019C227.256 65.8346 226.842 66.1753 226.496 66.604C226.15 67.0328 225.878 67.5408 225.697 68.0981C225.516 68.6555 225.43 69.2509 225.443 69.8492L225.432 69.837Z" fill="black"/>
<path opacity="0.25" d="M210.385 80.9095C210.998 83.273 216.325 88.7849 216.325 88.7849C216.325 88.7849 218.098 80.595 217.48 78.2314C217.159 77.1364 216.499 76.234 215.638 75.7143C214.777 75.1946 213.783 75.0981 212.864 75.4452C211.945 75.7923 211.174 76.5559 210.712 77.5751C210.251 78.5943 210.136 79.7897 210.39 80.9095H210.385Z" fill="black"/>
<path opacity="0.25" d="M196.999 94.0921C197.272 96.535 201.749 103.061 201.749 103.061C201.749 103.061 204.638 95.3502 204.364 92.8981C204.31 92.304 204.158 91.729 203.917 91.2069C203.675 90.6847 203.35 90.2261 202.96 89.8578C202.569 89.4896 202.122 89.2192 201.644 89.0626C201.165 88.906 200.666 88.8664 200.175 88.946C199.684 89.0256 199.211 89.2229 198.784 89.5263C198.357 89.8296 197.984 90.2329 197.688 90.7124C197.392 91.1919 197.179 91.7379 197.061 92.3183C196.942 92.8987 196.921 93.5018 196.999 94.0921V94.0921Z" fill="black"/>
<path d="M197.11 111.22C197.11 111.22 198.797 90.2598 208.838 79.114C213.074 74.4688 215.947 68.2932 217.026 61.5127C217.518 58.2894 217.763 55.0184 217.758 51.741" stroke="#535461" stroke-width="2" stroke-miterlimit="10"/>
<path d="M224.053 44.6688C223.293 46.9651 217.611 51.9487 217.611 51.9487C217.611 51.9487 216.391 43.6153 217.158 41.3189C217.528 40.2163 218.245 39.3357 219.153 38.871C220.06 38.4063 221.084 38.3955 221.998 38.8409C222.912 39.2863 223.642 40.1515 224.028 41.2462C224.413 42.3409 224.422 43.5753 224.053 44.678V44.6688Z" fill="#04AD48"/>
<path d="M225.498 60.1569C223.82 61.5799 216.814 62.0471 216.814 62.0471C216.814 62.0471 219.543 54.2481 221.222 52.8251C221.62 52.4657 222.074 52.2064 222.557 52.0624C223.039 51.9184 223.541 51.8927 224.032 51.9868C224.523 52.0808 224.994 52.2928 225.416 52.6101C225.838 52.9274 226.202 53.3436 226.489 53.8341C226.775 54.3245 226.977 54.8792 227.082 55.4654C227.187 56.0515 227.194 56.6572 227.101 57.2465C227.009 57.8358 226.819 58.3967 226.544 58.8961C226.269 59.3955 225.913 59.8232 225.498 60.1538V60.1569Z" fill="#04AD48"/>
<path d="M217.989 81.7706C215.943 81.9783 209.699 78.1062 209.699 78.1062C209.699 78.1062 215.32 73.0372 217.366 72.8295C218.348 72.7299 219.323 73.1051 220.076 73.8724C220.829 74.6398 221.299 75.7366 221.381 76.9214C221.464 78.1063 221.153 79.2822 220.517 80.1904C219.88 81.0987 218.971 81.6649 217.989 81.7645V81.7706Z" fill="#04AD48"/>
<path d="M209.251 96.5778C207.263 97.1885 200.569 94.6631 200.569 94.6631C200.569 94.6631 205.397 88.5223 207.385 87.8993C208.339 87.6009 209.353 87.7718 210.202 88.3746C211.052 88.9773 211.668 89.9624 211.916 91.1133C212.163 92.2641 212.022 93.4864 211.522 94.5112C211.022 95.536 210.205 96.2793 209.251 96.5778V96.5778Z" fill="#04AD48"/>
<path d="M209.428 58.9721C210.259 61.2348 216.067 65.9955 216.067 65.9955C216.067 65.9955 217.054 57.6163 216.224 55.3535C215.81 54.2949 215.069 53.4734 214.16 53.0646C213.251 52.6558 212.245 52.6922 211.357 53.1659C210.47 53.6396 209.772 54.5131 209.411 55.5998C209.051 56.6864 209.057 57.9 209.428 58.9813V58.9721Z" fill="#04AD48"/>
<path d="M199.392 76.4451C200.746 78.3047 207.466 80.7416 207.466 80.7416C207.466 80.7416 206.332 72.3898 204.977 70.5301C204.657 70.0784 204.266 69.7077 203.827 69.4398C203.387 69.1718 202.908 69.0119 202.417 68.9692C201.926 68.9266 201.432 69.0021 200.965 69.1914C200.499 69.3807 200.068 69.68 199.698 70.0719C199.328 70.4638 199.026 70.9405 198.81 71.4743C198.594 72.0081 198.468 72.5883 198.439 73.1813C198.411 73.7743 198.48 74.3682 198.644 74.9285C198.807 75.4888 199.062 76.0043 199.392 76.4451V76.4451Z" fill="#04AD48"/>
<path d="M191.57 95.0479C192.644 97.1549 198.926 100.926 198.926 100.926C198.926 100.926 198.979 92.4645 197.913 90.3544C197.382 89.3802 196.558 88.6935 195.615 88.44C194.671 88.1865 193.683 88.3862 192.86 88.9967C192.036 89.6072 191.443 90.5805 191.204 91.7102C190.966 92.8399 191.102 94.0371 191.583 95.0479H191.57Z" fill="#04AD48"/>
<path d="M184.198 29.1349C184.618 27.2752 185.124 25.4064 185.479 23.5223C185.053 25.4064 184.544 27.2813 184.198 29.1349Z" fill="url(#paint0_linear_21_106)"/>
<path d="M182.314 47.0477C182.278 46.9744 182.253 46.9011 182.225 46.8339C182.225 46.8034 182.2 46.7789 182.19 46.7484C182.135 46.7798 182.078 46.8073 182.02 46.8308C181.909 46.8828 181.795 46.9316 181.678 46.9713C181.562 47.011 181.514 47.0324 181.425 47.0568C181.352 47.0873 181.276 47.1108 181.2 47.1271L181.22 47.182C181.314 47.1576 181.405 47.1362 181.499 47.1057L181.524 47.4843C181.63 47.4843 181.729 47.466 181.825 47.466C181.871 47.463 181.916 47.463 181.962 47.466C182.159 47.466 182.332 47.466 182.468 47.466C182.415 47.3286 182.359 47.1851 182.314 47.0477ZM233.712 145.72C232.522 143.787 230.147 123.041 230.147 123.041C230.147 123.041 225.476 108.289 226.749 102.401C228.023 96.5137 223.27 81.4501 223.27 81.4501C223.27 81.4501 220.131 79.8042 219.961 77.3612C219.961 77.3612 207.142 72.4754 206.542 68.811C206.056 65.8062 198.105 63.6503 195.249 62.9694C194.378 58.7309 193.502 54.7764 192.857 52.6175C192.682 51.9457 192.517 51.3655 192.366 50.9075C191.274 47.5485 187.902 47.2431 185.456 47.5118C185.35 46.9393 185.153 46.397 184.876 45.9148C184.836 45.749 184.756 45.6013 184.646 45.4903C184.593 45.4363 184.537 45.3873 184.479 45.3437C184.434 45.2447 184.376 45.1559 184.306 45.0811C184.237 45.0056 184.16 44.94 184.079 44.8857C184.02 44.8473 183.959 44.8136 183.896 44.7849C183.75 44.7175 183.598 44.6674 183.443 44.6353C183.263 44.5905 183.08 44.562 182.896 44.5498C183.343 44.314 183.742 43.9627 184.063 43.5207C184.282 43.2104 184.445 42.8485 184.542 42.458C184.622 42.1333 184.658 41.795 184.648 41.4564C184.583 41.596 184.506 41.7278 184.42 41.8503C184.527 40.4976 183.934 39.1234 183.595 37.7768C183.184 36.0236 183.108 34.1809 183.372 32.3871C183.711 29.6815 184.552 26.9455 185.122 24.1911C185.123 24.1759 185.123 24.1605 185.122 24.1453C185.42 22.7774 185.605 21.377 185.674 19.9648C185.772 17.1158 185.167 14.2728 184.195 11.6772C183.332 9.37783 182.058 7.11508 180.109 6.18066C178.66 5.47527 177.037 5.58825 175.478 5.47221C171.979 5.2096 168.641 3.72553 165.314 2.37581C161.988 1.0261 158.564 -0.201467 155.063 0.0336635C151.561 0.268795 147.958 2.30558 146.36 6.04324C145.854 7.20974 145.563 8.50754 144.958 9.6038C143.823 11.6711 141.793 12.7063 140.099 14.1324C138.405 15.5584 136.914 17.583 136.301 19.9984C135.967 21.2998 135.919 22.6839 136.164 24.014V24.014C136.22 24.3143 136.291 24.6101 136.377 24.8995C136.617 25.7064 136.992 26.4453 137.478 27.0707C137.845 27.5329 138.267 27.927 138.729 28.2402V28.2402C139.31 28.6285 139.932 28.9203 140.578 29.1075C140.555 29.1991 140.532 29.2968 140.507 29.3915C140.466 29.5472 140.431 29.6968 140.393 29.8648C140.309 30.2404 140.231 30.6221 140.165 31.0068C140.162 31.0342 140.162 31.0619 140.165 31.0893C139.854 32.8262 139.698 34.5982 139.699 36.3751C139.698 37.2155 139.734 38.0554 139.805 38.8914V38.8914C140.818 51.2831 149.3 61.0578 159.78 61.693C160.139 61.7143 160.501 61.7265 160.868 61.7265C161.036 61.7265 161.2 61.7265 161.375 61.7265C161.539 61.9892 161.701 62.2579 161.856 62.5205C162.01 62.7831 162.152 63.0518 162.286 63.3144L161.919 62.8564L161.552 62.4503C161.452 62.615 161.342 62.7693 161.22 62.9114C160.981 62.8098 160.737 62.7262 160.489 62.661V62.661C159.438 62.38 157.838 62.2762 155.731 63.0427C153.794 63.742 151.427 65.1802 148.657 67.9132L135.159 77.6849L127.857 83.041L125.227 90.7973C125.227 90.7973 123.249 100.013 121.049 110.573C120.963 110.603 120.879 110.634 120.796 110.67C120.617 110.646 120.438 110.634 120.259 110.634C118.982 110.63 117.754 111.223 116.833 112.289C115.911 113.354 115.368 114.809 115.317 116.347C110.941 122.76 110.693 129.173 111.721 132.116C111.814 132.392 111.931 132.655 112.071 132.901C112.744 134.074 114.002 137.097 115.279 140.318C115.246 140.584 115.225 140.807 115.215 140.975C115.213 141.03 115.213 141.085 115.215 141.14C115.215 141.14 115.975 154.976 113.443 158.943C112.888 159.807 112.972 160.943 113.443 162.201C115.139 166.726 121.846 172.769 121.846 172.769C121.846 172.769 129.89 172.718 134.372 172.128C134.359 172.672 134.349 173.212 134.339 173.741C134.238 179.078 134.238 183.552 134.238 183.552L134.071 189.149C134.071 189.149 132.551 200.945 131.792 204.198C131.313 206.237 131.865 225.124 132.346 239.009H211.601C212.532 230.795 211.218 205.837 211.218 205.837C211.218 205.837 209.97 199.385 209.924 193.76C209.922 193.754 209.921 193.747 209.921 193.74C209.921 193.734 209.922 193.727 209.924 193.721C209.924 193.229 209.924 192.75 209.94 192.279L210.514 192.255L211.547 192.212H211.641C211.641 192.212 211.666 192.096 211.725 191.907C211.861 191.435 212.048 190.987 212.279 190.572C212.72 189.787 213.408 189.018 214.444 188.966C215.016 188.939 215.902 188.38 216.902 187.555C216.909 187.557 216.916 187.557 216.923 187.555C219.614 185.36 223.172 181.307 224.035 180.642C225.222 179.726 230.909 173.618 230.909 173.618C230.909 173.618 231.757 172.324 232.661 170.763L232.694 170.708C233.818 168.754 235.013 166.418 234.72 165.682C234.213 164.363 235.059 161.208 235.059 161.208C237.7 155.379 234.902 147.653 233.712 145.72ZM184.752 51.7961C184.776 51.8872 184.792 51.9815 184.798 52.077C184.734 51.9762 184.671 51.8694 184.608 51.7717L184.547 51.6739L184.504 51.6006L184.6 51.4419C184.6 51.4419 184.6 51.4419 184.6 51.4632C184.667 51.5622 184.718 51.675 184.752 51.7961V51.7961ZM183.901 49.0905C183.625 49.1577 183.408 49.2188 183.266 49.2646C183.086 48.8798 182.914 48.4951 182.759 48.1042C183.165 48.3882 183.548 48.7185 183.901 49.0905V49.0905ZM183.425 49.573C183.425 49.5669 183.425 49.5608 183.425 49.5547L183.446 49.573C183.549 49.6555 183.651 49.7349 183.744 49.8173C183.828 49.8906 183.904 49.9608 183.98 50.0341C183.929 50.141 183.873 50.2509 183.818 50.3395C183.729 50.1715 183.646 50.0097 183.565 49.8417C183.514 49.7746 183.468 49.683 183.425 49.573ZM181.906 45.8048C182.395 45.7466 182.888 45.7466 183.377 45.8048V45.8048C183.446 45.8048 183.506 45.8201 183.567 45.8323C183.704 45.8579 183.839 45.8998 183.97 45.9575C184.269 46.4624 184.453 47.0531 184.504 47.6706L184.367 47.695L184.233 47.7256C183.98 47.7775 183.727 47.8294 183.529 47.8782L183.276 47.9424C182.939 48.0309 182.744 48.0981 182.737 48.1012C182.704 48.0187 182.671 47.9424 182.635 47.863C182.58 47.7317 182.521 47.5973 182.471 47.466C182.42 47.3347 182.354 47.1851 182.301 47.0477C182.266 46.9744 182.24 46.9011 182.213 46.8339C182.213 46.8034 182.187 46.7789 182.177 46.7484C182.162 46.716 182.15 46.6823 182.139 46.6476C181.985 46.269 181.843 45.8903 181.706 45.5178C181.691 45.4811 181.678 45.4414 181.666 45.4048L181.858 45.3895V45.4689L181.906 45.8048ZM121.497 235.235C121.477 230.688 121.203 225.769 120.444 221.151C120.12 219.188 119.785 217.225 119.446 215.295C119.36 214.812 119.276 214.336 119.193 213.859L118.413 213.985H118.342C116.215 201.889 113.992 191.232 113.992 191.232C113.992 191.232 109.577 170.898 110.088 169.276C110.154 169.065 110.07 168.497 109.883 167.664C108.815 163.041 104.353 150.301 102.794 145.946C102.794 145.928 102.781 145.907 102.776 145.891C102.523 145.161 102.34 144.67 102.285 144.526L102.652 138.028L102.672 137.637L102.72 136.807L102.7 136.785L102.72 136.4C102.72 136.4 98.8666 132.59 92.3393 129.838C92.0861 129.728 91.8177 129.621 91.5519 129.518C91.8785 126.888 92.3115 123.92 92.8761 121.028C92.9293 120.738 92.9875 120.457 93.0483 120.173C93.1014 119.889 93.1622 119.615 93.223 119.337C93.3192 118.885 93.423 118.439 93.5293 117.999C93.8813 117.865 94.2281 117.715 94.5699 117.556L94.7016 117.495C98.9124 115.519 102.387 111.77 104.482 106.942C106.577 102.113 107.15 96.5329 106.095 91.234V91.234C105.494 88.2287 104.384 85.406 102.834 82.9433C102.718 82.754 102.594 82.5647 102.47 82.3784C102.345 82.1921 102.196 81.9845 102.057 81.7951C102.789 79.7889 103.652 77.8804 103.723 75.9291C103.736 75.682 103.736 75.4341 103.723 75.187V75.1565C103.629 73.9015 103.168 72.6311 102.095 71.2967C100.528 69.3393 98.2969 68.3469 96.0663 67.8705C93.8357 67.3941 91.562 67.3819 89.3187 67.0613C85.5993 66.5238 81.9761 65.1405 78.2567 64.7161C73.6754 64.2044 69.063 65.1521 64.8806 67.4644C62.1132 68.9912 59.3104 71.6601 59.1432 75.3214C59.0065 78.3476 60.7535 81.2485 60.313 84.2381C59.875 87.1757 57.3937 89.4873 57.6114 92.4585C57.695 93.6189 58.1887 94.6571 58.8065 95.5824C59.0192 95.8877 59.2445 96.1931 59.4775 96.4985C60.3788 97.6497 61.3713 98.7551 61.8752 100.206C61.8954 100.267 61.9157 100.328 61.9334 100.389C62.3613 101.821 62.1689 103.632 61.1105 104.453C61.1164 104.459 61.1208 104.466 61.1232 104.475V104.475C61.1384 104.499 61.1536 104.517 61.1662 104.542C61.1678 104.537 61.1678 104.531 61.1662 104.527C61.5415 105.063 62.0473 105.443 62.612 105.614L62.8272 105.693C62.6525 105.922 62.4879 106.16 62.3208 106.411L62.2119 106.585C61.9329 107.037 61.6792 107.511 61.4524 108.005C61.3232 108.279 61.1992 108.554 61.0954 108.829C60.7483 109.667 60.497 110.557 60.3484 111.477C60.0775 113.498 60.4598 115.605 60.0497 117.584C59.5433 120.027 57.9406 121.902 57.0367 124.171C55.3251 128.446 56.2948 133.463 56.6392 138.184C57.1076 144.596 56.348 151.037 55.591 157.407C55.1892 160.794 54.7875 164.185 54.3858 167.578C53.373 176.096 52.3602 184.614 51.3474 193.131C50.9778 196.252 50.5398 199.544 48.8155 201.953H48.8332C48.8332 201.953 48.8332 201.972 48.8155 201.978C49.3331 202.25 49.8836 202.422 50.4461 202.485V202.485C52.697 202.756 55.082 201.443 57.1076 200.008C58.7117 198.89 60.2308 197.604 61.6473 196.163C61.4397 197.08 61.2169 198.078 60.9789 199.153C60.9797 199.163 60.9797 199.173 60.9789 199.184V199.184C58.1203 212.314 53.5224 236.386 53.5224 236.386C53.5224 236.386 53.1046 237.434 52.5628 238.994H123.963C123.128 237.773 122.35 236.603 121.743 235.659L121.497 235.235ZM68.6304 113.822C68.6481 113.785 68.6608 113.752 68.6785 113.718C68.6785 113.816 68.6785 113.91 68.6785 114.002C68.6785 114.094 68.6785 114.176 68.6785 114.262C68.6785 114.347 68.6785 114.338 68.6785 114.381C68.6785 114.423 68.6785 114.381 68.6785 114.381C68.6785 114.506 68.6557 114.631 68.638 114.756C68.638 114.756 68.638 114.771 68.638 114.784L68.8912 114.897L69.1849 115.043C70.9201 115.87 72.6772 116.618 74.4563 117.288C74.6386 117.358 74.8235 117.425 75.0083 117.489L75.0463 117.868C75.0918 118.256 75.1349 118.65 75.1754 119.044C75.1754 119.044 75.1754 119.062 75.1754 119.074C75.2893 120.164 75.4007 121.251 75.4995 122.314C75.4995 122.314 70.8509 120.176 70.9091 123.422C70.9064 123.48 70.9064 123.539 70.9091 123.597C70.904 123.674 70.904 123.751 70.9091 123.829C70.9521 126.357 71.6079 127.856 71.7396 128.626C71.7317 128.658 71.7178 128.687 71.6991 128.711C71.5867 129.006 71.548 129.334 71.5877 129.655C71.5832 130.201 71.6188 130.747 71.694 131.286C71.5573 131.386 71.4231 131.487 71.2889 131.591C71.1876 131.667 71.0914 131.753 70.9927 131.838C70.3715 129.24 69.5589 126.714 68.5645 124.29C67.8683 122.561 67.0859 120.76 67.0935 118.863C67.0935 118.741 67.0935 118.616 67.1062 118.491C67.1344 117.941 67.2212 117.398 67.3644 116.875C67.4226 116.677 67.4859 116.482 67.5568 116.289C67.7223 115.832 67.9074 115.386 68.1113 114.952C68.243 114.665 68.3822 114.381 68.5164 114.094C68.5595 114.008 68.6 113.92 68.6405 113.834L68.6304 113.822ZM182.314 47.0477C182.278 46.9744 182.253 46.9011 182.225 46.8339C182.225 46.8034 182.2 46.7789 182.19 46.7484C182.135 46.7798 182.078 46.8073 182.02 46.8308C181.909 46.8828 181.795 46.9316 181.678 46.9713C181.562 47.011 181.514 47.0324 181.425 47.0568L181.2 47.1271L181.22 47.182C181.314 47.1576 181.405 47.1362 181.499 47.1057L181.524 47.4843C181.63 47.4843 181.729 47.466 181.825 47.466H181.962C182.159 47.466 182.332 47.466 182.468 47.466C182.415 47.3286 182.359 47.1851 182.314 47.0477Z" fill="url(#paint1_linear_21_106)"/>
<path d="M126.991 91.8996L125.472 92.7088C125.472 92.7088 115.57 139.106 115.57 142.856C115.57 146.606 136.567 167.471 136.567 167.471L139.843 140.801C139.843 140.801 135.139 79.6392 126.991 91.8996Z" fill="#E8F5FF"/>
<path d="M173.049 77.1413L164.276 71.6203C163.785 69.0938 162.913 66.6977 161.704 64.5511C160.42 62.3158 158.714 60.1203 156.587 58.9751C151.212 56.0681 179.324 40.809 179.324 40.809C179.766 42.642 180.288 44.4461 180.886 46.2139C182.334 50.5257 184.737 56.1017 187.833 57.6896C193.097 60.392 173.049 77.1413 173.049 77.1413Z" fill="#FFC1C7"/>
<path opacity="0.1" d="M180.886 46.2139C179.685 51.3089 177.187 55.8201 173.745 59.1104C170.303 62.4007 166.091 64.3039 161.704 64.5511C160.42 62.3158 158.714 60.1203 156.587 58.9751C151.212 56.0681 179.324 40.809 179.324 40.809C179.766 42.642 180.288 44.4461 180.886 46.2139V46.2139Z" fill="black"/>
<path d="M181.676 38.5096C181.677 43.5065 180.449 48.3915 178.148 52.5468C175.847 56.7022 172.576 59.9411 168.748 61.854C164.92 63.767 160.709 64.268 156.645 63.2936C152.581 62.3193 148.848 59.9134 145.919 56.3803C142.989 52.8472 140.993 48.3455 140.185 43.4446C139.377 38.5437 139.792 33.4638 141.377 28.8473C142.963 24.2308 145.648 20.2851 149.093 17.5093C152.538 14.7335 156.589 13.2522 160.732 13.2528C163.485 13.2375 166.214 13.8802 168.761 15.144C171.308 16.4078 173.622 18.2676 175.569 20.6159C177.516 22.9643 179.059 25.7546 180.107 28.8259C181.155 31.8971 181.688 35.1884 181.676 38.5096V38.5096Z" fill="#FFC1C7"/>
<path d="M184.699 73.8983L178.987 89.9727L173.948 100.642H157.82L153.116 86.0549L155.022 70.9271H167.34L175.293 70.3866L177.979 69.3056L179.711 70.4904L184.699 73.8983Z" fill="#575A89"/>
<path opacity="0.1" d="M182.732 52.4709C182.732 52.4709 186.294 53.387 183.104 56.5414C179.914 59.6958 168.907 69.727 168.907 69.727C168.907 69.727 172.773 73.88 171.973 78.7445L184.782 70.1332L187.061 56.3551C187.061 56.3551 187.317 52.2143 182.732 52.4709Z" fill="black"/>
<path opacity="0.1" d="M171.427 69.727L163.279 71.3485C163.279 71.3485 164.96 78.8452 164.119 80.9736C164.094 81.0398 164.073 81.1082 164.056 81.1782L160.732 92.0156L163.223 100.526L171.847 86.3419L168.907 80.9736C168.907 80.9736 172.014 76.0084 173.862 74.2861C175.711 72.5639 171.427 69.727 171.427 69.727Z" fill="black"/>
<path d="M171.427 69.3087L163.279 70.9271C163.279 70.9271 164.96 78.4238 164.119 80.5522C164.094 80.6184 164.073 80.6868 164.056 80.7568L160.732 91.5942L163.223 100.105L171.847 85.9114L168.907 80.5431C168.907 80.5431 172.014 75.5778 173.862 73.8556C175.711 72.1333 171.427 69.3087 171.427 69.3087Z" fill="#DCE6F2"/>
<path d="M183.073 51.6617C183.073 51.6617 186.636 52.5777 183.443 55.7322C180.25 58.8866 168.907 69.727 168.907 69.727C168.907 69.727 173.108 73.0708 172.31 77.9322L185.119 69.324L187.398 55.5459C187.398 55.5459 187.651 51.4051 183.073 51.6617Z" fill="#575A89"/>
<path opacity="0.1" d="M162.263 65.5069C162.263 65.5069 163.041 67.2597 166.472 70.4202C166.472 70.4202 160.76 74.0846 162.945 79.2361L154.207 76.4878L152.862 71.4218L162.263 65.5069Z" fill="black"/>
<path d="M161.927 65.1038C161.927 65.1038 162.704 66.8566 166.135 70.0171C166.135 70.0171 160.423 73.6632 162.608 78.83L153.873 76.0817L152.528 71.0187L161.927 65.1038Z" fill="#575A89"/>
<path opacity="0.1" d="M184.699 73.8983L178.987 89.9727L173.958 100.642H157.82L153.116 86.0549L155.02 70.9271H158.445C158.39 74.4571 159.458 78.604 159.39 80.1461C159.273 82.6806 162.524 96.3549 162.524 96.3549C162.524 96.3549 169.328 83.0837 172.014 81.9019C173.703 81.1599 177.28 74.9854 179.708 70.4904L184.699 73.8983Z" fill="black"/>
<path d="M207.2 158.487L206.62 159.367C206.62 159.367 210.821 184.795 209.659 190.569C209.461 191.61 209.348 192.672 209.322 193.739V193.785C209.117 199.66 210.588 207.285 210.588 207.285C210.588 207.285 211.763 229.76 211.094 239.003H132.448C131.987 225.335 131.49 207.627 131.941 205.663C132.701 202.423 134.22 190.67 134.22 190.67L134.387 185.1C134.387 185.1 134.387 179.716 134.524 173.719C134.582 171.023 134.668 168.192 134.792 165.682C134.952 162.524 135.174 159.865 135.481 158.558C135.67 157.567 135.778 156.557 135.805 155.541C135.805 155.446 135.805 155.348 135.82 155.251C135.82 154.945 135.845 154.615 135.856 154.277C135.856 154.182 135.856 154.087 135.856 153.971C135.904 152.005 135.886 149.672 135.833 147.253C135.833 147.122 135.833 146.987 135.833 146.853C135.79 145.039 135.726 143.189 135.655 141.43C135.435 135.933 135.149 131.286 135.149 131.286L125.49 92.6874L128.093 84.9556L135.316 79.6178L148.672 69.8919C155.187 63.4335 159.476 64.2091 161.111 64.9175C161.27 64.9829 161.426 65.0594 161.577 65.1466C161.628 65.1771 161.668 65.2015 161.706 65.229C161.758 65.2587 161.808 65.2934 161.856 65.3328C161.408 65.5927 161.019 65.9793 160.722 66.4596C160.387 67.0063 160.148 67.6298 160.02 68.2918C159.935 68.7022 159.875 69.1197 159.84 69.5408C159.808 69.9836 159.795 70.4416 159.795 70.9027C159.813 71.9139 159.885 72.9227 160.01 73.9228C160.01 73.9411 160.01 73.9655 160.01 73.9899C160.094 74.7045 160.197 75.4038 160.299 76.0603C160.298 76.0715 160.298 76.0827 160.299 76.0939C160.415 76.8604 160.532 77.5688 160.61 78.1795C160.625 78.2895 160.638 78.3902 160.651 78.4849C160.706 78.8885 160.733 79.2972 160.729 79.7064C160.758 80.6943 160.868 81.6764 161.058 82.6379C161.124 83.041 161.2 83.4715 161.284 83.9204C161.398 84.5311 161.522 85.1968 161.656 85.8747C161.729 86.2473 161.808 86.632 161.889 87.0137C161.919 87.1664 161.952 87.3191 161.982 87.4749L162.033 87.7161C162.572 90.3025 163.157 92.8768 163.517 94.4341C163.729 95.3502 163.864 95.9151 163.864 95.9151C163.864 95.9151 167.677 88.4795 170.72 84.2471C170.766 84.1861 170.806 84.1281 170.849 84.0731C171.151 83.6547 171.447 83.273 171.73 82.9371C172.351 82.192 172.908 81.6607 173.356 81.4653C173.451 81.423 173.544 81.3709 173.632 81.3095C174.878 80.4576 176.888 77.3642 178.769 74.1243C178.954 73.8189 179.134 73.4861 179.316 73.1716C179.734 72.4448 180.139 71.715 180.521 71.0157C180.815 70.4813 181.096 69.9622 181.362 69.4675C182.628 67.0917 183.519 65.3206 183.519 65.3206L185.276 65.226L185.583 65.2076H185.788L193.766 64.7618C193.766 64.7618 194.11 64.832 194.677 64.9695C194.708 64.9695 194.738 64.9695 194.771 64.9939C197.602 65.6718 205.466 67.8185 205.947 70.7958C206.534 74.4419 219.219 79.3063 219.219 79.3063C219.386 81.7493 222.493 83.3585 222.493 83.3585C222.493 83.3585 227.197 98.352 225.939 104.227C224.696 110.029 229.175 124.381 229.294 124.784L228.435 126.091L207.2 158.487Z" fill="#E8F5FF"/>
<path opacity="0.1" d="M182.729 51.4051C182.729 51.4051 190.494 48.7485 192.259 54.2175C194.024 59.6866 197.971 81.7737 197.971 81.7737C197.971 81.7737 187.722 84.1036 185.036 81.7737C183.46 80.3909 181.51 79.7759 179.574 80.0514L173.779 84.8121L172.067 84.2013C172.067 84.2013 181.339 67.5773 183.354 61.928C185.37 56.2788 186.051 53.7534 182.729 51.4051Z" fill="black"/>
<path d="M182.392 50.1837C182.392 50.1837 190.163 47.527 191.935 52.9961C193.707 58.4652 197.647 80.5522 197.647 80.5522C197.647 80.5522 187.4 82.8822 184.712 80.5522C183.137 79.1694 181.187 78.5543 179.253 78.83L173.452 83.5906L171.74 82.9799C171.74 82.9799 181.012 66.3558 183.028 60.7066C185.043 55.0573 185.714 52.538 182.392 50.1837Z" fill="#E8F5FF"/>
<path opacity="0.1" d="M130.268 138.297C130.268 138.297 136.063 140.019 137.157 143.97C138.251 147.922 132.873 148.023 132.873 148.023C132.873 148.023 129.597 141.033 130.268 138.297Z" fill="black"/>
<path opacity="0.1" d="M151.855 167.471C151.855 167.471 137.661 202.524 140.937 205.868C144.213 209.212 151.855 167.471 151.855 167.471Z" fill="black"/>
<path opacity="0.1" d="M171.427 141.64C171.427 141.64 182.767 175.689 180.498 180.947C178.23 186.205 185.37 180.947 185.37 180.947L171.427 141.64Z" fill="black"/>
<path d="M187.218 175.273C187.218 175.273 148.915 177.503 160.089 191.888C171.262 206.274 194.191 192.499 194.191 192.499L187.218 175.273Z" fill="#FFC1C7"/>
<path opacity="0.1" d="M181.676 38.5096C181.679 41.8228 181.14 45.1042 180.088 48.1652C179.736 48.2141 179.384 48.2446 179.045 48.2629C178.539 46.9224 178.81 45.3742 178.82 43.8993C178.83 42.4243 178.379 40.6899 177.202 40.2929C174.855 39.4959 173.234 44.7879 170.92 43.8321C169.148 43.1053 169.611 39.8623 168.591 37.9905C167.783 36.5094 166.165 36.0911 164.907 35.1628C162.231 33.181 162.312 30.0113 161.068 27.0126C159.767 23.8704 157.017 24.7987 154.63 26.6523C152.817 28.063 151.252 29.9532 149.313 31.077C147.634 32.0542 145.748 32.4084 143.887 32.4603C142.741 32.5138 141.595 32.3678 140.484 32.0267C141.791 26.1007 144.84 20.9504 149.064 17.5361C153.287 14.1218 158.396 12.6767 163.437 13.4702C168.479 14.2637 173.109 17.2417 176.464 21.8488C179.82 26.4559 181.671 32.3776 181.673 38.5096H181.676Z" fill="black"/>
<path d="M154.637 25.843C152.822 27.2538 151.26 29.141 149.32 30.2708C147.642 31.2449 145.755 31.5992 143.894 31.6511C141.616 31.7121 139.162 31.2297 137.605 29.2448C136.175 27.4126 135.833 24.5941 136.438 22.1909C137.043 19.7876 138.494 17.7936 140.198 16.3492C141.902 14.9049 143.879 13.9063 145.008 11.839C145.606 10.7458 145.895 9.45715 146.391 8.29371C147.978 4.57131 151.548 2.5559 154.999 2.3055C158.45 2.0551 161.871 3.29488 165.157 4.63849C168.444 5.9821 171.756 7.46006 175.224 7.73795C176.769 7.85398 178.374 7.73794 179.807 8.44334C181.734 9.38692 182.997 11.6436 183.858 13.9399C184.823 16.5294 185.423 19.3571 185.322 22.1848C185.109 28.2218 181.802 34.1459 183.256 39.9295C183.641 41.4716 184.362 43.0534 183.977 44.5955C183.415 46.846 181.007 47.3591 179.06 47.4659C178.554 46.1254 178.825 44.5741 178.835 43.1023C178.845 41.6304 178.394 39.8929 177.22 39.4959C174.87 38.705 173.25 43.9878 170.94 43.0351C169.181 42.3053 169.636 39.0653 168.614 37.1935C167.806 35.7094 166.185 35.2941 164.93 34.3658C162.253 32.384 162.334 29.2143 161.091 26.2156C159.78 23.0581 157.027 23.9864 154.637 25.843Z" fill="#99607E"/>
<path d="M117.496 142.044L115.565 142.856C115.565 142.856 116.324 156.634 113.792 160.585C111.26 164.537 122.107 174.36 122.107 174.36C122.107 174.36 136.975 174.26 137.395 172.834C137.815 171.407 136.635 147.305 136.635 147.305C136.635 147.305 128.655 143.555 129.326 137.579C129.326 137.579 126.89 151.66 123.279 151.052C119.669 150.444 115.57 146.807 117.496 142.044Z" fill="#E8F5FF"/>
<path opacity="0.1" d="M123.94 155.315C126.755 155.315 129.037 152.798 129.037 149.693C129.037 146.588 126.755 144.071 123.94 144.071C121.125 144.071 118.844 146.588 118.844 149.693C118.844 152.798 121.125 155.315 123.94 155.315Z" fill="black"/>
<path d="M129.513 142.45C129.513 142.45 128.5 105.171 119.684 113.477C110.868 121.783 110.782 131.716 112.461 134.651C114.139 137.585 119.522 152.276 119.522 152.276C120.364 152.865 121.31 153.204 122.281 153.267C123.253 153.33 124.224 153.114 125.113 152.638C126.002 152.161 126.785 151.437 127.398 150.525C128.01 149.613 128.435 148.539 128.637 147.391L129.513 142.45Z" fill="#FFC1C7"/>
<path opacity="0.1" d="M184.509 48.0217C184.468 47.8579 184.389 47.7117 184.281 47.6003C183.846 47.1209 182.909 46.9529 181.496 47.0995L181.554 47.9057C183.438 47.7102 183.81 48.1622 183.858 48.2385V48.3148L183.917 48.4156C184.151 48.7963 184.318 49.232 184.405 49.6947C184.492 50.1575 184.498 50.6371 184.423 51.1028C184.01 53.5915 181.476 55.5734 181.45 55.5947L181.39 55.6375L181.352 55.7077C180.258 57.6651 174.072 63.1892 172.454 64.6183L172.313 64.4228C171.589 65.1801 165.223 71.9012 164.879 74.4755C164.656 76.0908 163.147 76.7168 162.6 76.8909C162.023 76.3626 160.149 74.564 159.175 72.5486C158.261 70.6523 161.939 66.9513 162.263 65.5069L161.757 64.8809C161.704 65.113 156.979 70.4385 158.293 73.1593C159.347 75.3427 161.271 77.2115 161.944 77.8284C161.729 80.1858 160.39 94.028 158.331 97.3076C155.774 101.384 153.625 121.929 153.863 129.102C154.073 135.475 152.693 147.513 148.085 152.682C147.287 153.617 146.324 154.322 145.269 154.745C144.214 155.168 143.093 155.298 141.99 155.125H141.935H141.879C141.813 155.125 135.129 155.95 129.513 150.24C124.918 145.577 122.315 137.967 121.773 127.615H121.662L121.616 124.601C122.862 124.367 123.984 123.559 124.747 122.347C125.509 121.136 125.852 119.615 125.705 118.105C125.557 116.594 124.93 115.212 123.954 114.247C122.979 113.283 121.732 112.812 120.475 112.934C119.218 113.055 118.049 113.76 117.213 114.899C116.378 116.038 115.941 117.524 115.995 119.043C116.048 120.563 116.588 121.998 117.501 123.048C118.414 124.097 119.628 124.679 120.889 124.671H120.945L120.991 127.667L120.768 127.685C121.325 138.373 124.059 146.279 128.87 151.162C132.526 154.816 137.197 156.659 141.937 156.319C142.274 156.364 142.612 156.386 142.95 156.387C145.123 156.4 147.213 155.386 148.773 153.562C153.627 148.111 155.103 135.631 154.873 129.041C154.62 121.441 156.876 101.635 159.139 98.0283C161.357 94.4891 162.702 80.6988 162.937 78.0268C163.74 77.7551 165.555 76.897 165.864 74.6678C166.087 73.0555 170.338 68.0872 172.953 65.3359L172.875 65.226C174.283 63.9862 178.66 60.0775 180.83 57.5674C181.504 56.7887 182.172 56.01 182.871 55.268C183.711 54.3702 184.78 52.9442 185.061 51.2586C185.157 50.7021 185.157 50.128 185.062 49.5713C184.967 49.0147 184.779 48.4873 184.509 48.0217V48.0217Z" fill="black"/>
<path d="M161.858 77.636C161.752 77.5474 159.23 75.3702 157.967 72.7502C156.655 70.0294 161.38 64.7068 161.43 64.4748L161.937 65.1008C161.615 66.5421 157.936 70.2462 158.85 72.1394C160.002 74.5304 162.428 76.6222 162.453 76.6436L161.858 77.636Z" fill="#353146"/>
<path d="M172.125 65.2107L171.73 64.5542C171.811 64.4839 179.764 57.546 181.017 55.3016L181.058 55.2344L181.116 55.1886C181.142 55.1672 183.676 53.1885 184.089 50.6967C184.165 50.2315 184.159 49.7521 184.072 49.2898C183.985 48.8274 183.818 48.3922 183.582 48.0125L183.524 47.9087V47.8354C183.473 47.756 183.101 47.3071 181.217 47.5026L181.159 46.6934C182.575 46.5468 183.509 46.7147 183.944 47.1942C184.053 47.3067 184.133 47.4538 184.175 47.6186C184.449 48.0829 184.641 48.6099 184.739 49.1671C184.837 49.7244 184.84 50.3 184.747 50.8585C184.466 52.5472 183.4 53.9733 182.557 54.868C181.861 55.61 181.19 56.3948 180.519 57.1674C177.974 60.108 172.404 64.9694 172.125 65.2107Z" fill="#E8F5FF"/>
<path d="M121.289 123.538L120.618 123.553L120.693 128.471L121.364 128.457L121.289 123.538Z" fill="#E8F5FF"/>
<path d="M120.563 124.284C123.268 124.284 125.462 121.638 125.462 118.375C125.462 115.111 123.268 112.466 120.563 112.466C117.857 112.466 115.663 115.111 115.663 118.375C115.663 121.638 117.857 124.284 120.563 124.284Z" fill="#04AD48"/>
<path d="M120.563 123.282C122.81 123.282 124.632 121.085 124.632 118.375C124.632 115.665 122.81 113.468 120.563 113.468C118.316 113.468 116.494 115.665 116.494 118.375C116.494 121.085 118.316 123.282 120.563 123.282Z" fill="#E8F5FF"/>
<path d="M142.631 155.993C142.293 155.993 141.955 155.972 141.618 155.929C136.878 156.265 132.209 154.422 128.551 150.771C123.74 145.885 121.011 137.988 120.449 127.291L121.462 127.215C122.003 137.567 124.606 145.18 129.204 149.84C134.82 155.535 141.502 154.725 141.568 154.725H141.623H141.679C142.782 154.897 143.903 154.766 144.959 154.343C146.014 153.92 146.977 153.216 147.776 152.282C152.381 147.113 153.761 135.075 153.551 128.702C153.298 121.523 155.448 100.978 158.007 96.9045C160.248 93.3348 161.638 77.2451 161.653 77.0833L161.691 76.6252L162.066 76.5458C162.089 76.5458 164.276 76.045 164.55 74.0724C164.904 71.5012 171.259 64.7801 171.981 64.0198L172.642 64.9359C170.016 67.6841 165.765 72.6555 165.552 74.2709C165.244 76.5061 163.428 77.3612 162.628 77.6299C162.375 80.3049 161.041 94.0921 158.83 97.6313C156.567 101.238 154.311 121.044 154.564 128.644C154.782 135.234 153.321 147.717 148.467 153.165C146.904 154.994 144.808 156.009 142.631 155.993Z" fill="#353146"/>
<g opacity="0.1">
<path d="M183.833 31.2907C184.248 29.4402 184.75 27.5775 185.099 25.7026C184.681 27.5867 184.177 29.4402 183.833 31.2907Z" fill="black"/>
<path d="M179.597 45.8322C179.091 44.4917 179.362 42.9404 179.372 41.4686C179.382 39.9967 178.931 38.2744 177.756 37.8622C175.407 37.0713 173.786 42.3572 171.477 41.4014C169.705 40.6716 170.173 37.4316 169.15 35.5597C168.343 34.0757 166.725 33.6604 165.469 32.7321C162.79 30.7502 162.871 27.5806 161.631 24.5819C160.327 21.4366 157.579 22.3649 155.189 24.2215C153.374 25.6323 151.812 27.5225 149.872 28.6493C148.194 29.6234 146.307 29.9777 144.446 30.0296C142.18 30.0937 139.714 29.6082 138.157 27.6233C136.957 26.0965 136.524 23.8582 136.772 21.7603C136.729 21.9038 136.691 22.0473 136.653 22.1909C136.045 24.5941 136.4 27.4187 137.82 29.2448C139.377 31.2297 141.844 31.7121 144.11 31.6511C145.973 31.5992 147.857 31.2449 149.538 30.2708C151.483 29.141 153.045 27.2538 154.855 25.843C157.245 23.9864 159.995 23.0581 161.296 26.2034C162.537 29.202 162.458 32.3717 165.135 34.3536C166.401 35.2696 168.008 35.6972 168.819 37.1812C169.831 39.0592 169.383 42.293 171.145 43.0229C173.452 43.9756 175.072 38.6928 177.422 39.4837C178.597 39.8807 179.05 41.6212 179.037 43.09C179.025 44.5589 178.762 46.1132 179.263 47.4537C181.21 47.3468 183.618 46.843 184.182 44.5833C184.26 44.259 184.296 43.9222 184.289 43.5847C183.466 45.2978 181.349 45.7376 179.597 45.8322Z" fill="black"/>
</g>
<path opacity="0.1" d="M225.357 121.074L228.296 124.824C228.296 124.824 230.648 145.488 231.823 147.421C232.998 149.354 235.773 157.043 233.168 162.818C233.168 162.818 232.327 165.96 232.831 167.276C233.335 168.592 229.053 175.179 229.053 175.179C229.053 175.179 223.425 181.255 222.247 182.169C221.07 183.082 214.857 190.374 212.758 190.474C210.659 190.575 209.973 193.717 209.973 193.717L198.128 194.224C198.128 194.224 191.586 193.812 190.163 194.927C190.163 194.927 190.922 182.871 183.613 174.968L192.935 170.916C192.935 170.916 196.465 169.084 197.556 167.169C198.242 165.995 199.216 165.11 200.341 164.638C200.341 164.638 202.944 162.408 203.027 161.193C203.111 159.978 206.21 158.487 206.21 158.487L204.455 140.425L205.38 110.438C205.38 110.438 208.319 85.3129 214.535 86.7328C220.751 88.1528 225.357 121.074 225.357 121.074Z" fill="black"/>
<path d="M226.369 121.074L229.309 124.824C229.309 124.824 231.661 145.488 232.836 147.421C234.011 149.354 236.786 157.043 234.18 162.818C234.18 162.818 233.342 165.96 233.846 167.276C234.35 168.592 230.066 175.179 230.066 175.179C230.066 175.179 224.437 181.255 223.26 182.169C222.083 183.082 215.869 190.374 213.77 190.474C211.672 190.575 210.985 193.717 210.985 193.717L199.141 194.224C199.141 194.224 192.593 193.812 191.176 194.927C191.176 194.927 191.935 182.871 184.625 174.968L193.948 170.916C193.948 170.916 197.478 169.084 198.569 167.169C199.255 165.995 200.229 165.11 201.354 164.638C201.354 164.638 203.957 162.408 204.04 161.193C204.124 159.978 207.223 158.487 207.223 158.487L205.468 140.425L206.392 110.438C206.392 110.438 209.332 85.3129 215.548 86.7328C221.764 88.1528 226.369 121.074 226.369 121.074Z" fill="#E8F5FF"/>
<path opacity="0.1" d="M215.442 151.366C215.442 151.366 224.093 148.618 226.362 151.977C228.63 155.336 215.442 151.366 215.442 151.366Z" fill="black"/>
<path opacity="0.1" d="M213.426 155.974C216.366 158.457 225.438 158.558 225.438 158.558L213.426 155.974Z" fill="black"/>
<path opacity="0.1" d="M217.877 168.384C218.13 168.485 224.113 176.186 226.625 173.857C229.137 171.527 217.877 168.384 217.877 168.384Z" fill="black"/>
<path opacity="0.1" d="M137.301 103.751C137.301 103.751 139.058 118.341 138.193 124.284C137.327 130.226 140.486 137.588 140.486 137.588L137.301 103.751Z" fill="black"/>
<path d="M98.4007 109.684C96.3752 111.599 94.8966 116.13 93.8256 121.111C91.957 129.798 91.3468 139.872 91.3468 139.872C91.3468 139.872 75.2184 135.414 76.3932 133.39C77.1326 132.116 76.1401 122.522 75.3121 115.565C74.8184 111.455 74.3778 108.264 74.3778 108.264C74.3778 108.264 103.946 104.413 98.4007 109.684Z" fill="#FFCCD0"/>
<path opacity="0.1" d="M98.4007 109.278C96.3752 111.196 94.8966 115.724 93.8256 120.705C90.6122 121.881 87.1946 121.988 83.9353 121.012C80.6759 120.036 77.6962 118.015 75.3121 115.162C74.8184 111.049 74.3778 107.858 74.3778 107.858C74.3778 107.858 103.946 104.01 98.4007 109.278Z" fill="black"/>
<path d="M107.07 98.3642C107.072 103.675 105.515 108.816 102.677 112.877C99.8377 116.937 95.8993 119.655 91.5585 120.55C87.2176 121.445 82.7542 120.459 78.9581 117.767C75.1621 115.075 72.2781 110.849 70.8167 105.839C69.3553 100.829 69.4107 95.3564 70.9731 90.3906C72.5354 85.4248 75.504 81.2857 79.3534 78.7059C83.2028 76.126 87.6849 75.2718 92.0063 76.2943C96.3278 77.3168 100.21 80.1502 102.966 84.293C105.621 88.2836 107.069 93.2472 107.07 98.3642V98.3642Z" fill="#FFCCD0"/>
<path opacity="0.1" d="M121.775 239.003H116.458L116.01 227.677L115.542 215.954C115.542 215.954 116.75 215.737 118.674 215.414L119.451 215.288H119.514C119.935 217.667 120.35 220.11 120.75 222.55C121.416 226.881 121.762 231.276 121.786 235.681C121.786 235.986 121.786 236.291 121.786 236.578C121.801 237.394 121.786 238.209 121.775 239.003Z" fill="black"/>
<path d="M120.755 239.003H54.0743C54.363 238.212 54.5554 237.733 54.5554 237.733C54.5554 237.733 59.8902 209.584 62.6019 197.675C62.6027 197.665 62.6027 197.655 62.6019 197.644C62.9407 196.027 63.3497 194.431 63.8273 192.865C63.8582 192.759 63.898 192.657 63.9463 192.56C65.2882 189.928 66.9694 187.091 64.6173 183.039C62.2651 178.987 63.0981 161.156 63.0981 161.156C63.0981 161.156 65.9541 145.958 68.9772 137.854C69.436 136.599 70.0872 135.459 70.8965 134.495C71.1596 134.184 71.4405 133.897 71.737 133.634C71.9625 133.429 72.1975 133.241 72.4409 133.069L72.489 133.032C73.759 132.164 75.1692 131.636 76.6237 131.484C77.6568 131.354 78.6997 131.389 79.7253 131.588C84.6271 132.455 88.5516 133.906 91.6709 135.558C100.125 140.037 102.685 146.041 102.735 146.166L102.756 146.218C103.095 147.174 108.058 161.147 109.845 167.667C110.308 169.365 110.562 170.559 110.46 170.885C109.954 172.504 114.324 192.765 114.324 192.765C114.324 192.765 116.35 202.536 118.375 213.991C118.464 214.467 118.547 214.943 118.628 215.426C118.99 217.505 119.35 219.625 119.697 221.741C120.369 226.102 120.715 230.527 120.732 234.963C120.769 236.345 120.777 237.692 120.755 239.003Z" fill="#FF748E"/>
<path opacity="0.1" d="M76.2262 124.516C76.2262 124.516 71.6256 122.378 71.6813 125.621C71.7371 128.864 72.803 130.415 72.4662 130.889C72.1295 131.362 72.6334 134.199 72.6334 134.199C72.6334 134.199 78.8492 134.199 81.7052 135.75C84.5613 137.301 95.089 140.41 96.4335 141.356C97.7779 142.303 102.763 146.548 102.763 146.548L103.211 138.51C103.211 138.51 98.0589 133.377 89.6048 130.745C81.1508 128.113 76.2262 124.516 76.2262 124.516Z" fill="black"/>
<path d="M76.2262 124.109C76.2262 124.109 71.6256 121.972 71.6813 125.215C71.7371 128.458 72.803 130.009 72.4662 130.482C72.1295 130.956 72.6334 133.793 72.6334 133.793C72.6334 133.793 78.8492 133.793 81.7052 135.347C84.5613 136.901 95.089 140.007 96.4335 140.95C97.7779 141.894 102.763 146.142 102.763 146.142L103.216 138.129C103.216 138.129 98.064 132.996 89.6099 130.363C81.1558 127.731 76.2262 124.109 76.2262 124.109Z" fill="#FF748E"/>
<path opacity="0.1" d="M90.1138 143.451C90.1138 143.451 98.9046 154.93 98.4565 158.109C98.0083 161.288 90.1138 143.451 90.1138 143.451Z" fill="black"/>
<path opacity="0.1" d="M75.8337 184.917C75.8337 184.917 69.3899 192.078 67.491 192.484C65.5921 192.89 68.9469 194.24 71.1294 193.162C73.3119 192.084 77.9656 189.247 77.9656 189.247L75.8337 184.917Z" fill="black"/>
<path d="M123.373 239.003H108.346C106.245 236.804 104.257 234.768 102.991 233.543C100.966 231.583 99.5047 228.697 98.5729 226.376C98.3628 225.848 98.1805 225.353 98.026 224.904C97.7494 224.131 97.5061 223.341 97.2968 222.538L108.425 214.568C109.04 215.199 109.617 215.88 110.154 216.608L110.288 216.794C110.906 217.673 111.45 218.672 111.498 219.49C111.554 220.443 113.752 224.129 115.998 227.668C118.276 231.268 120.611 234.71 120.765 234.942C120.765 234.942 121.15 235.574 121.778 236.545C122.221 237.247 122.768 238.09 123.373 239.003Z" fill="#FFCCD0"/>
<path opacity="0.1" d="M102.966 84.2929C102.432 85.7465 101.953 87.255 101.882 88.8734C101.682 93.5455 102.006 103.992 97.7171 106.337C95.5928 107.492 93.3192 104.957 90.9898 104.896C89.3137 104.853 87.7768 106.136 86.7539 107.739C85.731 109.342 85.0955 111.244 84.3536 113.058C83.6783 114.705 82.9005 116.287 82.0268 117.791C81.7656 118.252 81.478 118.69 81.1659 119.101C78.5506 117.771 76.2217 115.737 74.3567 113.156C72.4916 110.575 71.1397 107.515 70.4039 104.208C69.6681 100.902 69.5678 97.4364 70.1106 94.0761C70.6535 90.7157 71.8252 87.5491 73.5365 84.8177C75.2478 82.0862 77.4534 79.8619 79.9854 78.3142C82.5174 76.7665 85.309 75.9363 88.1473 75.8869C90.9856 75.8375 93.7958 76.5701 96.3638 78.029C98.9318 79.4878 101.19 81.6344 102.966 84.3052V84.2929Z" fill="black"/>
<path d="M94.8947 86.5814C94.6922 91.2535 95.0188 101.7 90.7272 104.042C88.6029 105.196 86.3292 102.665 83.9998 102.604C82.3237 102.558 80.7894 103.844 79.7639 105.444C78.7385 107.044 78.1081 108.949 77.3637 110.766C76.6882 112.413 75.9103 113.995 75.0368 115.5C74.5153 116.391 73.938 117.286 73.1353 117.787C71.7377 118.666 70.0439 118.171 68.545 117.607C66.6004 116.868 64.6846 116.035 62.7975 115.109C62.8408 114.765 62.8628 114.418 62.8633 114.07C62.8076 114.199 62.7469 114.318 62.6861 114.446L62.5671 114.696C62.3519 115.154 62.1417 115.612 61.9493 116.083C61.8759 116.263 61.805 116.449 61.7417 116.635C61.487 117.329 61.3272 118.067 61.2682 118.822C61.1391 120.859 61.9721 122.792 62.7114 124.624C65.5548 131.711 67.3119 139.999 65.1724 147.435C64.2458 150.668 62.6405 153.542 61.4682 156.666C59.419 162.199 58.8158 168.353 59.7389 174.31C60.3238 178.011 61.4961 181.675 61.2075 185.428C60.7011 191.887 56.0828 196.693 51.457 199.997C48.958 201.774 45.8994 203.356 43.246 201.951C44.9373 199.57 45.3728 196.275 45.7374 193.166C46.735 184.687 47.7351 176.204 48.7377 167.717C49.1378 164.34 49.537 160.962 49.9353 157.585C50.6797 151.239 51.4342 144.824 50.9683 138.439C50.6291 133.733 49.672 128.737 51.3633 124.477C52.2571 122.221 53.8497 120.352 54.3459 117.921C54.7536 115.945 54.3738 113.844 54.6422 111.832C54.7891 110.917 55.0378 110.029 55.3815 109.194C55.8192 108.06 56.3906 107.009 57.0779 106.073C56.3993 105.835 55.7663 105.508 55.3815 104.824C56.4702 103.969 56.6348 102.042 56.1411 100.595C55.6473 99.1472 54.6599 98.0448 53.7712 96.9028C52.8825 95.7607 52.0267 94.4293 51.9153 92.872C51.7001 89.9069 54.156 87.6105 54.589 84.6851C55.027 81.7078 53.2952 78.813 53.4344 75.799C53.5965 72.156 56.3715 69.5085 59.111 67.9725C63.2451 65.6644 67.8119 64.7162 72.3479 65.2242C76.0395 65.6456 79.612 67.0228 83.2934 67.5572C85.5139 67.8626 87.7648 67.8931 89.9701 68.3634C92.1754 68.8336 94.3858 69.8261 95.9379 71.7773C100.029 76.9227 95.1277 81.1582 94.8947 86.5814Z" fill="#FFE0D0"/>
<path opacity="0.1" d="M98.1222 226.379C96.8309 225.704 94.4813 226.107 90.448 224.626C86.4146 223.145 85.6373 216.452 85.6373 216.452V216.43C85.5892 216.278 85.2145 215.282 82.6775 211.795C79.8746 207.944 73.8157 188.496 73.8157 188.496C73.8157 188.496 68.443 181.536 68.6126 178.971C68.7823 176.406 67.6581 169.581 67.7695 161.947C67.8809 154.313 79.8645 149.25 79.8645 149.25C102.938 144.319 97.5044 176.4 96.8892 178.831C96.2739 181.262 99.4667 187.827 99.4667 187.827C99.016 190.685 101.315 195.11 101.315 195.11C101.315 195.11 101.872 199.025 101.986 200.512C101.992 200.58 102.005 200.648 102.024 200.713C102.394 202.115 105.407 203.385 106.632 204.158C107.921 204.97 112.066 212.061 112.066 212.061C112.959 217.267 99.4084 227.063 98.1222 226.379Z" fill="black"/>
<path d="M98.7932 225.158C97.5044 224.48 95.1523 224.886 91.1214 223.402C87.0906 221.918 86.3108 215.23 86.3108 215.23V215.209C86.2652 215.053 85.888 214.061 83.351 210.574C80.5481 206.723 74.4892 187.271 74.4892 187.271C74.4892 187.271 69.1165 180.315 69.2836 177.75C69.4507 175.185 68.3316 168.36 68.443 160.732C68.5544 153.104 80.5304 148.044 80.5304 148.044C103.604 143.112 98.1703 175.194 97.5551 177.625C96.9398 180.055 100.133 186.621 100.133 186.621C99.6819 189.479 101.981 193.904 101.981 193.904C101.981 193.904 102.538 197.818 102.654 199.306C102.659 199.374 102.671 199.442 102.69 199.507C103.059 200.909 106.072 202.179 107.3 202.952C108.587 203.761 112.734 210.855 112.734 210.855C113.633 216.052 100.082 225.848 98.7932 225.158Z" fill="#FF748E"/>
<path opacity="0.1" d="M80.9861 164.793C80.9861 164.793 91.0657 177.619 93.6964 177.619C96.3271 177.619 80.9861 164.793 80.9861 164.793Z" fill="black"/>
<path d="M98.7932 225.158C97.5044 224.48 95.1523 224.886 91.1214 223.402C87.0906 221.918 86.3108 215.23 86.3108 215.23V215.209C88.982 213.071 95.7473 207.034 98.4134 204.827C100.29 203.278 101.821 201.003 102.718 199.495C103.087 200.897 106.1 202.167 107.328 202.939C108.615 203.749 112.762 210.842 112.762 210.842C113.633 216.052 100.082 225.848 98.7932 225.158Z" fill="#FF748E"/>
<g opacity="0.1">
<path d="M62.0474 106.325C62.06 106.349 62.0777 106.371 62.0929 106.395C62.1689 106.279 62.2474 106.163 62.3284 106.053C62.2421 106.154 62.148 106.245 62.0474 106.325V106.325Z" fill="black"/>
<path d="M67.9214 120.323C68.0278 118.628 68.7797 117.135 69.4836 115.645C69.0228 115.431 68.562 115.214 68.1062 114.988C68.1496 114.646 68.1717 114.3 68.1721 113.953C67.4606 115.48 66.6858 116.982 66.577 118.701C66.4478 120.741 67.2808 122.671 68.0202 124.503C70.866 131.588 72.6207 139.875 70.4812 147.314C69.552 150.545 67.9493 153.421 66.777 156.545C64.7285 162.077 64.1261 168.231 65.0502 174.186C65.63 177.89 66.8048 181.552 66.5162 185.305C66.0098 191.763 61.3941 196.57 56.7658 199.871C54.8744 201.22 52.664 202.457 50.5499 202.368C50.3542 202.748 50.1359 203.111 49.8966 203.452C52.5526 204.866 55.6087 203.275 58.1077 201.492C62.7386 198.194 67.3644 193.4 67.8708 186.929C68.1594 183.176 66.9846 179.515 66.4023 175.811C65.4779 169.856 66.0784 163.703 68.124 158.17C69.2887 155.049 70.9091 152.169 71.8282 148.939C73.9677 141.5 72.2105 133.212 69.3671 126.128C68.6304 124.284 67.7923 122.363 67.9214 120.323Z" fill="black"/>
<path d="M102.583 73.2815C102.334 72.9733 102.067 72.6875 101.783 72.4265C104.852 77.2268 100.421 81.3065 100.201 86.4732C100.003 91.1453 100.328 101.595 96.0359 103.934C93.9142 105.091 91.638 102.557 89.3111 102.496C87.6325 102.453 86.0981 103.739 85.0727 105.339C84.0473 106.939 83.4168 108.844 82.675 110.658C81.9982 112.304 81.2195 113.886 80.3456 115.391C79.8392 116.286 79.2467 117.178 78.4416 117.682C77.049 118.558 75.3552 118.066 73.8537 117.498C72.3937 116.945 70.9471 116.334 69.514 115.666C69.5111 115.984 69.4891 116.302 69.4482 116.616C71.337 117.544 73.2537 118.377 75.1982 119.114C76.6971 119.682 78.3909 120.173 79.786 119.297C80.5886 118.793 81.171 117.898 81.69 117.004C82.5646 115.501 83.3425 113.92 84.0169 112.274C84.7613 110.46 85.3892 108.551 86.4171 106.951C87.4451 105.351 88.9769 104.068 90.6531 104.111C92.9824 104.172 95.2586 106.707 97.3804 105.549C101.672 103.21 101.345 92.7607 101.545 88.0886C101.778 82.6562 106.68 78.4238 102.583 73.2815Z" fill="black"/>
</g>
<path opacity="0.1" d="M69.2203 116.167C69.0051 116.625 68.7949 117.083 68.6025 117.553C68.5291 117.733 68.4582 117.92 68.3949 118.106C67.0682 116.494 63.8374 112.661 62.0347 111.473C62.473 110.34 63.0443 109.289 63.7311 108.353C63.7311 108.353 68.0278 111.092 69.2203 116.167Z" fill="black"/>
<path d="M69.3393 115.917C68.3442 110.484 63.7311 107.543 63.7311 107.543C63.0438 108.48 62.4724 109.531 62.0347 110.664C63.9362 111.919 67.4404 116.127 68.6025 117.553L69.3393 115.917Z" fill="#FF748E"/>
</g>
<defs>
<linearGradient id="paint0_linear_21_106" x1="184.838" y1="29.1349" x2="184.838" y2="23.5223" gradientUnits="userSpaceOnUse">
<stop stop-color="#808080" stop-opacity="0.25"/>
<stop offset="0.54" stop-color="#808080" stop-opacity="0.12"/>
<stop offset="1" stop-color="#808080" stop-opacity="0.1"/>
</linearGradient>
<linearGradient id="paint1_linear_21_106" x1="142.504" y1="239.003" x2="142.504" y2="7.59979e-05" gradientUnits="userSpaceOnUse">
<stop stop-color="#808080" stop-opacity="0.25"/>
<stop offset="0.54" stop-color="#808080" stop-opacity="0.12"/>
<stop offset="1" stop-color="#808080" stop-opacity="0.1"/>
</linearGradient>
<clipPath id="clip0_21_106">
<rect width="275" height="239" fill="white"/>
</clipPath>
</defs>
</svg>
