<svg width="315" height="232" viewBox="0 0 315 232" fill="none" xmlns="http://www.w3.org/2000/svg">
<g clip-path="url(#clip0_1_15)">
<path opacity="0.1" d="M20.6167 90.9319H47.9942V128.125H22.6185C22.5538 128.509 22.489 128.891 22.4162 129.275H47.9942V159.265C47.951 159.265 47.9079 159.233 47.8674 159.217C47.148 158.932 46.4286 158.63 45.7091 158.311C45.5554 158.241 45.4043 158.168 45.2478 158.101C44.5284 157.762 43.809 157.404 43.0896 157.026C42.8387 156.894 42.5878 156.757 42.3423 156.617C38.3483 154.396 34.7183 151.58 31.578 148.266C31.4835 148.177 31.3972 148.08 31.3082 147.997C30.8711 147.524 30.4422 147.045 30.0267 146.556C29.8702 146.376 29.7192 146.193 29.5654 146.018C29.0744 145.421 28.5996 144.803 28.1409 144.182C28.0708 144.088 28.0061 143.996 27.9386 143.913C26.0598 141.322 24.5018 138.514 23.2984 135.551C23.2606 135.462 23.2255 135.365 23.1904 135.282C22.8181 134.341 22.4809 133.386 22.1896 132.413C22.0655 132.007 21.9441 131.607 21.8415 131.184C21.8038 131.063 21.7741 130.94 21.7417 130.819C20.2255 124.863 20.0502 118.674 20.0502 112.514C20.0502 111.797 20.0502 111.08 20.0502 110.363C20.0718 107.848 20.1014 105.336 20.1392 102.827C20.1536 102.181 20.1671 101.533 20.1797 100.883C20.2175 99.2355 20.2714 97.5846 20.3416 95.9302C20.3577 95.4731 20.3793 95.0133 20.4036 94.5589C20.4144 94.2954 20.4279 94.032 20.4441 93.7685C20.4926 92.8167 20.5502 91.8711 20.6167 90.9319Z" fill="#04AD48"/>
<path opacity="0.1" d="M47.9942 49.5205H32.9754C35.4179 45.7146 38.0854 42.0569 40.9637 38.5667C43.1975 35.835 45.55 33.1732 47.9942 30.6082V49.5205Z" fill="#04AD48"/>
<path opacity="0.1" d="M47.9942 50.6659V89.7811H20.7031C20.7031 89.6682 20.7193 89.5526 20.73 89.4397C20.7543 89.1305 20.7786 88.8239 20.8056 88.5147C20.8326 88.1545 20.8676 87.7942 20.9027 87.4393C20.9378 87.0844 20.9728 86.6542 21.016 86.2643C21.0592 85.8744 21.0942 85.4792 21.1374 85.0893C21.1806 84.6995 21.2237 84.3096 21.2723 83.9224C21.3209 83.5353 21.364 83.1427 21.418 82.7556C21.4585 82.4356 21.4989 82.113 21.5448 81.7903C21.6068 81.3359 21.6716 80.8815 21.739 80.4298C21.739 80.3599 21.7606 80.2927 21.7714 80.2255C22.2645 76.9191 22.9345 73.6414 23.7786 70.4063C24.665 67.0133 25.7965 63.6885 27.1643 60.4581C28.6178 57.0734 30.3202 53.8004 32.2578 50.6659H47.9942Z" fill="#04AD48"/>
<path opacity="0.1" d="M54.5337 90.9319V128.125H113.012V90.9319H54.5337ZM54.5337 129.275V161.217C54.8682 161.284 55.1974 161.352 55.5292 161.408C55.9743 161.494 56.4222 161.572 56.8781 161.639L57.1479 161.677C57.3259 161.707 57.5067 161.731 57.6875 161.752C58.138 161.817 58.5885 161.865 59.0364 161.908C59.2468 161.93 59.4653 161.946 59.6784 161.965L60.1991 162.002C60.4824 162.024 60.763 162.04 61.0435 162.051C61.2162 162.051 61.3889 162.064 61.5642 162.07C61.7396 162.075 61.834 162.07 61.9743 162.07H62.4842C62.7162 162.07 62.9482 162.07 63.1775 162.07H63.4743C63.7063 162.07 63.9383 162.07 64.1676 162.048H64.1811C64.343 162.048 64.5021 162.048 64.664 162.029C64.7098 162.032 64.7558 162.032 64.8016 162.029C64.9365 162.029 65.0714 162.029 65.2009 162.013C65.2314 162.011 65.2621 162.011 65.2926 162.013C65.5921 161.994 65.8942 161.97 66.1991 161.943C66.5039 161.916 66.7926 161.884 67.0975 161.852L67.7099 161.777C70.2123 161.427 72.687 160.903 75.1154 160.206C80.5731 158.69 85.9066 156.568 91.3616 155.017C98.4083 153.014 106.2 152.027 113.009 154.466V129.275H54.5337ZM113.012 49.5205V0.00538674C106.61 -0.0648077 100.226 0.680623 94.0136 2.22357C79.2053 5.93129 65.9077 13.9732 54.5337 24.244V49.5178H57.477V50.6659H54.5337V89.7811H113.012V50.6659H69.5174V49.5151L113.012 49.5205ZM188.14 32.7941C184.477 32.665 180.835 31.5116 177.538 29.7236C171.241 26.3116 166.207 21.0364 160.585 16.5893C148.903 7.32134 134.416 1.72616 119.554 0.338786V49.5205H203.027L203.235 49.3027L188.14 32.7941ZM195.746 31.4498L203.809 40.2714V29.1294C201.095 29.4709 198.732 30.264 195.746 31.439V31.4498ZM203.809 169.149V129.275H186.614C186.57 129.106 186.522 128.934 186.468 128.762C186.519 128.934 186.565 129.106 186.611 129.275H119.554V158.109C120.191 158.58 120.819 159.077 121.442 159.577C122.115 160.126 122.783 160.68 123.447 161.241L124.116 161.793C124.437 162.061 124.763 162.33 125.087 162.586C125.736 163.107 126.39 163.624 127.048 164.134C127.378 164.393 127.708 164.646 128.041 164.895C133.311 168.909 138.869 172.531 144.671 175.734C145.971 176.457 147.285 177.153 148.607 177.833C149.486 178.285 150.372 178.728 151.264 179.162C152.602 179.812 153.951 180.44 155.311 181.044C167.846 186.652 181.102 190.499 194.699 192.476C197.717 192.919 200.748 193.268 203.793 193.525V169.144H204.063L203.809 169.149ZM119.554 50.6659V89.7811H203.809V50.6659H119.554ZM119.554 90.9265V128.125H203.809V90.9319L119.554 90.9265ZM210.349 29.0756V41.5243L220.638 30.2667C217.228 29.7057 213.799 29.3087 210.349 29.0756ZM210.349 90.9319V128.125H292.295V90.9319H210.349ZM292.007 172.098L292.295 129.275H210.349V193.958C215.627 194.176 220.914 194.113 226.185 193.767H226.277C228.795 193.605 231.301 193.376 233.796 193.078H233.852C247.165 191.534 260.181 188.069 272.493 182.791M308.104 97.0406C307.793 96.3236 307.474 95.6067 307.147 94.8897C306.537 93.5453 305.895 92.2386 305.231 90.9346H298.837V128.125H315C314.987 117.59 312.31 106.836 308.104 97.0406ZM298.837 129.275V166.111C303.389 161.763 307.238 156.786 310.006 151.097C313.338 144.243 314.862 136.828 314.989 129.273L298.837 129.275ZM298.837 80.0938V89.7731H304.632C302.876 86.4457 300.941 83.2146 298.837 80.0938ZM243.262 36.3755C242.836 36.2114 242.407 36.0474 241.978 35.8915C237.455 34.2256 232.833 32.8409 228.138 31.7455L212.388 48.9693L212.081 49.3L212.283 49.5178H268.339C260.531 44.1636 252.113 39.7519 243.262 36.3755ZM269.984 50.6659H211.498L210.349 51.7118V89.7811H220.425H292.295V71.3366C285.797 63.5043 278.296 56.5548 269.984 50.6659Z" fill="#04AD48"/>
<path opacity="0.1" d="M47.9942 70.3983V89.7811H20.7031C20.7031 89.6682 20.7193 89.5526 20.73 89.4397C20.7543 89.1305 20.7786 88.8239 20.8056 88.5147C20.8326 88.1545 20.8676 87.7942 20.9027 87.4393C20.9378 87.0844 20.9728 86.6542 21.016 86.2643C21.0592 85.8744 21.0942 85.4792 21.1374 85.0893C21.1806 84.6995 21.2237 84.3096 21.2723 83.9225C21.3209 83.5353 21.364 83.1427 21.418 82.7556C21.4585 82.4356 21.4989 82.113 21.5448 81.7903C21.6068 81.3359 21.6716 80.8815 21.739 80.4298C21.739 80.3599 21.7606 80.2927 21.7714 80.2255C22.2645 76.9191 22.9345 73.6414 23.7786 70.4064L47.9942 70.3983Z" fill="#04AD48"/>
<path opacity="0.1" d="M20.6167 90.9319H47.9942V128.125H22.6185C22.5538 128.509 22.489 128.891 22.4162 129.275H47.9942V159.265C47.951 159.265 47.9079 159.233 47.8674 159.217C47.148 158.932 46.4286 158.63 45.7091 158.311C45.5554 158.241 45.4043 158.168 45.2478 158.101C44.5284 157.762 43.809 157.404 43.0896 157.026C42.8387 156.894 42.5878 156.757 42.3423 156.617C38.3483 154.396 34.7183 151.58 31.578 148.266C31.4835 148.177 31.3972 148.08 31.3082 147.997C30.8711 147.524 30.4422 147.045 30.0267 146.556C29.8702 146.376 29.7192 146.193 29.5654 146.018C29.0744 145.421 28.5996 144.803 28.1409 144.182C28.0708 144.088 28.0061 143.996 27.9386 143.913C26.0598 141.322 24.5018 138.514 23.2984 135.551C23.2606 135.462 23.2255 135.365 23.1904 135.282C22.8181 134.341 22.4809 133.386 22.1896 132.413C22.0655 132.007 21.9441 131.607 21.8415 131.184C21.8038 131.063 21.7741 130.94 21.7417 130.819C20.2255 124.863 20.0502 118.674 20.0502 112.514C20.0502 111.797 20.0502 111.08 20.0502 110.363C20.0718 107.848 20.1014 105.336 20.1392 102.827C20.1536 102.181 20.1671 101.533 20.1797 100.883C20.2175 99.2355 20.2714 97.5846 20.3416 95.9302C20.3577 95.4731 20.3793 95.0133 20.4036 94.5589C20.4144 94.2954 20.4279 94.032 20.4441 93.7685C20.4926 92.8167 20.5502 91.8711 20.6167 90.9319Z" fill="#04AD48"/>
<path opacity="0.1" d="M75.1181 56.2691V89.7811H54.531V56.2691H57.4662V44.9228H69.5147V56.2691H75.1181Z" fill="#04AD48"/>
<path opacity="0.1" d="M75.1154 90.9292H54.531V128.122H75.1154V90.9292Z" fill="#04AD48"/>
<path opacity="0.1" d="M54.5337 129.275H75.1181V160.196C72.6899 160.892 70.2152 161.416 67.7126 161.763C67.5075 161.793 67.3052 161.817 67.1002 161.838C66.798 161.873 66.4985 161.906 66.1991 161.932L65.2953 162.005H65.2036L64.8043 162.027H64.6667C64.5048 162.027 64.3457 162.045 64.1838 162.048H64.1703C63.9383 162.048 63.709 162.064 63.477 162.07H63.1802C62.9509 162.07 62.7216 162.07 62.4869 162.07H61.9797H61.5669C61.3916 162.07 61.2189 162.07 61.0435 162.048C60.7666 162.037 60.486 162.021 60.2018 162L59.6811 161.962C59.4653 161.946 59.2495 161.924 59.0364 161.903C58.5831 161.863 58.1335 161.812 57.6875 161.75L57.1479 161.674L56.8781 161.637C56.4276 161.569 55.9797 161.494 55.5292 161.408C55.1947 161.349 54.8655 161.282 54.5337 161.212V129.275Z" fill="#04AD48"/>
<path opacity="0.1" d="M203.807 52.3114H186.832V89.7784H203.807V52.3114Z" fill="#04AD48"/>
<path opacity="0.1" d="M203.809 90.9292V128.125H119.554V112.081H164.432V121.545H186.832V90.9292H203.809Z" fill="#04AD48"/>
<path opacity="0.1" d="M204.076 169.157C203.987 169.157 203.898 169.157 203.807 169.141V193.541C200.765 193.292 197.735 192.943 194.715 192.495C181.114 190.519 167.853 186.673 155.311 181.068C151.69 179.44 148.144 177.667 144.671 175.747C138.87 172.543 133.313 168.921 128.044 164.909C126.717 163.898 125.409 162.865 124.121 161.809C123.228 161.072 122.343 160.319 121.442 159.591C120.822 159.088 120.193 158.59 119.554 158.117V129.275H186.611C186.562 129.103 186.519 128.934 186.471 128.762C186.522 128.934 186.57 129.103 186.614 129.275H203.809V169.138C203.898 169.141 203.987 169.149 204.076 169.157Z" fill="#04AD48"/>
<path opacity="0.1" d="M248.081 49.5205H237.02V46.0951H241.975V35.8915C242.405 36.0492 242.833 36.2105 243.26 36.3754V46.0951H248.078L248.081 49.5205Z" fill="#04AD48"/>
<path opacity="0.1" d="M274.732 89.7811H220.425C220.431 89.7824 220.436 89.7824 220.441 89.7811H220.417H210.349V52.3141H213.203V80.0077H226.244V63.6066H237.022V50.6659H248.083V63.6147H258.856V80.0158H274.735L274.732 89.7811Z" fill="#04AD48"/>
<path opacity="0.1" d="M210.349 90.9319V128.125H274.735V90.9319H210.349ZM292.203 171.902L292.295 142.461H274.735V129.286H210.349V193.958C215.627 194.176 220.914 194.113 226.185 193.767H226.277C228.795 193.605 231.301 193.376 233.796 193.078H233.852C247.165 191.534 260.181 188.069 272.493 182.791" fill="#04AD48"/>
<path opacity="0.1" d="M299.97 129.275H314.989C314.86 136.828 313.338 144.246 310.006 151.097C307.238 156.789 303.389 161.766 298.837 166.113V142.453H299.97V129.275Z" fill="#04AD48"/>
<path opacity="0.1" d="M315 128.125H299.97V97.0406H308.104C312.31 106.836 314.987 117.59 315 128.125Z" fill="#04AD48"/>
<path opacity="0.1" d="M203.809 62.7274H194.715V74.4744H203.809V62.7274Z" fill="#04AD48"/>
<path opacity="0.1" d="M203.809 87.0763H194.715V89.7811H203.809V87.0763Z" fill="#04AD48"/>
<path opacity="0.1" d="M203.809 90.9292H194.715V98.8205H203.809V90.9292Z" fill="#04AD48"/>
<path opacity="0.1" d="M203.809 111.425H194.715V123.172H203.809V111.425Z" fill="#04AD48"/>
<path opacity="0.1" d="M203.809 135.774H194.715V147.521H203.809V135.774Z" fill="#04AD48"/>
<path opacity="0.1" d="M203.809 169.138C203.898 169.138 203.987 169.138 204.079 169.157C203.99 169.157 203.901 169.157 203.809 169.141V171.87H194.715V160.123H203.809V169.138Z" fill="#04AD48"/>
<path opacity="0.1" d="M203.809 184.469V193.541C200.766 193.292 197.735 192.943 194.715 192.495V184.469H203.809Z" fill="#04AD48"/>
<path opacity="0.1" d="M158.529 127.262H119.554V128.125H158.529V127.262Z" fill="#04AD48"/>
<path opacity="0.1" d="M158.529 129.273H119.554V132.58H158.529V129.273Z" fill="#04AD48"/>
<path opacity="0.1" d="M158.529 143.421H119.554V148.739H158.529V143.421Z" fill="#04AD48"/>
<path opacity="0.1" d="M158.529 159.58V164.898H128.044C126.717 163.891 125.409 162.856 124.121 161.795C123.226 161.061 122.341 160.308 121.442 159.58H158.529Z" fill="#04AD48"/>
<path opacity="0.1" d="M158.529 175.736V181.068H155.311C151.69 179.44 148.144 177.667 144.671 175.747L158.529 175.736Z" fill="#04AD48"/>
<path opacity="0.1" d="M233.858 94.5348H226.185V102.181H233.858V94.5348Z" fill="#04AD48"/>
<path opacity="0.1" d="M67.7314 58.9068H60.0588V66.5534H67.7314V58.9068Z" fill="#04AD48"/>
<path opacity="0.1" d="M67.7314 76.6683H60.0588V84.315H67.7314V76.6683Z" fill="#04AD48"/>
<path opacity="0.1" d="M67.7314 94.4299H60.0588V102.077H67.7314V94.4299Z" fill="#04AD48"/>
<path opacity="0.1" d="M67.7314 112.189H60.0588V119.835H67.7314V112.189Z" fill="#04AD48"/>
<path opacity="0.1" d="M67.7314 129.95H60.0588V137.597H67.7314V129.95Z" fill="#04AD48"/>
<path opacity="0.1" d="M67.7314 147.712H60.0588V155.359H67.7314V147.712Z" fill="#04AD48"/>
<path opacity="0.1" d="M263.148 94.5348H255.475V102.181H263.148V94.5348Z" fill="#04AD48"/>
<path opacity="0.1" d="M233.858 113.396H226.185V121.043H233.858V113.396Z" fill="#04AD48"/>
<path opacity="0.1" d="M263.148 113.396H255.475V121.043H263.148V113.396Z" fill="#04AD48"/>
<path opacity="0.1" d="M233.858 132.255H226.185V139.901H233.858V132.255Z" fill="#04AD48"/>
<path opacity="0.1" d="M263.148 132.255H255.475V139.901H263.148V132.255Z" fill="#04AD48"/>
<path opacity="0.1" d="M233.858 151.116H226.185V158.762H233.858V151.116Z" fill="#04AD48"/>
<path opacity="0.1" d="M263.148 151.116H255.475V158.762H263.148V151.116Z" fill="#04AD48"/>
<path opacity="0.1" d="M233.858 169.977H226.185V177.624H233.858V169.977Z" fill="#04AD48"/>
<path opacity="0.1" d="M263.148 169.977H255.475V177.624H263.148V169.977Z" fill="#04AD48"/>
<path opacity="0.1" d="M226.185 193.767V188.836H233.855V193.065L226.185 193.767Z" fill="#04AD48"/>
<path opacity="0.1" d="M21.739 80.2174V84.5919H47.9942V80.2174H21.739ZM24.3532 84.3177H22.195V80.4943H24.3532V84.3177ZM26.9674 84.3177H24.8091V80.4943H26.9674V84.3177ZM29.5762 84.3177H27.4179V80.4943H29.5762V84.3177ZM32.1904 84.3177H30.0321V80.4943H32.1904V84.3177ZM34.8019 84.3177H32.6436V80.4943H34.8019V84.3177ZM37.4161 84.3177H35.2578V80.4943H37.4161V84.3177ZM40.0302 84.3177H37.872V80.4943H40.0302V84.3177ZM42.6417 84.3177H40.4835V80.4943H42.6417V84.3177ZM45.2532 84.3177H43.095V80.4943H45.2532V84.3177ZM47.8674 84.3177H45.7091V80.4943H47.8674V84.3177Z" fill="#04AD48"/>
<path opacity="0.1" d="M21.739 92.9511V97.3256H47.9942V92.9511H21.739ZM24.3532 97.0514H22.195V93.228H24.3532V97.0514ZM26.9674 97.0514H24.8091V93.228H26.9674V97.0514ZM29.5762 97.0514H27.4179V93.228H29.5762V97.0514ZM32.1904 97.0514H30.0321V93.228H32.1904V97.0514ZM34.8019 97.0514H32.6436V93.228H34.8019V97.0514ZM37.4161 97.0514H35.2578V93.228H37.4161V97.0514ZM40.0302 97.0514H37.872V93.228H40.0302V97.0514ZM42.6417 97.0514H40.4835V93.228H42.6417V97.0514ZM45.2532 97.0514H43.095V93.228H45.2532V97.0514ZM47.8674 97.0514H45.7091V93.228H47.8674V97.0514Z" fill="#04AD48"/>
<path opacity="0.1" d="M21.739 105.687V110.059H47.9942V105.687H21.739ZM24.3532 109.782H22.195V105.959H24.3532V109.782ZM26.9674 109.782H24.8091V105.959H26.9674V109.782ZM29.5762 109.782H27.4179V105.959H29.5762V109.782ZM32.1904 109.782H30.0321V105.959H32.1904V109.782ZM34.8019 109.782H32.6436V105.959H34.8019V109.782ZM37.4161 109.782H35.2578V105.959H37.4161V109.782ZM40.0302 109.782H37.872V105.959H40.0302V109.782ZM42.6417 109.782H40.4835V105.959H42.6417V109.782ZM45.2532 109.782H43.095V105.959H45.2532V109.782ZM47.8674 109.782H45.7091V105.959H47.8674V109.782Z" fill="#04AD48"/>
<path opacity="0.1" d="M21.739 118.421V122.793H47.9942V118.421H21.739ZM24.3532 122.519H22.195V118.69H24.3532V122.519ZM26.9674 122.519H24.8091V118.69H26.9674V122.519ZM29.5762 122.519H27.4179V118.69H29.5762V122.519ZM32.1904 122.519H30.0321V118.69H32.1904V122.519ZM34.8019 122.519H32.6436V118.69H34.8019V122.519ZM37.4161 122.519H35.2578V118.69H37.4161V122.519ZM40.0302 122.519H37.872V118.69H40.0302V122.519ZM42.6417 122.519H40.4835V118.69H42.6417V122.519ZM45.2532 122.519H43.095V118.69H45.2532V122.519ZM47.8674 122.519H45.7091V118.69H47.8674V122.519Z" fill="#04AD48"/>
<path opacity="0.1" d="M21.8658 131.149C21.9683 131.564 22.0897 131.972 22.2138 132.378V131.426H24.3721V135.247H23.2147C23.2471 135.338 23.2822 135.433 23.3199 135.516H48.005V131.149H21.8658ZM26.9917 135.247H24.8334V131.426H26.9917V135.247ZM29.6005 135.247H27.4422V131.426H29.6005V135.247ZM32.2146 135.247H30.0564V131.426H32.2146V135.247ZM34.8261 135.247H32.6679V131.426H34.8261V135.247ZM37.4403 135.247H35.2821V131.426H37.4403V135.247ZM40.0545 135.247H37.8963V131.426H40.0545V135.247ZM42.666 135.247H40.5077V131.426H42.666V135.247ZM45.2775 135.247H43.1192V131.426H45.2775V135.247ZM47.8917 135.247H45.7334V131.426H47.8917V135.247Z" fill="#04AD48"/>
<path opacity="0.1" d="M27.9467 143.883C28.0168 143.969 28.0816 144.066 28.149 144.152H29.5762V145.988L30.0375 146.526V144.141H32.1958V147.997H31.3082C31.3945 148.086 31.4781 148.18 31.578 148.266H47.9888V143.883H27.9467ZM34.8153 147.997H32.6571V144.157H34.8153V147.997ZM37.4295 147.997H35.2713V144.157H37.4295V147.997ZM40.0437 147.997H37.8855V144.157H40.0437V147.997ZM42.6552 147.997H40.497V144.157H42.6552V147.997ZM45.2667 147.997H43.1084V144.157H45.2667V147.997ZM47.8809 147.997H45.7226V144.157H47.8809V147.997Z" fill="#04AD48"/>
<path opacity="0.1" d="M42.3504 156.617C42.5986 156.757 42.8495 156.886 43.1004 157.023V156.888H45.2586V158.101C45.4151 158.168 45.5635 158.241 45.7172 158.311V156.888H47.8755V159.217C47.9165 159.235 47.9589 159.251 48.0023 159.263V156.617H42.3504Z" fill="#04AD48"/>
<path opacity="0.1" d="M203.807 169.138H204.076H203.807ZM186.468 128.762C186.519 128.934 186.565 129.106 186.611 129.275C186.57 129.106 186.522 128.934 186.468 128.762ZM57.477 49.5205V50.6659H69.5282V49.5151L57.477 49.5205ZM203.809 169.138H204.079H203.809ZM186.468 128.762C186.519 128.934 186.565 129.106 186.611 129.275C186.57 129.106 186.522 128.934 186.468 128.762ZM203.807 169.138H204.076H203.807ZM186.468 128.762C186.519 128.934 186.565 129.106 186.611 129.275C186.57 129.106 186.522 128.934 186.468 128.762Z" fill="#04AD48"/>
<path opacity="0.1" d="M237.254 232C251.772 232 263.542 230.116 263.542 227.792C263.542 225.468 251.772 223.584 237.254 223.584C222.736 223.584 210.967 225.468 210.967 227.792C210.967 230.116 222.736 232 237.254 232Z" fill="#04AD48"/>
<path opacity="0.1" d="M118.696 227.792C133.214 227.792 144.983 225.908 144.983 223.584C144.983 221.26 133.214 219.377 118.696 219.377C104.178 219.377 92.4084 221.26 92.4084 223.584C92.4084 225.908 104.178 227.792 118.696 227.792Z" fill="#04AD48"/>
<path d="M148.96 112.321C148.954 112.294 148.94 112.27 148.92 112.251C148.518 111.855 143.392 104.631 143.392 104.631C143.392 104.631 143.122 103.824 142.685 102.776C142.825 102.595 142.93 102.39 142.995 102.171C143.019 102.078 143.036 101.984 143.046 101.888C143.046 101.859 143.068 101.835 143.076 101.805C143.17 101.44 143.16 101.057 143.049 100.697C143.019 100.79 142.982 100.879 142.939 100.966C142.837 100.653 142.701 100.352 142.534 100.068C141.854 98.9012 140.883 97.9171 140.168 96.7798C139.085 95.0127 138.655 92.9247 138.951 90.8754C138.951 90.9803 138.951 91.0878 138.951 91.1927C138.978 90.7863 139.032 90.3821 139.113 89.9828C139.226 89.5283 139.376 89.084 139.564 88.6546C140.206 87.1892 141.244 85.9121 141.876 84.4414C142.087 83.9453 142.248 83.4291 142.356 82.9007C142.578 82.0183 142.659 81.1063 142.596 80.1986C142.596 80.4137 142.561 80.6288 142.528 80.8412C142.46 78.6588 141.576 76.5807 140.049 75.0148C137.845 72.8074 134.681 71.9497 131.654 71.498C130.382 71.35 129.167 70.888 128.119 70.1536C126.957 69.4035 125.454 69.2233 124.094 69.3873C122.531 69.5557 121.079 70.2712 119.996 71.4065C118.558 72.9821 117.935 75.2137 116.257 76.542C115.24 77.3486 113.95 77.725 112.766 78.2735C111.582 78.822 110.462 79.6178 110.082 80.7955C110.082 80.7955 110.082 80.7794 110.082 80.7713V80.8385L110.066 80.8815C109.672 82.2743 110.433 83.6912 110.829 85.0813C111.242 86.5197 111.269 88.0388 111.29 89.5257C111.32 91.3433 111.347 93.1635 111.317 94.9838C111.304 95.699 111.28 96.4222 111.226 97.1347C110.587 97.3271 109.967 97.5755 109.372 97.8768C108.768 98.2694 106.507 100.703 106.507 100.703L102.085 117.539L102.145 117.607L102.085 117.835L102.309 117.784C102.935 118.456 104.805 120.37 106.823 121.564L107.012 124.866C107.012 124.866 107.238 128.178 110.295 129.547C110.365 130.695 110.584 135.357 109.572 137.204C108.871 138.554 108.542 140.064 108.617 141.582C108.617 141.582 108.97 144.383 108.568 145.857C108.333 146.841 108.316 147.865 108.517 148.857C108.517 148.857 108.517 149.183 108.517 149.742C108.517 152.724 108.552 162.279 108.517 163.36C108.466 164.637 108.517 183.525 108.517 183.525C108.517 183.525 108.266 192.965 107.462 195.522C106.658 198.079 106.861 206.546 106.861 206.546C106.861 206.546 106.356 216.631 108.139 218.621C108.139 218.71 108.123 218.801 108.12 218.89C108.12 218.93 108.12 218.976 108.12 219.016C108.099 219.783 108.247 220.597 108.908 220.847C110.257 221.364 112.04 222.912 112.378 223.356C112.715 223.799 114.676 224.905 117.234 224.609C118.836 224.429 120.448 224.356 122.06 224.388C122.06 224.388 123.069 224.205 122.743 222.955C122.532 222.175 121.744 220.976 121.183 220.189C121.286 220.215 121.386 220.237 121.48 220.256L121.577 220.275H121.653C121.694 220.277 121.736 220.277 121.777 220.275H121.831C121.881 220.279 121.932 220.279 121.982 220.275C122.659 220.21 125.184 221.382 125.635 222.157C126.085 222.931 127.674 223.52 128.872 223.668C129.584 223.754 131.381 223.609 132.889 223.415C133.649 223.337 134.401 223.2 135.139 223.006C135.495 222.872 135.571 222.442 135.468 221.958C135.347 221.343 135.018 220.789 134.535 220.387C134.098 220.078 133.52 219.264 133.094 218.597L132.981 218.417C133.734 217.701 135.093 215.362 135.506 214.878C136.008 214.29 134.697 192.756 134.697 192.756V181.961L136.707 171.744L138.112 166.337L139.318 158.174C139.318 158.174 141.428 148.639 140.778 147.704C140.778 147.685 140.238 137.869 139.671 135.511C139.426 134.459 139.488 132.093 139.634 129.792C139.786 129.641 139.892 129.45 139.94 129.242C139.988 129.033 139.975 128.816 139.903 128.614C139.863 128.476 139.811 128.342 139.747 128.213C139.747 128.173 139.747 128.13 139.747 128.09C140.912 127.555 142.13 127.143 143.381 126.858C145.391 126.466 144.889 125.433 144.889 125.433C144.889 125.433 145.342 124.549 145.642 124.008C145.941 123.468 145.693 118.698 145.642 118.306C145.623 118.147 145.499 117.27 145.356 116.276C146.001 115.819 146.84 115.251 147.754 114.713C149.494 113.686 149.103 112.603 148.96 112.321ZM122.737 180.487C122.737 180.487 121.229 184.321 121.833 185.303C122.438 186.284 121.734 189.927 121.734 189.927L121.229 195.334C121.229 195.334 119.824 205.363 120.325 207.721C120.719 209.571 120.865 215.096 120.911 217.4C120.876 217.414 120.843 217.43 120.811 217.449L120.744 217.484C120.976 216.578 120.878 214.744 119.726 211.055L119.629 195.818C119.629 195.818 119.451 178.218 120.846 176.25C122.241 174.282 122.735 170.94 122.735 170.94C122.735 170.94 122.432 175.76 122.235 177.038C122.039 178.315 122.737 180.487 122.737 180.487ZM119.929 218.36C119.915 218.392 119.899 218.425 119.888 218.454L119.813 218.358C119.851 218.361 119.89 218.362 119.929 218.36Z" fill="url(#paint0_linear_1_15)"/>
<path d="M135.309 224.399C134.529 224.697 130.302 225.206 129.12 225.063C127.939 224.921 126.374 224.324 125.929 223.544C125.484 222.764 122.988 221.587 122.319 221.662C122.045 221.67 121.771 221.632 121.51 221.549C121.048 221.41 120.597 221.237 120.161 221.033C120.1 220.694 120.11 220.346 120.191 220.011C120.206 219.944 120.226 219.877 120.25 219.812C120.407 219.371 120.733 219.01 121.156 218.807L121.253 218.761C121.44 218.68 121.636 218.621 121.836 218.583C123.957 218.177 132.706 218.992 132.706 218.992C132.706 218.992 132.951 219.43 133.288 219.973C133.709 220.646 134.281 221.466 134.713 221.775C135.191 222.182 135.516 222.74 135.633 223.356C135.735 223.832 135.66 224.267 135.309 224.399Z" fill="white"/>
<path opacity="0.1" d="M135.309 224.399C134.529 224.697 130.305 225.206 129.123 225.063C127.941 224.921 126.377 224.321 125.929 223.544C125.481 222.767 122.991 221.587 122.322 221.662C121.653 221.737 120.164 221.033 120.164 221.033C120.164 221.033 119.932 219.957 120.606 219.223L121.955 220.178C121.955 220.178 125.565 221.294 126.234 222.329C126.903 223.364 128.122 223.942 129.884 224.047C131.2 224.133 134.225 223.622 135.641 223.367C135.735 223.832 135.663 224.267 135.309 224.399Z" fill="black"/>
<path d="M122.395 225.77C120.803 225.739 119.212 225.814 117.63 225.993C115.097 226.289 113.163 225.187 112.825 224.732C112.488 224.278 110.743 222.743 109.402 222.205C108.746 221.952 108.593 221.13 108.622 220.361C108.622 220.32 108.622 220.275 108.622 220.234C108.647 219.747 108.719 219.264 108.838 218.79L119.335 218.567L120.244 219.796L120.385 219.984L120.938 220.734C120.938 220.734 121.189 221.062 121.518 221.541C122.074 222.348 122.851 223.539 123.058 224.326C123.39 225.587 122.395 225.77 122.395 225.77Z" fill="white"/>
<path opacity="0.1" d="M122.395 225.77C120.803 225.739 119.212 225.814 117.63 225.993C115.1 226.289 113.163 225.187 112.828 224.732C112.494 224.278 110.743 222.729 109.402 222.21C108.746 221.958 108.593 221.135 108.622 220.366C109.372 220.541 110.948 220.987 111.566 221.764C112.375 222.802 113.824 224.547 115.882 224.657C117.544 224.746 121.591 224.45 123.074 224.332C123.393 225.587 122.395 225.77 122.395 225.77Z" fill="black"/>
<path opacity="0.1" d="M121.146 218.796C121.024 219.694 120.649 219.936 120.379 219.99C120.313 220.002 120.246 220.002 120.18 219.99C120.144 219.987 120.109 219.982 120.075 219.973C120.075 219.973 110.648 222.049 108.744 220.369C108.695 220.325 108.65 220.279 108.609 220.229C108.634 219.742 108.706 219.258 108.825 218.785L119.322 218.562L120.231 219.791C120.388 219.35 120.714 218.988 121.137 218.785L121.146 218.796Z" fill="black"/>
<path opacity="0.1" d="M133.286 219.963C133.075 220.194 132.9 220.326 132.789 220.28C132.293 220.081 128.225 219.39 126.932 219.984C125.64 220.578 121.267 220.081 121.267 220.081C121.267 220.081 121.267 219.565 121.243 218.737C121.43 218.656 121.625 218.597 121.825 218.559C123.946 218.153 132.695 218.968 132.695 218.968C132.695 218.968 132.951 219.42 133.286 219.963Z" fill="black"/>
<path d="M139.442 159.144L138.25 167.356L136.863 172.797L134.877 183.084V193.974C134.877 193.974 136.167 215.639 135.671 216.231C135.174 216.822 133.288 220.191 132.792 219.995C132.296 219.799 128.227 219.105 126.935 219.696C125.643 220.288 121.27 219.796 121.27 219.796C121.27 219.796 121.17 211.388 120.673 209.014C120.177 206.64 121.566 196.549 121.566 196.549L122.063 191.11C122.063 191.11 122.759 187.448 122.163 186.459C121.566 185.469 123.056 181.619 123.056 181.619C123.056 181.619 122.362 179.439 122.562 178.153C122.762 176.868 123.056 172.02 123.056 172.02C123.056 172.02 122.562 175.387 121.183 177.363C119.805 179.339 119.98 197.05 119.98 197.05L120.077 212.375C122.562 220.49 120.077 219.696 120.077 219.696C120.077 219.696 110.651 221.775 108.746 220.092C106.842 218.409 107.387 207.815 107.387 207.815C107.387 207.815 107.19 199.308 107.983 196.738C108.776 194.167 109.027 184.668 109.027 184.668C109.027 184.668 108.976 165.672 109.027 164.39C109.065 163.314 109.027 153.686 109.027 150.678C109.027 150.118 109.027 149.788 109.027 149.788L110.165 146.97L123.655 145.287H130.108C130.108 145.287 139.82 147.561 140.823 148.543C140.845 148.559 140.863 148.579 140.877 148.602C141.528 149.551 139.442 159.144 139.442 159.144Z" fill="#04AD48"/>
<path opacity="0.1" d="M123.064 202.276C123.064 202.276 126.031 209.399 127.431 209.893C128.832 210.388 123.064 202.276 123.064 202.276Z" fill="black"/>
<path opacity="0.1" d="M124.162 212.762C124.162 212.762 134.181 213.257 134.082 214.346C133.982 215.435 124.162 212.762 124.162 212.762Z" fill="black"/>
<path opacity="0.1" d="M110.756 209.915C111.153 210.289 118.399 210.99 117.803 211.673C117.207 212.356 111.352 213.685 111.352 213.685L110.756 209.915Z" fill="black"/>
<path opacity="0.1" d="M109.566 197.628C109.566 197.923 111.056 207.124 111.455 207.519C111.854 207.915 115.127 208.31 115.127 208.31L109.566 197.628Z" fill="black"/>
<path d="M120.371 71.8663C118.95 73.4499 118.334 75.695 116.678 77.034C115.672 77.8406 114.398 78.2251 113.227 78.7736C112.057 79.3221 110.897 80.1583 110.549 81.4004C110.16 82.7986 110.91 84.2263 111.304 85.6244C111.711 87.0709 111.736 88.582 111.76 90.0957C111.787 91.9267 111.816 93.7577 111.784 95.5887C111.736 98.4414 111.498 101.426 109.979 103.843C115.464 105.583 121.297 105.819 127.048 106.042C128.154 106.121 129.264 106.093 130.364 105.959C131.317 105.77 132.26 105.532 133.189 105.247C135.025 104.762 136.917 104.521 138.816 104.529C139.644 104.529 140.489 104.58 141.287 104.365C142.086 104.15 142.855 103.598 143.071 102.803C143.262 102.087 142.982 101.326 142.615 100.684C141.946 99.5115 140.996 98.5328 140.278 97.3767C139.546 96.1555 139.111 94.7799 139.01 93.3607C138.908 91.9415 139.142 90.5183 139.693 89.2057C140.33 87.7296 141.355 86.4444 141.981 84.9657C142.622 83.3779 142.792 81.6402 142.472 79.9588C142.152 78.2774 141.354 76.7229 140.173 75.4799C137.996 73.2591 134.872 72.3987 131.883 71.9416C130.624 71.7934 129.423 71.331 128.392 70.5972C127.245 69.8444 125.759 69.6616 124.415 69.8283C122.865 70.0014 121.43 70.7248 120.371 71.8663Z" fill="#3F3D56"/>
<g opacity="0.1">
<path d="M139.777 87.6544C139.227 88.95 138.991 90.3566 139.089 91.76C139.149 90.7564 139.382 89.7706 139.777 88.8455C140.411 87.3694 141.436 86.0842 142.062 84.6054C142.573 83.3706 142.789 82.0337 142.69 80.7014C142.635 81.6353 142.422 82.5532 142.062 83.417C141.436 84.8958 140.411 86.1783 139.777 87.6544Z" fill="black"/>
<path d="M111.841 89.73C111.857 90.784 111.873 91.8407 111.876 92.8946C111.876 91.4427 111.862 89.9935 111.841 88.5443C111.819 87.0413 111.792 85.5195 111.385 84.0703C111.115 83.1508 110.716 82.2178 110.575 81.2902C110.335 82.6077 111.018 83.944 111.385 85.2587C111.792 86.6945 111.819 88.2271 111.841 89.73Z" fill="black"/>
<path d="M141.379 102.827C140.57 103.044 139.739 102.996 138.911 102.991C137.013 102.979 135.122 103.216 133.286 103.695C132.357 103.979 131.414 104.216 130.461 104.405C129.36 104.541 128.249 104.57 127.143 104.491C121.585 104.273 115.95 104.039 110.627 102.456C110.469 102.807 110.289 103.149 110.087 103.477C115.572 105.214 121.405 105.454 127.154 105.677C128.26 105.756 129.371 105.727 130.472 105.591C131.422 105.404 132.361 105.168 133.286 104.884C135.118 104.402 137.005 104.163 138.9 104.171C139.728 104.171 140.57 104.222 141.368 104.004C142.167 103.787 142.936 103.241 143.152 102.445C143.243 102.076 143.233 101.69 143.125 101.326C142.885 102.079 142.143 102.604 141.379 102.827Z" fill="black"/>
</g>
<path d="M133.388 99.6406C133.189 100.087 132.347 103.943 132.147 104.338C131.948 104.733 130.858 111.06 130.758 111.414C130.658 111.769 123.574 109.93 123.574 109.93L119.308 106.368L114.924 102.02C114.924 102.02 114.795 98.0973 118.024 96.839C118.244 96.7531 118.469 96.683 118.699 96.6293C122.616 95.6909 122.222 83.8203 122.222 83.8203L130.261 87.2806C130.261 87.2806 128.772 94.2067 128.824 95.543C128.837 95.992 129.19 96.2717 129.652 96.441C130.365 96.6433 131.108 96.7233 131.848 96.6777C131.848 96.6777 133.588 99.197 133.388 99.6406Z" fill="#FBBEBE"/>
<path d="M147.781 112.649L148.922 112.947C148.922 112.947 149.767 114.227 147.781 115.418C146.52 116.181 145.31 117.024 144.158 117.943L138.29 119.722L137.16 116.187L142.62 112.057L147.781 112.649Z" fill="#04AD48"/>
<path opacity="0.1" d="M147.781 112.649L148.922 112.947C148.922 112.947 149.767 114.227 147.781 115.418C146.52 116.181 145.31 117.024 144.158 117.943L138.29 119.722L137.16 116.187L142.62 112.057L147.781 112.649Z" fill="black"/>
<path d="M104.959 116.063L102.676 118.289C102.676 118.289 106.793 123.038 109.96 123.333C113.128 123.629 115.17 119.723 115.17 119.723L112.429 115.421L104.959 116.063Z" fill="#04AD48"/>
<path opacity="0.1" d="M104.959 116.063L102.676 118.289C102.676 118.289 106.793 123.038 109.96 123.333C113.128 123.629 115.17 119.723 115.17 119.723L112.429 115.421L104.959 116.063Z" fill="black"/>
<path opacity="0.1" d="M126.638 91.5772C131.023 91.5772 134.578 88.0345 134.578 83.6643C134.578 79.2942 131.023 75.7515 126.638 75.7515C122.253 75.7515 118.699 79.2942 118.699 83.6643C118.699 88.0345 122.253 91.5772 126.638 91.5772Z" fill="black"/>
<path d="M126.638 90.983C131.023 90.983 134.578 87.4403 134.578 83.0701C134.578 78.7 131.023 75.1573 126.638 75.1573C122.253 75.1573 118.699 78.7 118.699 83.0701C118.699 87.4403 122.253 90.983 126.638 90.983Z" fill="#FBBEBE"/>
<path opacity="0.1" d="M140.883 149.5C139.075 149.706 137.294 150.104 135.571 150.686C132.603 151.67 109.348 150.702 109.024 150.686C109.024 150.126 109.024 149.796 109.024 149.796L110.163 146.978L123.652 145.295H130.105C130.105 145.295 139.817 147.569 140.821 148.551C140.861 149.142 140.883 149.5 140.883 149.5Z" fill="black"/>
<path opacity="0.1" d="M133.388 99.6406C133.189 100.087 132.347 103.943 132.147 104.338C131.948 104.733 130.858 111.06 130.758 111.414C130.658 111.769 123.574 109.93 123.574 109.93L119.308 106.368L114.924 102.02C114.924 102.02 114.795 98.0973 118.024 96.839L126.042 106.026L129.652 96.441C130.365 96.6433 131.108 96.7233 131.848 96.6776C131.848 96.6776 133.588 99.197 133.388 99.6406Z" fill="black"/>
<path d="M126.042 106.322L117.835 96.9116C117.355 96.6059 116.806 96.4241 116.237 96.3823C115.669 96.3405 115.099 96.4402 114.579 96.6723C112.742 97.4654 110.459 98.108 109.863 98.5033C109.267 98.8985 107.033 101.345 107.033 101.345L113.686 118.69L110.756 130.114C110.756 130.114 111.204 135.952 110.063 138.078C109.368 139.438 109.043 140.956 109.119 142.48C109.119 142.48 109.467 145.3 109.07 146.782C108.838 147.772 108.821 148.801 109.019 149.798C109.019 149.798 132.595 150.788 135.571 149.798C137.294 149.215 139.075 148.817 140.883 148.613C140.883 148.613 140.343 138.718 139.804 136.344C139.264 133.97 140.251 124.92 140.251 124.92L139.607 115.224L143.475 105.276C143.475 105.276 141.379 98.8985 139.194 98.2559C139.194 98.2559 135.225 97.3149 134.381 96.8712C133.537 96.4276 131.055 96.0297 131.055 96.0297L129.752 96.4652L126.042 106.322Z" fill="#04AD48"/>
<path opacity="0.1" d="M137.492 114.897L120.223 113.727C119.786 113.697 119.408 114.026 119.378 114.462L117.524 141.635C117.494 142.071 117.824 142.448 118.261 142.478L135.531 143.648C135.968 143.678 136.346 143.349 136.376 142.913L138.23 115.739C138.26 115.304 137.929 114.927 137.492 114.897Z" fill="black"/>
<path d="M138.087 114.307L120.818 113.136C120.381 113.107 120.002 113.436 119.972 113.871L118.118 141.045C118.089 141.481 118.419 141.858 118.856 141.888L136.125 143.058C136.562 143.087 136.941 142.758 136.97 142.323L138.824 115.149C138.854 114.713 138.524 114.336 138.087 114.307Z" fill="#3F3D56"/>
<path d="M137.517 116.437L121.093 115.324L119.405 140.062L135.829 141.175L137.517 116.437Z" fill="white"/>
<path opacity="0.1" d="M136.044 122.751L122.628 121.815L122.366 125.542L135.783 126.478L136.044 122.751Z" fill="black"/>
<path opacity="0.1" d="M135.559 137.56L133.43 137.416L133.297 139.358L135.426 139.502L135.559 137.56Z" fill="black"/>
<path opacity="0.1" d="M133.459 132.873L122.56 132.134L122.428 134.077L133.326 134.815L133.459 132.873Z" fill="black"/>
<path d="M135.484 115.512L124.136 114.743L123.933 117.729L135.28 118.498L135.484 115.512Z" fill="#3F3D56"/>
<path opacity="0.1" d="M135.484 115.512L124.136 114.743L123.933 117.729L135.28 118.498L135.484 115.512Z" fill="black"/>
<path opacity="0.1" d="M127.035 148.954C127.035 148.954 126.935 163.597 123.064 172.004C123.064 172.004 127.731 160.924 127.731 160.481C127.731 160.037 130.31 155.385 129.619 154.001C128.929 152.616 127.035 148.954 127.035 148.954Z" fill="black"/>
<path opacity="0.1" d="M127.245 81.0912C127.097 79.7952 127.415 78.4888 128.144 77.405C128.057 78.4913 128.365 79.5725 129.012 80.4511C129.659 81.3297 130.601 81.9472 131.667 82.1909C131.576 82.1123 131.511 82.008 131.481 81.8918C131.45 81.7757 131.456 81.6531 131.497 81.5402C132.05 82.164 132.474 82.9034 133.1 83.4519C133.725 84.0004 134.664 84.3284 135.401 83.9386C136.402 83.4008 136.412 81.9839 136.154 80.8815C135.598 78.5339 134.457 76.3636 132.838 74.5711C132.434 74.0293 131.909 73.5881 131.306 73.2821C130.702 72.9761 130.035 72.8136 129.358 72.8073C127.825 72.689 126.234 72.8235 124.86 73.5091C124.088 73.9293 123.364 74.4334 122.702 75.0121L118.925 78.0826C118.562 78.3435 118.251 78.67 118.008 79.0451C117.846 79.3587 117.749 79.7016 117.722 80.0534C117.626 81.059 117.812 82.0715 118.261 82.9772C118.71 83.8829 119.403 84.646 120.263 85.1807C120.245 84.386 120.464 83.6037 120.893 82.9335C121.322 82.2632 121.942 81.7352 122.673 81.4166C122.787 81.512 122.88 81.6307 122.944 81.7647C123.009 81.8987 123.044 82.0449 123.047 82.1936L123.843 80.7793C123.962 80.522 124.148 80.3017 124.383 80.1421C124.874 79.8733 125.486 80.1905 125.904 80.5696C126.323 80.9487 126.73 81.4219 127.291 81.4811L127.313 79.3758" fill="black"/>
<path d="M127.245 80.7955C127.097 79.4986 127.415 78.1912 128.144 77.1066C127.901 79.2575 129.528 81.4784 131.67 81.8925C131.579 81.8145 131.514 81.7107 131.483 81.5949C131.453 81.4792 131.459 81.3569 131.5 81.2445C132.053 81.8683 132.476 82.605 133.102 83.1562C133.728 83.7073 134.667 84.0327 135.404 83.6401C136.404 83.1024 136.415 81.6854 136.156 80.5858C135.6 78.2381 134.46 76.0679 132.841 74.2754C132.338 73.6649 131.705 73.1743 130.987 72.8396C130.468 72.6481 129.922 72.5375 129.368 72.5116C127.836 72.3933 126.244 72.525 124.871 73.2107C124.099 73.6328 123.375 74.1377 122.713 74.7163L118.936 77.7868C118.572 78.0471 118.261 78.3737 118.019 78.7494C117.856 79.0629 117.759 79.4058 117.733 79.7577C117.637 80.7629 117.823 81.7749 118.272 82.6802C118.721 83.5854 119.414 84.348 120.274 84.8823C120.257 84.0877 120.476 83.3057 120.905 82.6356C121.334 81.9655 121.953 81.4374 122.683 81.1181C122.797 81.2139 122.89 81.3326 122.954 81.4666C123.019 81.6005 123.054 81.7466 123.058 81.8952L123.851 80.4863C123.969 80.2285 124.156 80.008 124.391 79.8491C124.882 79.5802 125.494 79.8975 125.913 80.2766C126.331 80.6557 126.738 81.1262 127.299 81.188L127.321 79.0801" fill="#3F3D56"/>
<path d="M131.006 130.706C130.313 130.356 118.847 132.139 118.847 132.139C118.847 132.139 116.959 131.601 112.394 130.854C107.829 130.106 107.538 125.659 107.538 125.659L107.039 116.757L108.579 115.413L115.178 119.714C115.178 119.714 115.28 121.89 115.178 122.282C115.113 122.551 114.941 122.871 114.957 123.089C114.962 123.148 114.986 123.203 115.026 123.247C115.066 123.291 115.12 123.32 115.178 123.331C115.626 123.444 121.728 124.428 121.728 124.428C121.728 124.428 135.873 123.462 139.399 128.211C139.678 128.559 139.89 128.957 140.022 129.383C140.896 132.628 131.635 131.015 131.006 130.706Z" fill="#FBBEBE"/>
<path opacity="0.1" d="M140.03 129.402C139.491 129.641 139.156 129.813 139.156 129.813C139.156 129.813 134.095 129.665 131.252 128.638C128.408 127.611 124.952 127.794 124.952 127.794C124.952 127.794 113.103 125.761 114.941 123.108C114.946 123.167 114.97 123.222 115.01 123.266C115.05 123.31 115.103 123.339 115.162 123.35C115.61 123.462 121.712 124.447 121.712 124.447C121.712 124.447 135.857 123.481 139.383 128.23C139.671 128.576 139.891 128.974 140.03 129.402Z" fill="black"/>
<path d="M144.951 113.737C144.951 113.737 145.647 118.634 145.696 119.032C145.744 119.429 145.995 124.223 145.696 124.769C145.396 125.315 144.951 126.202 144.951 126.202C144.951 126.202 145.447 127.24 143.462 127.638C141.476 128.036 139.145 129.219 139.145 129.219C139.145 129.219 134.082 129.071 131.254 128.033C128.427 126.995 124.952 127.192 124.952 127.192C124.952 127.192 109.912 124.619 116.365 121.478C122.818 118.338 127.383 122.591 127.383 122.591L134.578 122.148C134.578 122.148 137.26 120.513 138.004 120.664C138.53 120.73 139.064 120.644 139.542 120.416L139.593 115.222L144.951 113.737Z" fill="#FBBEBE"/>
<path opacity="0.1" d="M108.466 101.719L107.025 101.644L102.66 118.582C102.66 118.582 107.373 117.394 109.405 118.582C111.436 119.771 115.162 120.016 115.162 120.016L113.772 106.513L108.466 101.719Z" fill="black"/>
<path d="M108.466 101.421L107.025 101.345L102.66 118.284C102.66 118.284 107.373 117.096 109.405 118.284C111.436 119.472 115.162 119.717 115.162 119.717L113.772 106.214L108.466 101.421Z" fill="#04AD48"/>
<path opacity="0.1" d="M141.479 105.131L143.462 105.577C143.462 105.577 148.526 112.837 148.922 113.243C149.319 113.649 147.034 115.125 146.092 115.125C145.151 115.125 140.535 115.663 139.194 116.905C137.853 118.147 138.412 111.896 138.412 111.753C138.412 111.611 140.076 107.666 140.076 107.666L141.479 105.131Z" fill="black"/>
<path d="M141.479 104.835L143.462 105.279C143.462 105.279 148.526 112.552 148.922 112.947C149.319 113.342 147.034 114.829 146.092 114.829C145.151 114.829 140.535 115.367 139.194 116.609C137.853 117.851 138.412 111.6 138.412 111.457C138.412 111.315 140.087 107.357 140.087 107.357L141.479 104.835Z" fill="#04AD48"/>
<g opacity="0.1">
<path d="M128.13 77.1308C128.119 76.9246 128.123 76.7179 128.144 76.5124C127.733 77.1267 127.45 77.817 127.313 78.5424V79.1661C127.313 79.1661 127.313 79.1527 127.313 79.1446V79.2925C127.313 79.7281 127.313 80.1663 127.299 80.6019H127.262V80.8036C127.262 80.7336 127.261 80.6664 127.248 80.5965C126.708 80.5105 126.323 80.0588 125.921 79.6985C125.519 79.3382 124.89 78.9941 124.399 79.271C124.164 79.4299 123.977 79.6504 123.86 79.9082L123.058 81.3171C123.055 81.1688 123.019 81.0231 122.955 80.8895C122.89 80.756 122.798 80.6377 122.683 80.5428C121.952 80.8614 121.333 81.3894 120.904 82.0597C120.475 82.7299 120.256 83.5121 120.274 84.3069C119.537 83.8466 118.92 83.2182 118.475 82.4734C118.03 81.7286 117.769 80.889 117.714 80.0238C117.667 80.9899 117.88 81.9509 118.33 82.8078C118.78 83.6646 119.451 84.3863 120.274 84.8985C120.257 84.1038 120.476 83.3219 120.905 82.6518C121.334 81.9816 121.953 81.4535 122.683 81.1343C122.797 81.23 122.89 81.3488 122.954 81.4827C123.019 81.6166 123.054 81.7627 123.058 81.9113L123.851 80.5024C123.969 80.2446 124.156 80.0241 124.391 79.8652C124.882 79.5963 125.494 79.9136 125.913 80.2927C126.331 80.6718 126.738 81.1423 127.299 81.2042C127.299 80.5159 127.306 79.8294 127.321 79.1446C127.453 78.4263 127.728 77.7416 128.13 77.1308Z" fill="black"/>
<path d="M127.218 79.8383C127.232 79.6555 127.253 79.4726 127.28 79.3006L127.31 78.5585C127.229 78.98 127.198 79.4096 127.218 79.8383Z" fill="black"/>
<path d="M135.404 83.0459C134.667 83.4385 133.728 83.1105 133.102 82.562C132.476 82.0135 132.053 81.2741 131.5 80.6503C131.459 80.7632 131.453 80.8858 131.484 81.0019C131.514 81.118 131.579 81.2223 131.67 81.301C131.616 81.301 131.565 81.2741 131.513 81.2606C132.053 81.879 132.482 82.605 133.102 83.1427C133.723 83.6805 134.667 84.0192 135.404 83.6267C136.14 83.2341 136.35 82.3146 136.286 81.4193C136.237 82.1237 135.984 82.734 135.404 83.0459Z" fill="black"/>
<path d="M131.497 81.2553C130.595 81.0102 129.789 80.4962 129.189 79.7821C128.588 79.068 128.22 78.1879 128.136 77.2599C127.982 79.3705 129.579 81.4865 131.67 81.8925C131.581 81.8154 131.517 81.7136 131.486 81.6001C131.455 81.4866 131.459 81.3666 131.497 81.2553Z" fill="black"/>
</g>
<path d="M261.057 125.199C261.057 125.199 259.994 125.052 259.994 123.511C259.994 121.97 259.233 119.085 259.233 119.085C259.233 119.085 258.575 114.065 257.666 113.27C256.757 112.474 255.589 107.801 255.589 107.801C255.589 107.801 255.389 105.265 254.982 104.72C254.574 104.174 254.024 102.837 253.212 100.931C252.4 99.0249 249.022 97.7182 249.022 97.7182C249.022 97.7182 242.901 94.1798 241.166 93.0264C241.007 92.9308 240.859 92.8191 240.724 92.693C240.421 92.3004 239.105 92.2924 239.105 92.2924C238.967 91.4239 238.835 90.4291 238.792 89.5284C238.792 89.4316 238.792 89.3348 238.792 89.238C240.726 88.0985 242.183 86.3018 242.895 84.1779C242.928 84.0757 242.955 83.9708 242.984 83.866C243.103 83.8296 243.212 83.7686 243.305 83.687C243.398 83.6054 243.473 83.5052 243.524 83.3928C243.678 83.0459 243.683 82.6426 243.877 82.3173C244.104 81.9355 244.536 81.7312 244.876 81.4462C245.734 80.7175 245.955 79.4942 245.914 78.3837C245.887 77.4803 245.742 76.5715 245.798 75.6762C245.798 75.6009 245.798 75.5256 245.814 75.4503C245.831 75.3186 245.85 75.1815 245.874 75.0524C246.006 74.3856 246.295 73.7565 246.457 73.095C246.618 72.4336 246.635 71.6889 246.257 71.1188C245.704 70.2827 244.552 70.116 243.54 70.0434C242.394 69.9466 241.382 70.0703 240.635 69.1211C240.292 68.6254 239.905 68.1611 239.48 67.7338C239.329 67.594 237.861 66.6986 237.861 66.6422C236.425 65.9768 234.796 65.8517 233.275 66.2899C232.511 66.5104 231.797 66.8707 231.022 67.0508C229.36 67.4434 227.445 67.0186 226.031 67.9677C225.244 68.5054 224.771 69.3631 224.329 70.1939C223.969 70.8787 223.604 71.5643 223.234 72.2508C222.635 73.3774 222.03 74.5227 221.78 75.7703C221.727 76.0428 221.694 76.3186 221.68 76.5957C221.68 76.6952 221.68 76.7947 221.68 76.8942C221.68 76.9372 221.68 76.9802 221.68 77.0232C221.68 77.1147 221.68 77.2061 221.696 77.2921C221.712 77.3781 221.696 77.4023 221.715 77.4588C221.734 77.5153 221.739 77.6416 221.755 77.7277C221.771 77.8137 221.804 77.967 221.836 78.0826C221.836 78.1337 221.869 78.1821 221.885 78.2332C221.901 78.2842 221.944 78.4133 221.979 78.502C222.014 78.5907 222.017 78.5961 222.039 78.6418C222.079 78.7359 222.128 78.8274 222.176 78.9107C222.198 78.9457 222.214 78.9806 222.236 79.0156C222.309 79.1414 222.392 79.2618 222.484 79.3759C223.058 80.0937 223.911 80.5508 224.539 81.223C224.539 81.2499 224.539 81.2768 224.539 81.3037C224.539 81.3762 224.539 81.4488 224.539 81.5241C224.578 83.0234 224.983 84.4905 225.721 85.7979C226.458 87.1053 227.505 88.2134 228.77 89.0256C228.77 89.1278 228.783 89.2326 228.789 89.3375C228.841 90.1347 228.831 90.9348 228.759 91.7304C228.649 91.6018 228.511 91.4993 228.356 91.4304C228.201 91.3616 228.033 91.3281 227.863 91.3325C227.747 91.3268 227.631 91.3367 227.518 91.3621L227.494 91.3433V91.3675C226.9 91.5127 226.169 92.1284 225.47 93.8787C225.47 93.8787 223.344 96.2663 221.726 96.1668C220.107 96.0673 216.009 98.6538 216.009 98.6538C216.009 98.6538 212.011 101.238 211.153 103.873C210.673 105.367 210.097 106.829 209.429 108.25L204.473 118.392L203.564 126.458C203.564 126.458 204.068 130.036 203.969 130.585C203.869 131.133 206.043 136.054 206.043 136.054C206.043 136.054 213.227 148.631 216.163 149.277L216.373 149.132C216.499 149.195 216.632 149.244 216.77 149.277L217.374 148.855C217.411 149.327 217.395 149.803 217.325 150.272C216.924 151.516 217.479 159.62 218.186 161.209C218.893 162.798 218.642 183.636 218.642 183.636L218.542 185.472C218.542 185.472 218.542 185.531 218.566 185.633L218.542 186.069L218.615 186.107C218.691 186.691 218.666 187.284 218.542 187.86C218.289 188.666 218.186 190.944 218.186 190.944C218.186 190.944 216.163 203.817 217.123 206.404C218.084 208.99 218.896 211.824 218.896 211.824C218.896 211.824 219.907 215.05 218.944 215.588C217.981 216.126 215.254 217.08 215.809 218.422C216.322 219.664 218.267 222.993 218.556 223.48L218.531 223.748L218.135 228.031C218.199 228.597 218.353 229.149 218.591 229.666C219.025 230.602 219.867 231.567 221.475 231.462C221.745 231.443 222.055 231.414 222.36 231.374C225.298 230.978 228.913 229.672 228.913 229.672C228.725 229.553 228.554 229.411 228.403 229.249C228.258 229.11 228.144 228.943 228.066 228.758C227.989 228.573 227.95 228.374 227.952 228.174C227.995 227.392 226.53 223.678 226.164 222.762L226.08 222.557C226.08 222.557 229.42 219.075 228.864 215.994C228.864 215.994 225.168 213.843 226.385 212.66C227.601 211.477 229.776 208.089 229.776 208.089C229.776 208.089 229.876 195.412 229.776 193.522C229.672 192.207 229.734 190.885 229.962 189.586C230.003 189.392 230.051 189.201 230.102 189.01C231.787 189.264 233.487 189.392 235.19 189.395C235.813 189.395 236.442 189.382 237.079 189.357C237.079 189.536 237.087 189.73 237.103 189.938C237.243 193.078 237.505 198.588 237.718 200.634C238.02 203.564 239.69 211.472 239.69 211.472C239.69 211.472 236.504 213.507 240.246 218.532C240.246 218.532 240.246 220.35 239.998 220.616C239.733 221.478 239.519 222.355 239.359 223.243C239.202 224.187 239.137 225.147 239.391 225.641C239.998 226.83 243.64 226.733 243.64 226.733C243.669 226.726 243.699 226.722 243.729 226.719C244.416 226.647 245.112 226.712 245.773 226.91C246.435 227.109 247.051 227.437 247.584 227.876C248.968 228.983 254.218 228.499 257.064 228.144C258.179 228.002 258.923 227.876 258.923 227.876C258.959 227.75 258.972 227.619 258.961 227.488C258.931 226.792 258.384 225.265 254.671 223.902C254.671 223.902 251.18 221.562 251.229 219.524H251.151H250.749C251.002 219.516 251.18 219.516 251.18 219.516C251.18 219.516 249.813 214.545 250.371 214.139C250.93 213.733 249.257 208.224 249.257 208.224C249.257 208.224 248.299 198.975 248.245 198.329C248.249 197.773 248.334 197.221 248.499 196.689L248.245 191.616C248.245 191.616 248.197 189.93 248.245 189.381C248.24 188.905 248.202 188.43 248.132 187.959C248.108 187.771 248.083 187.575 248.056 187.381C249.365 187.05 250.215 186.746 250.215 186.746L250.063 169.095C251.175 166.944 251.38 162.223 251.375 158.878C251.375 156.727 251.278 155.135 251.278 155.135L252.796 152.664C252.796 152.664 253.147 149.707 252.591 149.059C252.346 148.766 252.456 148.462 252.659 148.212C252.765 148.125 252.878 148.046 252.996 147.975C252.983 147.957 252.971 147.937 252.961 147.916C253.067 147.828 253.18 147.748 253.298 147.677C253.298 147.677 252.759 146.843 253.242 146.491C253.695 146.798 254.099 147.042 254.407 147.217C254.385 147.413 254.364 147.526 254.364 147.526L254.493 147.258C254.79 147.424 254.971 147.526 254.971 147.526C254.971 147.526 257.35 142.802 257.299 142.109C257.248 141.415 258.918 138.479 258.918 138.479C258.918 138.479 259.12 136.936 260.032 136.29C260.944 135.645 260.739 130.969 260.739 130.969C260.739 130.969 260.992 128.533 261.599 127.541C262.206 126.549 261.057 125.199 261.057 125.199ZM215.529 123.126L215.575 124.253C215.305 123.82 215.111 123.511 215.111 123.511L215.529 123.126Z" fill="url(#paint1_linear_1_15)"/>
<path d="M255.111 145.483L254.528 147.957C254.528 147.957 249.861 145.577 249.022 142.566C248.183 139.554 250.428 138.406 250.428 138.406L254.779 140.24L255.111 145.483Z" fill="white"/>
<path opacity="0.1" d="M255.111 145.483L254.528 147.957C254.528 147.957 249.861 145.577 249.022 142.566C248.183 139.554 250.428 138.406 250.428 138.406L254.779 140.24L255.111 145.483Z" fill="black"/>
<path d="M228.918 229.669C228.918 229.669 224.601 231.25 221.634 231.449C220.058 231.554 219.23 230.591 218.804 229.664C218.572 229.152 218.421 228.608 218.356 228.05L218.747 223.789L218.952 221.522L225.257 219.887L226.15 222.611L226.234 222.815C226.59 223.727 228.03 227.421 227.987 228.193C227.984 228.392 228.021 228.591 228.097 228.775C228.172 228.96 228.285 229.128 228.427 229.268C228.573 229.422 228.738 229.557 228.918 229.669Z" fill="white"/>
<path d="M258.389 227.502C258.4 227.632 258.387 227.763 258.351 227.889C258.351 227.889 249.119 229.422 247.231 227.889C246.7 227.441 246.081 227.109 245.414 226.913C244.747 226.717 244.046 226.662 243.357 226.752C243.357 226.752 239.785 226.848 239.189 225.676C238.94 225.184 239.005 224.23 239.159 223.291C239.316 222.409 239.525 221.536 239.785 220.678L239.928 220.565L240.778 219.885L250.727 219.592H250.803C250.754 221.619 254.178 223.945 254.178 223.945C257.822 225.289 258.359 226.808 258.389 227.502Z" fill="white"/>
<path opacity="0.1" d="M258.392 227.502C258.401 227.632 258.388 227.763 258.351 227.889C258.351 227.889 249.119 229.422 247.233 227.889C246.702 227.441 246.083 227.108 245.416 226.912C244.748 226.717 244.047 226.662 243.357 226.752C243.357 226.752 239.782 226.848 239.186 225.676C238.94 225.184 239.002 224.23 239.156 223.289C240.532 223.426 242.704 223.767 243.556 224.585C244.846 225.821 247.031 227.058 248.369 227.158C249.427 227.222 255.715 227.421 258.392 227.502Z" fill="black"/>
<path opacity="0.1" d="M228.918 229.669C228.918 229.669 224.601 231.25 221.634 231.449C220.058 231.554 219.23 230.591 218.804 229.664C219.905 230.032 221.429 230.416 222.23 230.064C223.18 229.642 226.547 229.373 228.435 229.258C228.577 229.415 228.74 229.553 228.918 229.669Z" fill="black"/>
<path d="M235.323 102.254C231.762 100.875 227.181 96.3174 228.324 94.1879C228.577 93.6501 228.728 93.0704 228.77 92.4779C228.843 91.6733 228.854 90.8643 228.802 90.0581C228.722 88.7368 228.562 87.4214 228.324 86.1191C228.324 86.1191 239.442 86.3692 238.795 88.0012C238.606 88.4825 238.573 89.3133 238.627 90.2409C238.681 91.1685 238.814 92.2252 238.954 93.1151C239.145 94.3331 239.342 95.2661 239.342 95.2661C239.342 95.2661 238.66 96.2152 238.263 96.2663C237.867 96.3174 240.432 104.23 235.323 102.254Z" fill="#CF6F80"/>
<path opacity="0.1" d="M226.223 222.802L226.139 222.893C222.816 218.887 218.796 223.883 218.796 223.883L218.736 223.775L218.941 221.509L225.246 219.874L226.139 222.598L226.223 222.802Z" fill="black"/>
<path opacity="0.1" d="M250.808 219.874C250.808 219.874 248.38 219.826 247.085 220.966C245.79 222.106 239.531 221.21 239.801 220.966C239.88 220.841 239.928 220.7 239.941 220.554L240.791 219.874L250.741 219.581C250.778 219.769 250.808 219.874 250.808 219.874Z" fill="black"/>
<path d="M230.359 188.413C230.178 188.859 230.041 189.321 229.949 189.793C229.724 191.085 229.661 192.4 229.762 193.708C229.862 195.59 229.762 208.202 229.762 208.202C229.762 208.202 227.628 211.566 226.436 212.752C225.244 213.937 228.864 216.067 228.864 216.067C229.404 219.135 226.134 222.598 226.134 222.598C222.81 218.591 218.79 223.584 218.79 223.584C218.79 223.584 216.605 219.82 216.06 218.476C215.515 217.131 218.194 216.204 219.136 215.655C220.077 215.107 219.087 211.891 219.087 211.891C219.087 211.891 218.294 209.071 217.35 206.498C216.406 203.925 218.391 191.118 218.391 191.118C218.391 191.118 218.494 188.841 218.739 188.048C218.862 187.475 218.886 186.886 218.812 186.306C218.796 186.109 218.777 185.948 218.763 185.835C218.75 185.722 218.739 185.674 218.739 185.674L218.777 185.609L220.126 183.103C220.126 183.103 231.006 186.835 230.359 188.413Z" fill="#04AD48"/>
<path d="M250.808 219.578C250.808 219.578 248.38 219.527 247.085 220.654C245.79 221.78 239.531 220.901 239.801 220.654C240.071 220.406 240.046 218.578 240.046 218.578C236.375 213.58 239.507 211.552 239.507 211.552C239.507 211.552 237.869 203.688 237.573 200.771C237.365 198.735 237.109 193.242 236.971 190.132C236.912 188.787 236.877 187.86 236.877 187.86L239.85 187.271L240.235 187.195L247.471 185.746C247.471 185.746 247.671 187.091 247.805 188.19C247.874 188.66 247.911 189.133 247.916 189.607C247.87 190.145 247.916 191.831 247.916 191.831L248.164 196.875C248.004 197.404 247.921 197.954 247.916 198.507C247.967 199.152 248.909 208.35 248.909 208.35C248.909 208.35 250.546 213.841 249.988 214.236C249.43 214.631 250.808 219.578 250.808 219.578Z" fill="#04AD48"/>
<path opacity="0.1" d="M238.795 88.0093C238.606 88.4906 238.573 89.3214 238.627 90.249C237.138 91.1427 235.426 91.5996 233.688 91.5673C231.95 91.5349 230.257 91.0146 228.802 90.0661C228.722 88.7448 228.562 87.4295 228.324 86.1272C228.324 86.1272 239.442 86.3772 238.795 88.0093Z" fill="black"/>
<path d="M243.087 82.0726C243.116 84.5121 242.172 86.8633 240.462 88.6089C238.752 90.3546 236.416 91.3517 233.968 91.3809C231.521 91.4101 229.161 90.4691 227.41 88.7648C225.658 87.0605 224.658 84.7326 224.628 82.2931C224.628 82.2178 224.628 82.1479 224.628 82.0726C224.628 79.6324 225.601 77.2922 227.332 75.5667C229.064 73.8412 231.412 72.8719 233.86 72.8719C236.309 72.8719 238.657 73.8412 240.388 75.5667C242.12 77.2922 243.092 79.6324 243.092 82.0726H243.087Z" fill="#CF6F80"/>
<path opacity="0.1" d="M235.323 102.254C231.762 100.875 227.181 96.3174 228.324 94.1879C228.577 93.6501 228.728 93.0704 228.77 92.4779L233.645 96.4733L236.661 98.9389L238.954 93.1232C239.145 94.3412 239.342 95.2742 239.342 95.2742C239.342 95.2742 238.66 96.2233 238.263 96.2744C237.867 96.3254 240.432 104.23 235.323 102.254Z" fill="black"/>
<path d="M247.93 119.911L243.859 188.069L238.549 188.416L224.798 148.895L227.054 101.974L227.531 92.0611L233.645 97.0648L236.661 99.5304L239.021 93.5426L243.411 97.3552L247.93 119.911Z" fill="#04AD48"/>
<path opacity="0.1" d="M230.359 188.413C230.178 188.859 230.041 189.321 229.949 189.793C226.082 189.199 222.326 188.031 218.807 186.327L218.734 186.289L218.758 185.857V185.631L220.107 183.125C220.107 183.125 231.006 186.835 230.359 188.413Z" fill="black"/>
<path opacity="0.1" d="M239.939 189.804C238.951 189.972 237.955 190.086 236.955 190.145C236.895 188.801 236.86 187.873 236.86 187.873L239.85 187.271L239.939 189.804Z" fill="black"/>
<path opacity="0.1" d="M247.816 188.19C245.898 188.688 242.933 189.247 240.284 188.897L240.246 187.195L247.482 185.746C247.482 185.746 247.673 187.08 247.816 188.19Z" fill="black"/>
<path opacity="0.1" d="M240.235 189.209C229.174 191.091 219.044 185.695 219.044 185.695L219.141 183.867C219.141 183.867 219.392 163.14 218.696 161.551C218 159.962 217.458 151.914 217.852 150.686C218.245 149.457 216.414 130.905 216.414 130.905L216.117 123.376L205.247 118.975L210.103 108.884C210.759 107.47 211.323 106.015 211.792 104.529C212.637 101.907 216.557 99.3341 216.557 99.3341C216.557 99.3341 220.576 96.7637 222.165 96.8605C223.754 96.9573 225.837 94.5858 225.837 94.5858C227.375 90.6792 228.767 92.4349 228.767 92.4349C228.767 92.6231 228.767 92.4349 228.691 93.0129C228.152 97.3014 237.416 110.852 237.548 111.094L238.441 132.513L239.334 159.617L240.235 189.209Z" fill="black"/>
<path d="M239.939 189.209C228.878 191.091 218.745 185.695 218.745 185.695L218.844 183.867C218.844 183.867 219.093 163.14 218.397 161.551C217.7 159.962 217.158 151.906 217.555 150.667C217.951 149.427 216.109 130.894 216.109 130.894L215.809 123.366L204.942 118.964L209.799 108.874C210.453 107.459 211.017 106.006 211.487 104.521C212.332 101.907 216.265 99.3314 216.265 99.3314C216.265 99.3314 220.285 96.761 221.871 96.8578C223.458 96.9546 225.551 94.5858 225.551 94.5858C227.092 90.6792 228.789 92.4349 228.789 92.4349C228.789 92.6231 228.627 92.7037 228.713 93.0129C229.9 97.1724 237.141 110.852 237.273 111.094L238.166 132.513L239.04 159.631L239.939 189.209Z" fill="white"/>
<path opacity="0.1" d="M236.958 111.699C235.768 111.205 229.466 104.034 229.466 104.034V102.402C229.236 101.864 227.871 102.192 226.768 102.569L227.243 92.6553L227.782 93.1017C228.961 97.2584 236.828 111.46 236.958 111.699Z" fill="black"/>
<path d="M237.257 111.108C236.065 110.61 229.762 103.442 229.762 103.442V101.808C229.533 101.27 228.171 101.598 227.065 101.974L227.531 92.0719L228.071 92.5155C229.261 96.6669 237.125 110.866 237.257 111.108Z" fill="white"/>
<path opacity="0.1" d="M219.044 146.868C219.192 146.868 226.735 146.077 226.735 146.077C226.735 146.077 231.303 155.031 231.003 157.206C230.704 159.381 230.162 161.311 228.324 160.97C226.487 160.628 218.437 161.239 218.437 161.239L219.044 146.868Z" fill="black"/>
<path d="M218.745 146.273C218.896 146.273 226.439 145.483 226.439 145.483C226.439 145.483 231.003 154.45 230.707 156.601C230.41 158.752 229.862 160.706 228.028 160.365C226.193 160.023 218.138 160.634 218.138 160.634L218.745 146.273Z" fill="white"/>
<path d="M224.429 142.082C224.429 142.082 231.351 145.792 231.5 146.921C231.648 148.051 227.976 146.427 227.183 146.228C226.661 146.104 226.13 146.021 225.594 145.98L220.304 146.123L224.429 142.082Z" fill="#CF6F80"/>
<path opacity="0.1" d="M235.023 112.162C235.425 112.162 235.752 111.837 235.752 111.436C235.752 111.035 235.425 110.71 235.023 110.71C234.621 110.71 234.295 111.035 234.295 111.436C234.295 111.837 234.621 112.162 235.023 112.162Z" fill="black"/>
<path d="M235.023 111.866C235.425 111.866 235.752 111.541 235.752 111.14C235.752 110.739 235.425 110.414 235.023 110.414C234.621 110.414 234.295 110.739 234.295 111.14C234.295 111.541 234.621 111.866 235.023 111.866Z" fill="#3F3D56"/>
<path opacity="0.1" d="M236.364 143.587C236.766 143.587 237.092 143.262 237.092 142.861C237.092 142.461 236.766 142.136 236.364 142.136C235.962 142.136 235.636 142.461 235.636 142.861C235.636 143.262 235.962 143.587 236.364 143.587Z" fill="black"/>
<path d="M236.364 143.289C236.766 143.289 237.092 142.964 237.092 142.563C237.092 142.162 236.766 141.837 236.364 141.837C235.962 141.837 235.636 142.162 235.636 142.563C235.636 142.964 235.962 143.289 236.364 143.289Z" fill="#3F3D56"/>
<path opacity="0.1" d="M235.752 127.875C236.154 127.875 236.48 127.55 236.48 127.149C236.48 126.748 236.154 126.423 235.752 126.423C235.349 126.423 235.023 126.748 235.023 127.149C235.023 127.55 235.349 127.875 235.752 127.875Z" fill="black"/>
<path d="M235.752 127.579C236.154 127.579 236.48 127.254 236.48 126.853C236.48 126.452 236.154 126.127 235.752 126.127C235.349 126.127 235.023 126.452 235.023 126.853C235.023 127.254 235.349 127.579 235.752 127.579Z" fill="#3F3D56"/>
<path d="M252.543 145.83C252.543 145.83 253.039 146.572 252.543 146.905C252.046 147.239 252.591 148.094 252.591 148.094C252.591 148.094 251.353 148.814 251.898 149.468C252.443 150.121 252.098 153.054 252.098 153.054L250.608 155.525C250.608 155.525 250.697 157.109 250.703 159.249C250.703 162.588 250.506 167.283 249.416 169.423L249.562 186.983C249.562 186.983 244.347 188.884 239.982 188.303L239.334 160.126C239.334 160.126 240.279 144.147 240.627 141.082C240.83 139.49 240.913 137.886 240.875 136.282C240.875 136.282 240.726 131.486 240.227 129.262C240.227 129.262 239.688 119.615 239.634 116.945C239.609 115.668 239.677 111.941 239.752 108.398C239.836 104.523 239.93 100.869 239.93 100.869L238.946 93.1017C238.946 93.1017 239.931 93.0049 240.227 93.3974C240.36 93.5212 240.505 93.6319 240.659 93.7281C242.361 94.8735 248.367 98.3957 248.367 98.3957C248.367 98.3957 251.69 99.7132 252.486 101.601C253.282 103.488 253.835 104.827 254.221 105.365C254.607 105.903 254.817 108.43 254.817 108.43C254.817 108.43 255.961 113.081 256.854 113.869C257.747 114.657 258.389 119.658 258.389 119.658L250.498 125.842C250.498 125.842 249.805 136.129 249.656 136.527C249.508 136.925 252.543 145.83 252.543 145.83Z" fill="white"/>
<path d="M252.842 145.83C252.842 145.83 253.336 146.572 252.842 146.905C252.349 147.239 252.888 148.094 252.888 148.094C252.888 148.094 251.65 148.814 252.195 149.468C252.74 150.121 252.394 153.054 252.394 153.054L250.911 155.525C250.911 155.525 251 157.109 251.008 159.249C251.008 162.588 250.811 167.283 249.721 169.423L249.869 186.983C249.869 186.983 244.654 188.884 240.289 188.303L239.645 160.126C239.645 160.126 240.586 144.147 240.937 141.082C241.141 139.49 241.223 137.886 241.182 136.282C241.182 136.282 241.034 131.486 240.538 129.262C240.538 129.262 239.998 119.615 239.941 116.945C239.917 115.668 239.984 111.941 240.06 108.398C240.144 104.523 240.238 100.869 240.238 100.869L238.938 92.9968C238.938 92.9968 240.238 92.9968 240.538 93.3974C240.669 93.5227 240.814 93.6335 240.969 93.7282C242.669 94.8735 248.674 98.3957 248.674 98.3957C248.674 98.3957 251.99 99.7132 252.799 101.601C253.608 103.488 254.148 104.827 254.534 105.365C254.92 105.903 255.13 108.43 255.13 108.43C255.13 108.43 256.274 113.081 257.167 113.869C258.06 114.657 258.705 119.658 258.705 119.658L250.814 125.842C250.814 125.842 250.12 136.129 249.969 136.527C249.818 136.925 252.842 145.83 252.842 145.83Z" fill="white"/>
<path opacity="0.1" d="M243.392 103.152L244.107 105.222L240.354 108.987C240.438 105.112 240.532 101.458 240.532 101.458L239.232 93.5883C239.232 93.5883 240.532 93.5883 240.832 93.9889C240.963 94.1142 241.108 94.225 241.263 94.3197L244.452 103.485L243.392 103.152Z" fill="black"/>
<path d="M243.087 102.558L243.802 104.625L240.052 108.39C240.133 104.515 240.23 100.861 240.23 100.861L238.927 92.9888C238.927 92.9888 240.23 92.9888 240.527 93.3894C240.659 93.5138 240.804 93.6246 240.958 93.7201L244.166 102.894L243.087 102.558Z" fill="white"/>
<path opacity="0.1" d="M243.087 82.0726C243.088 83.0414 242.935 84.0043 242.634 84.9253C242.583 84.9338 242.531 84.932 242.481 84.92C242.431 84.9079 242.384 84.886 242.342 84.8554C242.27 82.4356 241.077 80.161 239.607 78.2278C239.193 77.6447 238.693 77.1279 238.123 76.6952C237.546 76.2637 236.829 76.0615 236.11 76.1279C235.301 76.2381 234.586 76.7866 233.769 76.8565C232.69 76.9453 231.724 76.2005 230.653 76.1655C230.217 76.1691 229.788 76.2655 229.392 76.4483C228.997 76.631 228.646 76.8958 228.362 77.2249C227.799 77.8869 227.381 78.6589 227.135 79.4915C226.711 80.7547 226.48 82.0744 226.45 83.4062C226.436 84.1591 226.363 85.1028 225.662 85.377C225.715 84.8238 225.652 84.2655 225.477 83.7379C225.302 83.2102 225.018 82.7246 224.645 82.3119L224.628 82.2931C224.628 82.2178 224.628 82.1479 224.628 82.0726C224.628 79.6324 225.601 77.2922 227.332 75.5667C229.064 73.8412 231.412 72.8719 233.86 72.8719C236.309 72.8719 238.657 73.8412 240.388 75.5667C242.12 77.2922 243.092 79.6324 243.092 82.0726H243.087Z" fill="black"/>
<path d="M237.691 67.4649C236.289 66.8077 234.695 66.6834 233.208 67.1154C232.46 67.3358 231.756 67.6934 230.998 67.8736C229.379 68.2635 227.491 67.8413 226.101 68.7851C225.33 69.3228 224.866 70.1724 224.434 71.0006L223.355 73.0466C222.767 74.1678 222.173 75.3078 221.928 76.542C221.682 77.7761 221.831 79.1581 222.616 80.1529C223.185 80.8735 224.032 81.3279 224.653 82.0081C225.026 82.4228 225.308 82.91 225.483 83.4389C225.657 83.9678 225.72 84.527 225.667 85.0813C226.369 84.8124 226.439 83.8633 226.455 83.1105C226.485 81.7787 226.716 80.459 227.14 79.1957C227.386 78.3632 227.804 77.5911 228.368 76.9291C228.651 76.5996 229.003 76.3344 229.398 76.1513C229.793 75.9681 230.222 75.8712 230.658 75.8671C231.737 75.9047 232.706 76.6495 233.774 76.5581C234.583 76.4909 235.301 75.9424 236.116 75.8321C236.834 75.7644 237.552 75.9668 238.128 76.3995C238.699 76.8308 239.198 77.3478 239.609 77.932C241.082 79.8679 242.278 82.1318 242.348 84.5597C242.653 84.7801 243.092 84.4898 243.243 84.1456C243.394 83.8015 243.4 83.3981 243.591 83.0701C243.813 82.691 244.236 82.4867 244.568 82.2017C245.41 81.4784 245.62 80.2604 245.588 79.1554C245.555 78.0503 245.34 76.9291 245.55 75.8429C245.677 75.1788 245.963 74.5523 246.119 73.8936C246.276 73.2349 246.295 72.4955 245.925 71.9281C245.385 71.0973 244.25 70.9306 243.26 70.8527C242.135 70.7559 241.128 70.8796 240.411 69.9358C240.073 69.444 239.694 68.9816 239.278 68.5538C239.129 68.4113 237.691 67.5241 237.691 67.4649Z" fill="#512E4E"/>
<path opacity="0.1" d="M208.361 124.164L205.544 118.972L204.651 126.985C204.651 126.985 205.148 130.545 205.048 131.09C204.948 131.636 207.082 136.53 207.082 136.53C207.082 136.53 214.131 149.045 217.01 149.688L226.722 142.762L224.143 139.498C224.143 139.498 223.25 139.151 223.026 139.498C223.026 139.498 218.235 131.287 217.741 130.695C217.247 130.104 217.342 128.912 217.342 128.912C217.342 128.912 216.597 128.122 216.845 127.38C217.093 126.638 215.421 124.067 215.421 124.067L216.959 122.634L208.361 124.164Z" fill="black"/>
<path d="M205.692 118.378L204.948 118.972L204.055 126.985C204.055 126.985 204.551 130.545 204.451 131.09C204.352 131.636 206.488 136.53 206.488 136.53C206.488 136.53 213.535 149.045 216.414 149.688L226.142 142.762L223.56 139.498C223.56 139.498 222.667 139.151 222.443 139.498C222.443 139.498 217.655 131.287 217.158 130.695C216.662 130.104 216.762 128.912 216.762 128.912C216.762 128.912 216.017 128.122 216.265 127.38C216.513 126.638 214.825 124.067 214.825 124.067L216.362 122.634L205.692 118.378Z" fill="white"/>
<path opacity="0.1" d="M251.898 149.777C252.438 150.43 252.098 153.366 252.098 153.366L250.608 155.821C250.608 155.821 250.697 157.407 250.703 159.548L248.199 160.327C247.973 160.398 247.732 160.413 247.499 160.372C247.265 160.331 247.044 160.235 246.855 160.092C246.666 159.949 246.514 159.763 246.412 159.549C246.31 159.336 246.26 159.101 246.268 158.865L246.702 144.991L252.543 147.214C252.046 147.559 252.591 148.403 252.591 148.403C252.591 148.403 251.353 149.123 251.898 149.777Z" fill="black"/>
<path d="M252.195 149.481C252.734 150.132 252.394 153.068 252.394 153.068L250.911 155.525C250.911 155.525 251 157.109 251.008 159.249L248.458 160.042C248.237 160.111 248.002 160.127 247.774 160.087C247.545 160.047 247.329 159.954 247.144 159.814C246.96 159.674 246.811 159.492 246.711 159.284C246.611 159.075 246.563 158.846 246.57 158.615L247.004 144.692L252.842 146.921C252.343 147.266 252.888 148.11 252.888 148.11C252.888 148.11 251.65 148.828 252.195 149.481Z" fill="white"/>
<path d="M254.132 142.861C254.132 142.861 253.735 145.386 252.742 145.534C251.75 145.682 251.304 149.618 250.314 149.481C249.324 149.344 249.98 145.819 250.015 145.136C250.05 144.453 248.936 141.625 249.767 140.982C250.598 140.339 253.242 140.982 253.242 140.982L254.132 142.861Z" fill="#CF6F80"/>
<path opacity="0.1" d="M256.231 123.422L258.1 119.658C258.1 119.658 258.848 122.527 258.848 124.059C258.848 125.592 259.889 125.743 259.889 125.743C259.889 125.743 261.03 127.087 260.429 128.068C259.827 129.05 259.587 131.48 259.587 131.48C259.587 131.48 259.784 136.129 258.891 136.772C257.998 137.414 257.798 138.949 257.798 138.949C257.798 138.949 256.161 141.867 256.212 142.56C256.263 143.254 253.929 147.951 253.929 147.951C253.929 147.951 255.071 142.114 248.421 139.592C248.421 139.592 248.369 137.613 248.866 137.07C249.362 136.527 250.136 136.263 249.651 133.532C249.165 130.8 249.51 127.506 249.51 126.848C249.51 126.189 251 122.083 251 122.083L256.231 123.422Z" fill="black"/>
<path d="M257.062 119.12L258.697 119.658C258.697 119.658 259.444 122.527 259.444 124.059C259.444 125.592 260.485 125.743 260.485 125.743C260.485 125.743 261.626 127.087 261.025 128.068C260.423 129.05 260.18 131.48 260.18 131.48C260.18 131.48 260.38 136.129 259.487 136.772C258.594 137.414 258.408 138.949 258.408 138.949C258.408 138.949 256.77 141.867 256.822 142.56C256.873 143.254 254.536 147.951 254.536 147.951C254.536 147.951 255.678 142.114 249.028 139.592C249.028 139.592 248.979 137.613 249.475 137.07C249.972 136.527 250.746 136.263 250.26 133.532C249.775 130.8 250.12 127.506 250.12 126.848C250.12 126.189 251.609 122.083 251.609 122.083L257.062 119.12Z" fill="white"/>
<path opacity="0.1" d="M220.943 216.685C220.943 216.685 223.549 215.053 225.26 216.239C226.97 217.425 220.943 216.685 220.943 216.685Z" fill="black"/>
<path opacity="0.1" d="M241.198 211.638C241.198 211.638 243.505 211.343 245.442 213.421C247.379 215.499 241.198 211.638 241.198 211.638Z" fill="black"/>
<g opacity="0.1">
<path d="M244.568 81.6102C244.236 81.8979 243.81 82.0995 243.589 82.4786C243.4 82.8039 243.395 83.2073 243.243 83.5541C243.092 83.9009 242.653 84.1886 242.345 83.9682C242.275 81.5483 241.08 79.2764 239.609 77.3405C239.198 76.7571 238.699 76.241 238.128 75.8106C237.551 75.377 236.833 75.1738 236.113 75.2406C235.304 75.3509 234.592 75.8994 233.774 75.9693C232.695 76.058 231.726 75.3132 230.655 75.2783C230.22 75.2816 229.791 75.3778 229.396 75.5606C229.002 75.7433 228.651 76.0083 228.368 76.3376C227.804 76.9996 227.386 77.7717 227.14 78.6042C226.716 79.8675 226.485 81.1872 226.455 82.5189C226.439 83.2691 226.369 84.2048 225.673 84.4844C225.689 84.6839 225.689 84.8844 225.673 85.084C226.377 84.8151 226.447 83.866 226.463 83.1131C226.493 81.7814 226.724 80.4617 227.148 79.1984C227.394 78.3659 227.813 77.5938 228.376 76.9318C228.659 76.6025 229.01 76.3374 229.404 76.1543C229.799 75.9711 230.228 75.8741 230.663 75.8698C231.743 75.9074 232.714 76.6522 233.782 76.5608C234.592 76.4936 235.309 75.9451 236.121 75.8348C236.84 75.7672 237.559 75.9695 238.136 76.4021C238.707 76.8335 239.206 77.3505 239.618 77.9347C241.088 79.8706 242.283 82.1345 242.353 84.5624C242.661 84.7828 243.1 84.4925 243.252 84.1483C243.403 83.8041 243.408 83.4008 243.597 83.0728C243.818 82.6937 244.244 82.4894 244.576 82.2044C245.418 81.4811 245.628 80.2631 245.596 79.1581C245.596 79.1231 245.596 79.0908 245.596 79.0559C245.542 80.0185 245.286 80.9944 244.568 81.6102Z" fill="black"/>
<path d="M224.65 81.422C224.032 80.7417 223.185 80.2846 222.616 79.5641C222.135 78.928 221.861 78.1605 221.831 77.3647C221.746 78.3597 222.025 79.3518 222.616 80.1583C223.185 80.8788 224.032 81.3332 224.65 82.0135C225.247 82.6785 225.605 83.5219 225.67 84.4118C225.71 83.8707 225.641 83.327 225.466 82.8133C225.291 82.2995 225.013 81.8263 224.65 81.422Z" fill="black"/>
<path d="M246.119 73.3021C245.96 73.9608 245.677 74.5873 245.547 75.2514C245.47 75.7005 245.442 76.1567 245.464 76.6119C245.473 76.3547 245.501 76.0986 245.547 75.8456C245.677 75.1815 245.96 74.555 246.119 73.8963C246.211 73.5327 246.241 73.1566 246.208 72.7832C246.191 72.958 246.161 73.1314 246.119 73.3021Z" fill="black"/>
</g>
<path opacity="0.1" d="M35.8081 225.55C50.3264 225.55 62.0957 223.666 62.0957 221.342C62.0957 219.018 50.3264 217.134 35.8081 217.134C21.2899 217.134 9.5206 219.018 9.5206 221.342C9.5206 223.666 21.2899 225.55 35.8081 225.55Z" fill="#04AD48"/>
<path d="M36.6553 140.732H34.9637V178.688H36.6553V140.732Z" fill="#535461"/>
<path d="M47.2874 178.575L47.1795 180.286L47.0311 182.705L46.969 183.711L46.8179 186.131L46.7532 187.136L46.6048 189.556L44.8971 217C44.8243 218.181 44.3023 219.289 43.4375 220.1C42.5727 220.91 41.4304 221.361 40.2434 221.361H31.3756C30.1854 221.361 29.04 220.908 28.1746 220.093C27.3092 219.279 26.7894 218.165 26.7219 216.981L25.0142 189.537L24.8658 187.118L24.8037 186.112L24.65 183.692L24.5879 182.687L24.4395 180.267L24.3316 178.557C24.313 178.229 24.3614 177.901 24.474 177.592C24.5866 177.284 24.7611 177.001 24.9867 176.762C25.2123 176.523 25.4844 176.332 25.7864 176.201C26.0885 176.07 26.4141 176.001 26.7435 176H44.8782C45.2091 176.002 45.5361 176.071 45.8391 176.203C46.1422 176.336 46.4149 176.528 46.6405 176.77C46.8661 177.011 47.0398 177.295 47.1511 177.606C47.2623 177.916 47.3087 178.246 47.2874 178.575Z" fill="#3F3D56"/>
<path d="M47.1795 180.283L47.0284 182.697H24.5879L24.4368 180.283H47.1795Z" fill="#9D9CB5"/>
<path d="M46.9663 183.703L46.8179 186.117H24.801L24.65 183.703H46.9663Z" fill="#9D9CB5"/>
<path d="M46.7532 187.126L46.6048 189.537H25.0142L24.8631 187.126H46.7532Z" fill="#9D9CB5"/>
<path d="M21.8658 154.961C31.7182 162.064 35.8216 173.174 35.8216 173.174C35.8216 173.174 23.9512 172.768 14.0961 165.664C4.24096 158.561 0.132187 147.459 0.132187 147.459C0.132187 147.459 12.0026 147.857 21.8658 154.961Z" fill="#04AD48"/>
<path d="M0.132187 147.459C0.132187 147.459 12.4531 154.275 16.4054 159.919C20.3577 165.562 35.8108 173.179 35.8108 173.179" stroke="#535461" stroke-width="2" stroke-miterlimit="10"/>
<path d="M28.2138 140.651C33.5771 144.515 35.8108 150.562 35.8108 150.562C35.8108 150.562 29.3361 150.341 23.9863 146.478C18.6365 142.614 16.3893 136.565 16.3893 136.565C16.3893 136.565 22.8532 136.785 28.2138 140.651Z" fill="#04AD48"/>
<path d="M16.3893 136.565C16.3893 136.565 23.096 140.275 25.2489 143.345C27.4017 146.416 35.8108 150.562 35.8108 150.562" stroke="#535461" stroke-width="2" stroke-miterlimit="10"/>
<path d="M43.6022 150.255C37.443 157.001 36.14 165.818 36.14 165.818C36.14 165.818 44.8243 163.694 50.978 156.945C57.1317 150.196 58.4402 141.383 58.4402 141.383C58.4402 141.383 49.7613 143.509 43.6022 150.255Z" fill="#04AD48"/>
<path d="M58.4455 141.385C58.4455 141.385 50.4222 148.301 48.3827 153.065C46.3431 157.829 36.14 165.818 36.14 165.818" stroke="#535461" stroke-width="2" stroke-miterlimit="10"/>
</g>
<defs>
<linearGradient id="paint0_linear_1_15" x1="125.592" y1="224.657" x2="125.592" y2="69.3443" gradientUnits="userSpaceOnUse">
<stop stop-color="#808080" stop-opacity="0.25"/>
<stop offset="0.54" stop-color="#808080" stop-opacity="0.12"/>
<stop offset="1" stop-color="#808080" stop-opacity="0.1"/>
</linearGradient>
<linearGradient id="paint1_linear_1_15" x1="232.657" y1="231.457" x2="232.657" y2="66.0103" gradientUnits="userSpaceOnUse">
<stop stop-color="#808080" stop-opacity="0.25"/>
<stop offset="0.54" stop-color="#808080" stop-opacity="0.12"/>
<stop offset="1" stop-color="#808080" stop-opacity="0.1"/>
</linearGradient>
<clipPath id="clip0_1_15">
<rect width="315" height="232" fill="white"/>
</clipPath>
</defs>
</svg>
